<?xml version="1.0" standalone="no"?>
<!DOCTYPE svg PUBLIC "-//W3C//DTD SVG 20010904//EN"
 "http://www.w3.org/TR/2001/REC-SVG-20010904/DTD/svg10.dtd">
<svg version="1.0" xmlns="http://www.w3.org/2000/svg"
 width="512.000000pt" height="512.000000pt" viewBox="0 0 512.000000 512.000000"
 preserveAspectRatio="xMidYMid meet">

<g transform="translate(0.000000,512.000000) scale(0.100000,-0.100000)"
fill="#000000" stroke="none">
<path d="M3590 5109 c-409 -45 -775 -266 -1002 -603 -106 -159 -166 -300 -210
-497 -32 -144 -32 -406 0 -551 58 -267 173 -484 355 -675 201 -210 437 -342
727 -406 138 -30 403 -30 547 1 278 60 502 181 699 377 148 148 240 286 314
474 236 600 22 1289 -514 1650 -263 178 -608 264 -916 230z m275 -862 c22 -13
49 -40 62 -62 23 -40 23 -41 23 -505 0 -464 0 -465 -23 -505 -39 -69 -123
-101 -194 -74 -42 15 -92 68 -103 109 -6 20 -10 185 -10 381 l0 346 -72 5
c-83 5 -127 24 -159 69 -23 33 -36 102 -25 143 9 34 54 86 91 102 21 9 81 13
200 13 158 1 173 -1 210 -22z"/>
<path d="M2000 4683 c-595 -58 -1093 -456 -1280 -1022 -66 -201 -71 -249 -80
-791 -8 -518 -9 -526 -66 -705 -36 -114 -122 -285 -196 -390 -34 -49 -118
-144 -184 -211 -133 -131 -167 -184 -183 -280 -25 -160 59 -318 207 -391 l57
-28 1860 0 1860 0 60 32 c74 38 138 105 173 181 23 49 27 70 27 152 0 133 -25
181 -157 309 -106 102 -200 216 -262 317 l-37 61 -157 6 c-248 9 -461 62 -690
172 -521 250 -888 724 -1004 1297 -20 99 -23 142 -23 348 1 206 4 248 23 340
42 191 125 410 211 558 l31 52 -77 -2 c-43 0 -94 -3 -113 -5z"/>
</g>
</svg>
