<?xml version="1.0" encoding="UTF-8"?>
<svg version="1.1" xmlns="http://www.w3.org/2000/svg" width="512" height="512">
<path d="M0 0 C0.92708192 -0.00199105 1.85416385 -0.0039821 2.80933917 -0.00603348 C3.83461478 -0.00312064 4.8598904 -0.0002078 5.91623497 0.00279331 C7.0000852 0.00193889 8.08393542 0.00108446 9.20062959 0.00020415 C12.85661079 -0.0014517 16.51254677 0.00407245 20.16852379 0.00952244 C22.77962302 0.00980431 25.39072233 0.00964657 28.00182152 0.00907993 C33.63577943 0.00855482 39.26972579 0.01170033 44.9036808 0.01731777 C53.04949829 0.02543444 61.19531017 0.02804816 69.34113126 0.02930576 C82.5562223 0.03149602 95.77130718 0.0381554 108.98639488 0.04760838 C121.8259128 0.05678317 134.66542904 0.06386368 147.50494957 0.06811619 C148.29597795 0.06837891 149.08700633 0.06864164 149.90200527 0.06891232 C153.87024287 0.07021733 157.83848049 0.07148104 161.80671811 0.07272422 C194.74291694 0.08309602 227.67910821 0.10071362 260.61530113 0.12304783 C260.61894676 0.82160389 260.62259239 1.52015995 260.6263485 2.23988438 C260.66432447 8.84552308 260.72128501 15.4506992 260.79920387 22.05599403 C260.83859693 25.45132953 260.87082478 28.84640887 260.88629723 32.24194431 C260.90443531 36.15186467 260.95442277 40.06107539 261.00592613 43.97070408 C261.00776909 45.78671871 261.00776909 45.78671871 261.00964928 47.63942051 C261.12546377 54.3388866 261.54998549 58.70590697 265.61530113 64.12304783 C270.29966885 68.45608797 273.91915757 70.35716982 280.30182457 70.44189548 C282.03698326 70.47198704 282.03698326 70.47198704 283.80719566 70.5026865 C285.6225985 70.5197263 285.6225985 70.5197263 287.47467613 70.53711033 C288.59116539 70.55475437 289.70765465 70.57239841 290.85797691 70.59057713 C295.02693872 70.65362327 299.19614152 70.69982435 303.36530113 70.74804783 C312.68780113 70.87179783 322.01030113 70.99554783 331.61530113 71.12304783 C331.61530113 96.53304783 331.61530113 121.94304783 331.61530113 148.12304783 C326.38892612 147.46975095 321.79328153 146.72532171 316.74030113 145.56054783 C287.0238277 139.57608059 256.1774785 146.34099406 230.61530113 162.12304783 C216.9150282 171.15785029 216.9150282 171.15785029 206.30748081 183.32232094 C203.94099729 187.12028842 202.13507768 189.68709948 197.72286987 190.95274258 C194.07128203 191.25813588 190.51279421 191.2787387 186.84894371 191.20483494 C185.45538759 191.20888919 184.06183826 191.21693043 182.66832542 191.22863865 C178.89915285 191.24934733 175.13224025 191.21525511 171.36333871 191.17165923 C167.41469947 191.13597703 163.46630071 191.15291668 159.51756859 191.16468906 C152.0423676 191.17938385 144.56805182 191.15012374 137.09300679 191.10351807 C126.11717002 191.03680957 115.1412608 191.03051854 104.16524601 191.03119087 C103.36010069 191.0312187 102.55495537 191.03124654 101.72541171 191.03127521 C100.12015526 191.03135023 98.51489882 191.03154759 96.9096424 191.0318709 C92.20982883 191.03125245 87.51035334 191.01585278 82.81062663 190.98756778 C79.88998832 190.97120201 76.96935652 190.96243404 74.04868317 190.95507145 C72.04799222 190.94723595 70.04734981 190.92912273 68.04672813 190.91072178 C66.26143951 190.90795734 66.26143951 190.90795734 64.44008446 190.90513706 C63.40570653 190.89897845 62.3713286 190.89281984 61.30560589 190.88647461 C58.52814081 191.13071231 56.90205611 191.54054243 54.61530113 193.12304783 C53.61530113 196.0397145 53.61530113 196.0397145 53.61530113 199.12304783 C55.33756609 202.3715476 55.33756609 202.3715476 58.61530113 203.12304783 C60.40383419 203.22508172 62.19589358 203.26935756 63.98729515 203.28126621 C65.10208748 203.29105503 66.21687981 203.30084385 67.36545372 203.3109293 C68.58896538 203.31668476 69.81247704 203.32244022 71.0730648 203.32837009 C72.3609742 203.33826969 73.64888359 203.34816929 74.97582054 203.35836887 C78.50856821 203.38541282 82.04132923 203.40642513 85.57412314 203.42637086 C89.2657151 203.44823356 92.95726592 203.47562086 96.64882469 203.5024271 C103.63981423 203.55235014 110.6308266 203.59729042 117.6218608 203.64044946 C125.5806936 203.68982515 133.53948514 203.74474206 141.49827802 203.80012906 C157.87058102 203.91394314 174.24292184 204.02078344 190.61530113 204.12304783 C190.38539482 204.68668537 190.15548851 205.25032291 189.91861534 205.83104038 C188.86299889 208.42547051 187.81334025 211.02227259 186.76373863 213.61914158 C186.40207603 214.5054929 186.04041344 215.39184422 185.66779137 216.30505466 C181.91374472 225.61740184 179.34924314 234.96279879 177.56598473 244.85131931 C177.38747978 245.83930012 177.20897484 246.82728092 177.02506065 247.84520054 C176.82222969 248.97273495 176.82222969 248.97273495 176.61530113 250.12304783 C175.99961864 250.12543618 175.38393614 250.12782454 174.7495966 250.13028526 C159.77713195 250.18938979 144.80484819 250.2649104 129.83256626 250.35876274 C122.59210921 250.40375188 115.35170169 250.44315922 108.11115074 250.46948338 C101.80118082 250.49243836 95.49136723 250.52580806 89.18152124 250.57174939 C85.8396578 250.5957157 82.49794951 250.61442198 79.15600204 250.62066174 C75.42759912 250.63023907 71.69976625 250.65822261 67.9715023 250.69067478 C66.30454811 250.68852215 66.30454811 250.68852215 64.60391808 250.68632603 C63.5900956 250.69886417 62.57627312 250.71140232 61.53172874 250.72432041 C60.20849492 250.73123386 60.20849492 250.73123386 58.85852909 250.73828697 C56.14073568 251.2044458 55.24757998 251.93354727 53.61530113 254.12304783 C53.11530113 256.62304783 53.11530113 256.62304783 53.61530113 259.12304783 C55.24334712 261.30261816 56.13609319 262.04027732 58.84291172 262.50780869 C59.71769326 262.51241765 60.5924748 262.51702662 61.49376488 262.52177525 C62.4991732 262.53431339 63.50458153 262.54685154 64.54045677 262.55976963 C65.64240883 262.55833454 66.74436089 262.55689945 67.87970543 262.55542088 C69.04081841 262.56561253 70.20193138 262.57580418 71.3982296 262.58630466 C75.24537466 262.61655717 79.09227125 262.62571955 82.93951988 262.63476658 C85.60325987 262.65160419 88.26696633 262.66960675 90.93068504 262.68916416 C97.2310592 262.73285961 103.53140741 262.76138776 109.83188707 262.78448755 C117.0048112 262.81152299 124.1776008 262.85543544 131.35042894 262.90077627 C146.10530684 262.99366602 160.86024275 263.06532689 175.61530113 263.12304783 C175.71945335 263.85567844 175.82360558 264.58830906 175.93091393 265.3431406 C176.41592724 268.71901417 176.91396915 272.09284715 177.41217613 275.46679783 C177.57572594 276.61889744 177.73927574 277.77099705 177.9077816 278.95800877 C179.20664787 287.66225952 181.37945319 295.67293354 184.44342613 303.90429783 C185.61530113 307.12304783 185.61530113 307.12304783 185.61530113 309.12304783 C184.9644643 309.12635798 184.31362747 309.12966812 183.64306831 309.13307858 C167.81073743 309.21427973 151.97851297 309.30636264 136.14631844 309.41057491 C128.49000359 309.46070834 120.83369949 309.50715115 113.17731285 309.54492283 C106.50443036 309.57785187 99.83163108 309.61768811 93.15884042 309.66583788 C89.6252651 309.69109386 86.09174492 309.71287776 82.55810356 309.72639179 C78.61450407 309.74160303 74.67110688 309.77223428 70.72760582 309.80420017 C69.55444313 309.80636036 68.38128044 309.80852055 67.17256737 309.81074619 C65.56142303 309.82749142 65.56142303 309.82749142 63.91773033 309.84457493 C62.98487583 309.85010569 62.05202133 309.85563644 61.09089851 309.8613348 C58.44118769 310.1414546 56.82369435 310.64030248 54.61530113 312.12304783 C53.44419664 314.98264842 53.44419664 314.98264842 53.61530113 318.12304783 C55.65687369 320.80414107 56.85061386 321.98457018 60.20352173 322.59175014 C61.18975714 322.57725386 62.17599255 322.56275757 63.19211388 322.547822 C64.89517189 322.53834286 64.89517189 322.53834286 66.63263512 322.52867222 C68.49504845 322.48813473 68.49504845 322.48813473 70.39508629 322.4467783 C72.40760199 322.42812629 74.42011799 322.40949459 76.43264079 322.39162469 C78.59498192 322.36910312 80.75702368 322.33716861 82.91921425 322.30325031 C87.43371046 322.23509042 91.94786501 322.20811162 96.46280479 322.18972874 C109.30100659 322.13282763 122.13818997 322.05087947 134.97516441 321.85937595 C142.06653457 321.75392404 149.15643955 321.69881742 156.24861562 321.69945729 C159.99867527 321.69761467 163.74455474 321.67001886 167.4936161 321.57989216 C192.14115979 321.00833383 192.14115979 321.00833383 197.55835533 326.13751316 C200.28968984 329.51628399 201.86726113 333.16674708 203.61530113 337.12304783 C213.41160119 349.74718389 226.09897122 358.59346204 239.82623863 366.44336033 C240.74662926 366.9976572 241.66701988 367.55195408 242.61530113 368.12304783 C242.61530113 368.45304783 242.61530113 368.78304783 242.61530113 369.12304783 C241.6594723 369.12451439 240.70364347 369.12598095 239.71885014 369.12749195 C216.48466926 369.16405174 193.25063292 369.22345489 170.016572 369.30695057 C158.78084313 369.3467967 147.54518488 369.37916082 136.30939293 369.39404392 C126.51874662 369.4070316 116.72825531 369.43392219 106.93769628 369.47766089 C101.75139596 369.50034077 96.56528727 369.51595461 91.37893295 369.51493168 C86.5008747 369.51418891 81.6232411 369.53198472 76.74529266 369.56421566 C74.95179619 369.57275891 73.15825232 369.57443481 71.36474419 369.56885052 C68.92177514 369.56225523 66.48017505 369.58002155 64.03734398 369.6040659 C63.32236612 369.59630548 62.60738826 369.58854506 61.87074441 369.58054948 C58.67677252 369.63646649 57.02595911 369.74198546 54.6397047 371.95626545 C53.19799623 375.00571647 53.69586854 376.94039654 54.61530113 380.12304783 C57.79747109 381.71413281 61.23698796 381.27102286 64.73210716 381.27021885 C66.00556373 381.27573388 66.00556373 381.27573388 67.30474669 381.28136033 C70.16600197 381.29242453 73.02722098 381.29624559 75.88849449 381.30004978 C77.93315815 381.30631222 79.97782066 381.31295882 82.02248192 381.3199625 C87.58849914 381.3373893 93.15450777 381.34792821 98.72054553 381.35616803 C102.19439771 381.36131316 105.66824719 381.36738902 109.14209747 381.37367916 C120.00075052 381.39273337 130.85939674 381.40696569 141.71806329 381.41529113 C154.27223529 381.4250744 166.82623147 381.45142143 179.38034147 381.49179202 C189.07206976 381.52189395 198.76374748 381.53675424 208.45552164 381.54007214 C214.24992351 381.54242884 220.04413761 381.55146983 225.83848953 381.57653332 C231.28610665 381.59971645 236.73341105 381.60408678 242.18106461 381.59377193 C244.18422545 381.59327412 246.1874012 381.59966618 248.19051552 381.61332798 C250.917895 381.63089392 253.64413336 381.624017 256.37151146 381.61079502 C257.17072594 381.62176427 257.96994042 381.63273351 258.79337353 381.64403516 C263.19716168 381.6234886 263.19716168 381.6234886 266.63053799 379.09256363 C266.95550982 378.44262341 267.28048166 377.7926832 267.61530113 377.12304783 C268.31268394 377.26742283 269.01006676 377.41179783 269.72858238 377.56054783 C287.66291101 380.71383638 306.37490899 380.52306608 324.01764488 375.99804783 C327.61530113 375.12304783 327.61530113 375.12304783 331.61530113 375.12304783 C331.66165743 383.13774616 331.69718702 391.1523884 331.71892548 399.16718769 C331.72935925 402.88885073 331.74351095 406.61042199 331.76618004 410.3320322 C331.78792303 413.92411545 331.79987282 417.51611045 331.80505562 421.10825443 C331.80874877 422.47817721 331.81596058 423.84809521 331.82676125 425.21798038 C331.84129462 427.13778562 331.84211821 429.05767979 331.84235191 430.97754002 C331.84679314 432.07008091 331.85123436 433.1626218 331.85581017 434.28827 C331.61238212 437.157453 331.21412825 438.75077713 329.61530113 441.12304783 C326.21977088 443.38673466 325.05686918 443.37537828 321.07515717 443.38311005 C319.91578018 443.39017564 318.7564032 443.39724123 317.56189358 443.40452093 C316.28224787 443.40210584 315.00260216 443.39969076 313.68417931 443.39720249 C312.3157169 443.4016529 310.94725706 443.40696629 309.57880104 443.41307122 C305.80988988 443.42728529 302.04106104 443.42891387 298.27212691 443.42847431 C294.21067893 443.43011951 290.14926517 443.44318038 286.08783531 443.45466709 C277.20366356 443.47753856 268.31951567 443.48543987 259.43531847 443.49049354 C253.8905206 443.49374779 248.34572969 443.50026859 242.80093575 443.50749493 C227.45585732 443.52706296 212.11078537 443.54346621 196.76569366 443.54637146 C195.7833099 443.54655903 194.80092614 443.5467466 193.78877317 443.54693985 C191.79715403 443.54730611 189.80553489 443.54766981 187.81391574 443.54803097 C186.33090669 443.54830518 186.33090669 443.54830518 184.81793785 443.54858494 C183.33312378 443.54885576 183.33312378 443.54885576 181.81831346 443.54913206 C165.77190315 443.55267514 149.72562692 443.579705 133.67926313 443.61708283 C117.21372611 443.65513091 100.74825569 443.67452868 84.28267372 443.67483097 C75.03414947 443.6754163 65.78578519 443.6839569 56.53730202 443.71282864 C48.66343706 443.7372957 40.7897904 443.74465713 32.91589774 443.72958111 C28.89696888 443.72239314 24.8784715 443.72335009 20.85959053 443.74599171 C17.18178349 443.76651369 13.50474151 443.76404614 9.82694338 443.74311686 C7.86333357 443.73794446 5.89970692 443.75745343 3.93619549 443.77777857 C2.77160302 443.76658993 1.60701054 443.75540129 0.40712738 443.7438736 C-0.597885 443.74468805 -1.60289737 443.74550251 -2.63836467 443.74634165 C-6.55123067 442.8582978 -8.00483134 441.31666246 -10.38469887 438.12304783 C-11.01029402 434.73024935 -11.01029402 434.73024935 -11.01111126 430.75666046 C-11.01807887 430.02102382 -11.02504647 429.28538718 -11.03222522 428.52745852 C-11.04951428 426.05455729 -11.0310817 423.58321352 -11.01288795 421.11033726 C-11.0179315 419.32282694 -11.02515884 417.53532168 -11.0343861 415.74782807 C-11.05336247 410.82979661 -11.04104433 405.91226054 -11.02366316 400.99424136 C-11.01032099 395.692881 -11.02571488 390.39159465 -11.03748512 385.09024143 C-11.05588924 374.7027914 -11.04733104 364.31552914 -11.0293969 353.9280849 C-11.01538681 345.48857867 -11.01147467 337.04912349 -11.01483917 328.60960674 C-11.01531661 327.40970767 -11.01579406 326.20980859 -11.01628597 324.97354894 C-11.01731227 322.53619852 -11.01836762 320.09884811 -11.01945173 317.66149772 C-11.02802431 296.09696701 -11.01132526 274.53252714 -10.9816227 252.96801853 C-10.95278038 232.02787556 -10.94570275 211.08786342 -10.96111488 190.14770603 C-10.97786314 167.36089041 -10.98192558 144.57413695 -10.96440452 121.78731972 C-10.96256008 119.3591042 -10.96072535 116.93088868 -10.95890045 114.50267315 C-10.95798836 113.30785119 -10.95707627 112.11302923 -10.95613654 110.88200055 C-10.95052286 102.44898185 -10.95384603 94.01599341 -10.9604454 85.58297634 C-10.96816435 75.31125514 -10.96147789 65.0396629 -10.93627036 54.76796775 C-10.92374228 49.523958 -10.9176688 44.28014936 -10.92881203 39.03613186 C-10.93881075 34.24029228 -10.93048855 29.44485483 -10.90723085 24.64906443 C-10.90204707 22.9095917 -10.9036771 21.17008329 -10.9126255 19.43062585 C-10.92374272 17.07446073 -10.91047523 14.71967392 -10.89085674 12.36359406 C-10.88966526 11.05247208 -10.88847378 9.7413501 -10.88724619 8.39049715 C-10.30144249 4.58173366 -9.39503222 3.43823587 -6.38469887 1.12304783 C-4.02571798 -0.05644262 -2.63042755 -0.00124194 0 0 Z M54.24347496 73.4671793 C52.36362064 76.04864925 52.36362064 76.04864925 52.49030113 79.24804783 C53.91475038 82.88830702 55.13199043 83.45779666 58.61530113 85.12304783 C61.54596789 85.56996924 61.54596789 85.56996924 64.72565269 85.50399876 C65.95376671 85.51245823 67.18188072 85.5209177 68.44721031 85.52963352 C69.80011692 85.52380118 71.15302221 85.51765671 72.50592613 85.51123142 C73.93696048 85.51529847 75.36799168 85.5206411 76.79901695 85.5271616 C80.67917662 85.54082527 84.55909669 85.53554055 88.43926048 85.52602434 C92.50217898 85.5184228 96.56507713 85.52547473 100.62799644 85.53018284 C107.45062501 85.53563895 114.27315612 85.52845258 121.09576988 85.51416111 C128.98077899 85.49783483 136.86555538 85.50312345 144.75055885 85.51964033 C151.52352578 85.53325932 158.29642269 85.53517284 165.06939888 85.52732432 C169.11326219 85.52265006 173.15701616 85.52201611 177.20087242 85.53193378 C181.00289859 85.54060722 184.80462505 85.53457487 188.60661888 85.51725101 C190.00099248 85.51328816 191.39539136 85.51441682 192.78975487 85.52103901 C194.69481053 85.52925165 196.59992139 85.51712094 198.50494957 85.50399876 C199.57050072 85.50286768 200.63605186 85.5017366 201.73389244 85.50057125 C205.33665588 85.02853562 208.02781769 83.71053127 210.61530113 81.12304783 C211.11625136 78.24998555 211.11625136 78.24998555 210.61530113 75.12304783 C208.03803012 72.50928241 206.34548846 71.24993946 202.7026577 70.61688995 C201.62235786 70.61408303 200.54205803 70.61127611 199.42902184 70.60838413 C198.18407951 70.59565968 196.93913719 70.58293522 195.65646935 70.56982517 C194.28467178 70.57600702 192.91287608 70.582613 191.54108238 70.58960056 C190.090339 70.58254005 188.639603 70.57379448 187.18887901 70.56349277 C183.25495966 70.54100484 179.32144273 70.54393673 175.3874836 70.55281425 C172.10207231 70.55792644 168.81673649 70.55062981 165.53133297 70.54334217 C157.78093486 70.52634548 150.03073365 70.5299071 142.28034019 70.54663181 C134.2861456 70.56355957 126.29249678 70.54770943 118.29836178 70.51540893 C111.43195653 70.48871675 104.56572122 70.48143579 97.69926929 70.48992401 C93.59943018 70.49485358 89.49991958 70.49263614 85.40012169 70.4721365 C81.5454006 70.45378449 77.6914651 70.45973111 73.83678627 70.4843359 C72.42306091 70.48934516 71.00927574 70.48585084 69.59559822 70.47318745 C61.33279354 70.01763399 61.33279354 70.01763399 54.24347496 73.4671793 Z M54.12659168 132.9977026 C52.45429958 135.04313454 52.45429958 135.04313454 52.11530113 137.62304783 C52.79897415 141.04141291 53.83072368 142.02423058 56.61530113 144.12304783 C59.51320804 144.51582564 62.03081244 144.66366138 64.9279232 144.6309824 C65.77381398 144.63722236 66.61970475 144.64346232 67.49122858 144.64989138 C70.33039428 144.66586747 73.16870693 144.65319919 76.00787926 144.64062595 C78.04136723 144.64604502 80.07485128 144.65316646 82.10832787 144.66186619 C87.63514042 144.68012801 93.16165487 144.67302013 98.68847275 144.66034985 C104.46686557 144.65023702 110.24523252 144.65961074 116.02362633 144.66589451 C125.7282222 144.67317592 135.43269638 144.66357022 145.13727379 144.6445322 C156.36406471 144.62276259 167.59056508 144.62981361 178.81734896 144.65183783 C188.44886023 144.66997773 198.08028394 144.67255703 207.71180677 144.66208315 C213.46761495 144.65584048 219.22328647 144.65503387 224.97908592 144.6682291 C230.38984431 144.67976641 235.80022737 144.67180049 241.21094513 144.64865208 C243.19915773 144.64335367 245.1874018 144.64489802 247.17560196 144.65370274 C249.88505707 144.66459712 252.59330157 144.65096892 255.30267906 144.6309824 C256.48924874 144.64436673 256.48924874 144.64436673 257.69978952 144.65802145 C261.20533333 144.6076935 263.25267804 144.38245556 266.13874626 142.31786442 C267.9601898 140.06249953 267.9601898 140.06249953 267.55280113 136.49804783 C266.94021663 132.86787859 266.94021663 132.86787859 263.61530113 131.12304783 C260.85124188 130.92501028 258.18762186 130.84483735 255.42293358 130.85562229 C254.57789723 130.85109118 253.73286088 130.84656007 252.86221737 130.84189165 C250.0201727 130.82919393 247.17831835 130.83087146 244.3362484 130.83252048 C242.30291051 130.82653863 240.2695749 130.81973389 238.23624229 130.81216526 C232.70532393 130.79446427 227.1744674 130.78980819 221.64352345 130.78853369 C217.03097404 130.78663719 212.41843912 130.77928264 207.80589527 130.7721895 C196.92684538 130.75589276 186.04782861 130.75102176 175.16876793 130.75244236 C163.93463243 130.7536445 152.70068883 130.73253113 141.46660191 130.70095503 C131.83088065 130.67483352 122.19522224 130.66407331 112.55946583 130.66535318 C106.8002692 130.66586398 101.04124307 130.6601157 95.2820816 130.63899708 C89.86726363 130.61968383 84.45278004 130.61944275 79.03795052 130.63403034 C77.04811492 130.63612807 75.05825877 130.63136055 73.06845856 130.61930943 C70.35679234 130.60394716 67.64629217 130.61310481 64.93465233 130.62857151 C64.14292376 130.61828438 63.35119518 130.60799726 62.53547484 130.5973984 C58.9890178 130.64225524 56.99882363 130.83415421 54.12659168 132.9977026 Z " fill="#000000" transform="translate(18.38469886779785,60.876952171325684)"/>
<path d="M0 0 C1.44998288 1.19332533 2.88724162 2.40225136 4.3125 3.625 C5.51132812 4.62466797 5.51132812 4.62466797 6.734375 5.64453125 C28.19574072 24.13996289 39.65289956 48.66225652 42.3125 76.625 C43.91805514 98.7013832 38.6489858 120.23727829 26.65625 138.76953125 C25.02934178 141.40213253 25.02934178 141.40213253 25.84716797 143.40991211 C27.9775473 146.63032726 30.67247609 149.22905942 33.4140625 151.921875 C34.01052582 152.51550842 34.60698914 153.10914185 35.2215271 153.72076416 C37.1221981 155.61026627 39.02971474 157.49268392 40.9375 159.375 C42.22962468 160.65709065 43.52129676 161.93963761 44.8125 163.22265625 C47.97394479 166.36208432 51.1415461 169.49517801 54.3125 172.625 C55.05886719 172.30660156 55.80523437 171.98820313 56.57421875 171.66015625 C60.26107163 170.26641016 63.48160251 169.6911908 67.3125 170.625 C69.20556641 171.96508789 69.20556641 171.96508789 71.1015625 173.72265625 C71.79838135 174.36082275 72.4952002 174.99898926 73.21313477 175.65649414 C74.25232056 176.63090454 74.25232056 176.63090454 75.3125 177.625 C76.23663696 178.46889282 76.23663696 178.46889282 77.17944336 179.32983398 C79.09186668 181.08052152 80.9857652 182.84931941 82.875 184.625 C83.93835571 185.62358032 83.93835571 185.62358032 85.02319336 186.64233398 C92.6048425 193.8164806 99.96112381 201.2148686 107.29321289 208.64257812 C111.9285707 213.32030666 116.58235646 217.88658984 121.60522461 222.14868164 C125.95068414 225.90629551 129.60185536 229.08223878 130.125 235.0625 C129.77517483 238.77660124 128.83980699 240.59630147 126.31640625 243.31640625 C125.68275146 244.00613525 125.04909668 244.69586426 124.39624023 245.40649414 C123.36478882 246.50465454 123.36478882 246.50465454 122.3125 247.625 C121.61390869 248.39384521 120.91531738 249.16269043 120.19555664 249.95483398 C117.97604046 252.37844361 115.71247428 254.75346484 113.4375 257.125 C112.68597656 257.94742187 111.93445313 258.76984375 111.16015625 259.6171875 C104.8262279 266.1575389 104.8262279 266.1575389 99.7421875 266.59375 C94.1821559 266.02189216 91.04541881 262.47187913 87.3125 258.625 C86.14932674 257.55453415 84.98019845 256.49049637 83.8046875 255.43359375 C82.59667813 254.31234748 81.3910535 253.18852788 80.1875 252.0625 C79.19073242 251.13050781 79.19073242 251.13050781 78.17382812 250.1796875 C70.96430565 243.38269901 63.98617086 236.35390524 57.02685547 229.30249023 C52.4769518 224.70911615 47.88464073 220.26188328 42.97412109 216.05517578 C41.02957005 214.38147904 39.18472454 212.63074089 37.375 210.8125 C36.80910156 210.24917969 36.24320313 209.68585938 35.66015625 209.10546875 C33.29548092 206.50775295 33.17616301 204.66243319 33.1875 201.25 C33.18492187 200.47914063 33.18234375 199.70828125 33.1796875 198.9140625 C33.3125 196.625 33.3125 196.625 33.97434998 194.67095947 C34.08593948 193.99579285 34.19752899 193.32062622 34.3125 192.625 C32.37799439 190.24353766 30.48742942 188.21963018 28.28515625 186.109375 C27.66225204 185.49354553 27.03934784 184.87771606 26.39756775 184.2432251 C24.40144786 182.27513819 22.38866519 180.32511615 20.375 178.375 C19.02035224 177.04542333 17.66682137 175.71470769 16.31445312 174.3828125 C12.99329405 171.11684116 9.65708473 167.86697074 6.3125 164.625 C3.25606261 166.10526247 0.46948583 167.80659768 -2.35473633 169.69628906 C-26.25523595 185.61017848 -54.02830601 191.5622253 -82.48510742 186.54833984 C-101.31594766 182.6174291 -118.35013809 173.33968374 -132.6875 160.625 C-133.73357422 159.70460938 -133.73357422 159.70460938 -134.80078125 158.765625 C-154.21163063 140.56066005 -164.28829255 114.23719182 -165.90625 88.08984375 C-166.62100313 60.24425313 -157.13120503 33.62368219 -138.14941406 13.16113281 C-102.66391692 -24.12589925 -41.86253339 -31.78315365 0 0 Z M-119.51953125 37.796875 C-131.55180801 53.49303423 -137.50672323 72.66545079 -135.2578125 92.39453125 C-133.05624062 108.32311635 -127.13759176 121.38615379 -116.6875 133.625 C-116.14738281 134.27726562 -115.60726562 134.92953125 -115.05078125 135.6015625 C-103.30999824 148.5548697 -84.17153164 156.98812359 -66.9765625 157.9453125 C-45.44548397 158.66885349 -26.63185494 152.46974426 -10.6875 137.625 C4.13651009 123.39792991 11.71900175 104.81904757 12.625 84.375 C11.90234913 62.41444298 3.31431999 43.96942367 -12.4375 28.8125 C-21.20462441 21.32534822 -31.63022249 15.84227829 -42.6875 12.625 C-43.81091797 12.28855469 -43.81091797 12.28855469 -44.95703125 11.9453125 C-72.62015129 5.06487719 -101.31802764 16.79266198 -119.51953125 37.796875 Z " fill="#000000" transform="translate(374.6875,238.375)"/>
<path d="M0 0 C0.93056532 -0.00199105 1.86113064 -0.0039821 2.81989491 -0.00603348 C3.84906147 -0.00312064 4.87822804 -0.0002078 5.93858147 0.00279331 C7.02651524 0.00193889 8.11444902 0.00108446 9.23535049 0.00020415 C12.90515116 -0.00145171 16.57490679 0.00407247 20.24470329 0.00952244 C22.86565462 0.00980431 25.48660602 0.00964657 28.1075573 0.00907993 C33.76279612 0.00855481 39.41802343 0.01170035 45.07325935 0.01731777 C53.24984592 0.02543441 61.42642691 0.02804816 69.60301708 0.02930576 C82.86802241 0.03149602 96.13302161 0.03815541 109.39802361 0.04760838 C122.28604413 0.05678316 135.17406298 0.06386367 148.06208611 0.06811619 C148.85610148 0.06837891 149.65011686 0.06864164 150.46819331 0.06891232 C154.45141498 0.07021733 158.43463667 0.07148104 162.41785836 0.07272422 C195.4784713 0.08309603 228.53907671 0.10071365 261.59968376 0.12304783 C261.60332939 0.79432713 261.60697502 1.46560642 261.61073112 2.15722752 C261.65265384 9.1658761 261.72206858 16.1738758 261.80720329 23.18212986 C261.8353685 25.79501946 261.85660505 28.40799356 261.87067986 31.02099705 C261.89216989 34.78461929 261.9388552 38.54723031 261.99030876 42.31054783 C261.99215172 44.0531992 261.99215172 44.0531992 261.99403191 45.83105564 C262.12505877 53.14393386 262.9231301 59.07288652 267.97572136 64.63891697 C283.42440676 78.64646314 323.37724079 70.95226185 332.59968376 71.12304783 C332.59968376 125.90304783 332.59968376 180.68304783 332.59968376 237.12304783 C330.94968376 235.47304783 329.29968376 233.82304783 327.59968376 232.12304783 C319.02609389 223.70508417 309.2352587 215.30430909 298.02729607 210.63465977 C295.77680028 209.33498525 294.79106842 208.69253149 293.95438576 206.20290089 C293.7156953 203.68662399 293.70299097 201.25105663 293.76081657 198.72387791 C293.7548597 197.77214695 293.74890282 196.82041599 293.74276543 195.8398447 C293.73064328 192.68987671 293.76718698 189.54233779 293.80280876 186.39257908 C293.80104116 184.20024669 293.79576254 182.00791456 293.78712273 179.81559849 C293.77184261 174.03685533 293.79574316 168.25898349 293.83033562 162.48034763 C293.88072021 153.24931744 293.87912926 144.01833065 293.86392784 134.7872076 C293.86528692 131.56929774 293.88760825 128.35203559 293.91248894 125.13423252 C293.91593567 123.14588613 293.91879422 121.1575386 293.92097282 119.16919041 C293.93340523 118.28210896 293.94583763 117.3950275 293.95864677 116.4810648 C293.93503152 108.29486876 292.42855788 101.26668264 286.57844353 95.24170017 C285.77955711 94.40564243 284.9806707 93.56958469 284.15757561 92.70819187 C283.3134713 91.85509434 282.46936699 91.0019968 281.59968376 90.12304783 C280.76693932 89.25947666 279.93419487 88.39590549 279.07621574 87.5061655 C276.38317944 84.72634904 273.66644332 81.97109273 270.93952751 79.22461033 C270.4502685 78.73127579 269.96100948 78.23794125 269.45692444 77.72965717 C266.87645989 75.12857053 264.29290342 72.53060056 261.7068615 69.93505955 C259.05698598 67.27404538 256.41902303 64.60152894 253.783391 61.92641735 C251.73189525 59.84869325 249.67148265 57.77998437 247.60862732 55.71354389 C246.63213066 54.73221368 245.65897902 53.74754186 244.68944931 52.75932789 C235.28866997 43.10448592 235.28866997 43.10448592 222.72667342 38.9924373 C221.66212748 38.98845024 221.66212748 38.98845024 220.57607555 38.98438263 C219.75498784 38.97890819 218.93390013 38.97343374 218.08793098 38.96779341 C217.1861876 38.9668153 216.28444422 38.96583719 215.35537529 38.96482944 C214.39726076 38.95989147 213.43914624 38.95495349 212.45199794 38.94986588 C209.2275467 38.93445454 206.00311543 38.92612041 202.77863884 38.91772556 C200.47280513 38.9081499 198.16697319 38.89814 195.86114311 38.88772678 C189.5888048 38.8606379 183.31645893 38.83964991 177.04409432 38.8197248 C170.49373697 38.79788979 163.943403 38.77048896 157.3930645 38.74366856 C146.39464716 38.69922506 135.39622018 38.65855996 124.39777946 38.62036228 C113.06866837 38.58100676 101.73956798 38.5395804 90.41047478 38.49536228 C89.71230598 38.49263801 89.01413719 38.48991374 88.29481176 38.48710691 C84.79235086 38.47342742 81.28989012 38.45970715 77.78742945 38.4459666 C48.72487015 38.33200366 19.6622867 38.22526721 -9.40031624 38.12304783 C-9.47470014 33.65734334 -9.52902794 29.19197098 -9.56511116 24.72583103 C-9.58015977 23.20786345 -9.60060362 21.68993907 -9.6266346 20.17212009 C-9.66319277 17.98508106 -9.68008146 15.79861886 -9.69328499 13.61132908 C-9.70899544 12.29688816 -9.72470589 10.98244724 -9.74089241 9.62817478 C-9.38040401 5.91811606 -8.65036339 4.05621217 -6.40031624 1.12304783 C-4.03760033 -0.05831012 -2.63499052 -0.00123941 0 0 Z " fill="#000000" transform="translate(70.40031623840332,7.876952171325684)"/>
<path d="M0 0 C3.96859189 2.17647163 6.9429453 4.68997881 10.14160156 7.8828125 C10.62840393 8.36611023 11.1152063 8.84940796 11.61676025 9.34735107 C13.21309253 10.93493097 14.80205651 12.52965434 16.390625 14.125 C17.5018034 15.23483033 18.61327849 16.34436369 19.72503662 17.45361328 C22.04814678 19.77378136 24.36761698 22.09751222 26.68457031 24.42382812 C29.65596283 27.40664123 32.63627967 30.38035023 35.61935806 33.35147095 C37.9134702 35.63836248 40.20280544 37.92998813 42.49071503 40.2230835 C43.58808303 41.32178606 44.68693976 42.41900378 45.78730011 43.51470947 C47.32174743 45.04408543 48.84965038 46.5797123 50.37597656 48.1171875 C51.24691956 48.98972168 52.11786255 49.86225586 53.01519775 50.76123047 C55 53 55 53 56 56 C48.5069832 56.07593983 41.01406529 56.12855332 33.52075195 56.16479492 C30.97058402 56.17990005 28.42044214 56.20038533 25.87036133 56.22631836 C22.20908181 56.26262504 18.54814515 56.27970915 14.88671875 56.29296875 C13.7428923 56.30845261 12.59906586 56.32393646 11.420578 56.33988953 C9.82926811 56.34022942 9.82926811 56.34022942 8.20581055 56.34057617 C7.27093307 56.34723801 6.3360556 56.35389984 5.37284851 56.36076355 C3 56 3 56 1.19592285 54.80407715 C-0.42384643 52.3606179 -0.36140173 50.71670993 -0.34057617 47.79418945 C-0.34034958 46.73331619 -0.34012299 45.67244293 -0.33988953 44.579422 C-0.32440567 43.43559555 -0.30892181 42.2917691 -0.29296875 41.11328125 C-0.28872391 39.94113571 -0.28447906 38.76899017 -0.28010559 37.56132507 C-0.26329072 33.81148466 -0.22563232 30.06217843 -0.1875 26.3125 C-0.17245684 23.77279421 -0.1587678 21.23308001 -0.14648438 18.69335938 C-0.11337796 12.46205681 -0.06315028 6.23106656 0 0 Z " fill="#000000" transform="translate(347,8)"/>
<path d="M0 0 C3.81145683 1.57811964 6.23428438 3.98064147 9.13574219 6.87695312 C9.63375839 7.37146469 10.1317746 7.86597626 10.6448822 8.37547302 C12.28393562 10.00574803 13.91559366 11.64320085 15.546875 13.28125 C16.68429815 14.41732581 17.82201804 15.5531046 18.96002197 16.68859863 C21.34038451 19.06601555 23.71709882 21.44700548 26.09130859 23.83056641 C29.14017706 26.890855 32.1979704 29.94204349 35.25852585 32.99063873 C37.60749631 35.33239761 39.95170142 37.67887996 42.29447174 40.02684021 C43.42057586 41.15428143 44.54817561 42.28023078 45.67726898 43.40467834 C47.25033812 44.97269097 48.81689086 46.54693176 50.38183594 48.12304688 C51.27578064 49.01858276 52.16972534 49.91411865 53.09075928 50.83679199 C55 53 55 53 55 55 C47.48863592 55.05057965 39.97731551 55.08568257 32.46582031 55.10986328 C29.90883747 55.11994038 27.35186621 55.13360226 24.79492188 55.15087891 C21.12627308 55.17505217 17.45777621 55.18646585 13.7890625 55.1953125 C12.0655809 55.21079636 12.0655809 55.21079636 10.30728149 55.22659302 C9.2463327 55.22674408 8.18538391 55.22689514 7.09228516 55.22705078 C6.15518707 55.231492 5.21808899 55.23593323 4.25259399 55.24050903 C2 55 2 55 0 53 C-0.24050903 50.74740601 -0.24050903 50.74740601 -0.22705078 47.90771484 C-0.22682419 46.31629166 -0.22682419 46.31629166 -0.22659302 44.69271851 C-0.21110916 42.96923691 -0.21110916 42.96923691 -0.1953125 41.2109375 C-0.1924826 40.03737701 -0.18965271 38.86381653 -0.18673706 37.6546936 C-0.17551355 33.89469338 -0.15040492 30.13492861 -0.125 26.375 C-0.11497301 23.8307326 -0.10584668 21.28646148 -0.09765625 18.7421875 C-0.07556714 12.4947109 -0.04206824 6.24737227 0 0 Z " fill="#000000" transform="translate(294,62)"/>
<path d="M0 0 C1.02222656 -0.03738281 2.04445313 -0.07476562 3.09765625 -0.11328125 C5.9375 0.3125 5.9375 0.3125 8.2734375 2.05078125 C10.11733004 4.55691689 10.50526495 5.73776836 10.5 8.8125 C10.52191406 9.5653125 10.54382813 10.318125 10.56640625 11.09375 C9.61349226 14.45558322 7.85373869 15.49385664 4.9375 17.3125 C2.02734375 17.9296875 2.02734375 17.9296875 -1.125 18.1875 C-11.51400623 19.56251553 -19.82445865 23.67435317 -26.4453125 31.90234375 C-30.4159577 37.81994782 -32.04637281 43.61455148 -33 50.625 C-33.58440808 54.57356591 -33.98384591 56.19888854 -36.3125 59.5625 C-39.64921657 61.68586509 -41.17999093 62.04047045 -45.0625 61.3125 C-47.875 59.8125 -47.875 59.8125 -50.0625 57.3125 C-53.34143899 45.07112778 -48.08705301 33.51563992 -42.10302734 23.03759766 C-35.08640605 11.40469149 -23.70328861 5.32176716 -11.0625 1.3125 C-7.35842444 0.40667467 -3.81091159 0.09153896 0 0 Z " fill="#000000" transform="translate(311.0625,269.6875)"/>
<path d="M0 0 C2.515625 2.2578125 2.515625 2.2578125 5.25 5.125 C6.22194273 6.12955825 7.1959128 7.13215885 8.171875 8.1328125 C8.64947266 8.62297852 9.12707031 9.11314453 9.61914062 9.61816406 C12.07283489 12.07359361 14.69722632 14.31968332 17.34375 16.5625 C18.97276716 17.97636395 20.49371717 19.45697856 22 21 C20.54333552 25.61277085 20.54333552 25.61277085 18.38378906 27.15185547 C15.06136478 28.33396341 12.1316444 28.22326702 8.609375 28.1953125 C7.90476135 28.1924826 7.20014771 28.18965271 6.47418213 28.18673706 C4.2326124 28.17557801 1.99144814 28.15048193 -0.25 28.125 C-1.77343171 28.11496464 -3.29686971 28.10583976 -4.8203125 28.09765625 C-8.54700586 28.07565291 -12.27346333 28.04115272 -16 28 C-17.51182626 12.84878738 -17.51182626 12.84878738 -16 6 C-12.30922426 1.54600828 -5.87336424 -2.87747482 0 0 Z " fill="#000000" transform="translate(381,423)"/>
</svg>
