<?xml version="1.0" standalone="no"?>
<!DOCTYPE svg PUBLIC "-//W3C//DTD SVG 20010904//EN"
 "http://www.w3.org/TR/2001/REC-SVG-20010904/DTD/svg10.dtd">
<svg version="1.0" xmlns="http://www.w3.org/2000/svg"
 width="512.000000pt" height="512.000000pt" viewBox="0 0 512.000000 512.000000"
 preserveAspectRatio="xMidYMid meet">

<g transform="translate(0.000000,512.000000) scale(0.100000,-0.100000)"
fill="#000000" stroke="none">
<path d="M2440 4425 c-8 -2 -49 -9 -90 -15 -158 -25 -349 -101 -485 -193 -85
-57 -216 -187 -276 -274 -139 -201 -213 -451 -226 -758 -12 -301 60 -574 217
-816 90 -139 82 -198 -59 -433 -45 -74 -98 -170 -117 -213 -36 -78 -84 -244
-84 -290 0 -29 -4 -29 186 22 221 61 404 144 496 224 93 83 123 153 149 357
l11 91 -70 70 c-83 84 -155 201 -178 293 -15 57 -21 66 -36 62 -42 -11 -93 75
-163 274 -33 93 -34 100 -17 112 9 7 45 32 79 57 80 57 138 135 183 248 l38
92 52 -3 c28 -1 81 -14 117 -27 72 -28 123 -31 168 -11 l30 13 -50 8 c-27 4
-79 19 -114 32 -53 21 -75 25 -128 20 -61 -5 -63 -4 -57 17 14 48 91 165 144
217 58 58 124 98 218 130 58 20 99 46 150 93 l32 30 33 -30 c52 -50 90 -72
168 -100 91 -33 166 -81 220 -142 42 -49 112 -161 123 -198 6 -21 4 -22 -57
-17 -53 5 -75 1 -128 -20 -35 -13 -86 -28 -114 -32 l-50 -8 30 -13 c45 -20 96
-17 168 11 36 13 89 26 118 27 l52 3 37 -92 c46 -114 102 -190 183 -248 34
-25 70 -50 79 -57 17 -12 16 -19 -17 -112 -67 -191 -112 -269 -159 -278 -13
-2 -25 -24 -42 -79 -30 -94 -86 -183 -177 -276 l-70 -72 17 -114 c22 -155 40
-208 89 -270 81 -99 218 -175 457 -252 92 -30 257 -75 274 -75 22 0 -21 180
-71 296 -21 49 -77 154 -125 234 -141 238 -148 290 -58 429 157 242 229 515
217 816 -16 396 -133 691 -360 912 -158 153 -342 250 -577 304 -78 18 -338 35
-380 24z"/>
<path d="M2134 3200 c-45 -10 -95 -44 -123 -80 -20 -28 -27 -32 -58 -27 -35 6
-35 6 -17 -14 18 -20 74 -54 77 -47 44 89 75 119 145 137 75 21 172 -22 208
-90 20 -40 29 -30 14 15 -28 86 -137 133 -246 106z"/>
<path d="M2846 3196 c-49 -19 -93 -60 -107 -103 -14 -45 -5 -53 15 -14 36 68
133 111 209 90 69 -18 98 -46 144 -137 6 -13 93 54 93 72 0 6 -5 5 -12 -2 -22
-22 -56 -13 -80 19 -52 71 -177 107 -262 75z"/>
<path d="M2176 3118 c-60 -60 -58 -139 6 -193 82 -69 191 19 167 134 -10 47
-48 81 -97 88 -37 5 -45 2 -76 -29z m49 -58 c0 -20 -6 -26 -28 -28 -18 -2 -29
2 -33 12 -11 28 4 48 33 44 22 -2 28 -8 28 -28z m55 -39 c0 -14 -18 -23 -30
-16 -6 4 -8 11 -5 16 8 12 35 12 35 0z"/>
<path d="M2908 3133 c-16 -10 -35 -32 -43 -49 -61 -129 91 -248 180 -142 24
29 27 38 23 90 -3 46 -10 64 -30 84 -33 33 -93 41 -130 17z m37 -73 c0 -20 -6
-26 -28 -28 -18 -2 -29 2 -33 12 -11 28 4 48 33 44 22 -2 28 -8 28 -28z m53
-42 c-3 -7 -11 -13 -18 -13 -7 0 -15 6 -17 13 -3 7 4 12 17 12 13 0 20 -5 18
-12z"/>
</g>
</svg>
