<?xml version="1.0" encoding="UTF-8"?>
<svg version="1.1" xmlns="http://www.w3.org/2000/svg" width="512" height="512">
<path d="M0 0 C1.07507813 0.35191406 2.15015625 0.70382813 3.2578125 1.06640625 C29.23970956 10.37197931 49.72317873 28.18820001 62 53 C65.56519491 61.38221387 68.66647683 69.82811279 69 79 C70.16402344 79.12955078 70.16402344 79.12955078 71.3515625 79.26171875 C92.58136484 82.02311309 110.6220289 91.96040235 123.86328125 108.91015625 C130.01841268 117.81090389 137 128.89357418 137 140 C137.81339844 139.95359375 138.62679688 139.9071875 139.46484375 139.859375 C163.0607531 139.11619675 184.1599287 149.14098573 201.23046875 165.11328125 C212.68950873 176.67682318 220.72414499 192.09950376 224 208 C224.27263672 209.28583984 224.27263672 209.28583984 224.55078125 210.59765625 C226.48004613 225.20974067 225.79183434 240.04869215 221 254 C220.63777344 255.0621875 220.27554687 256.124375 219.90234375 257.21875 C215.38289262 269.1072045 207.8544949 278.98795181 199 288 C198.39929688 288.61359375 197.79859375 289.2271875 197.1796875 289.859375 C173.98130682 311.7522191 146.11747702 311 115 311 C115 268.43 115 225.86 115 182 C79.61034532 181.56579112 79.61034532 181.56579112 44.22070312 181.33007812 C29.77516598 181.27788094 15.33208156 181.20444754 0.88793945 180.98852539 C-9.63494905 180.83132226 -20.15537888 180.74938014 -30.67948467 180.75510865 C-36.24538325 180.75558063 -41.80549581 180.72022089 -47.37009239 180.59447289 C-74.22214036 178.95129916 -74.22214036 178.95129916 -97.29710865 190.28094196 C-100.5797606 193.81779584 -103.49190168 197.45935808 -106.22501373 201.43439484 C-110.6627221 207.84875856 -116.22114948 213.36792477 -121.74560547 218.84326172 C-122.69570244 219.79116829 -122.69570244 219.79116829 -123.66499329 220.75822449 C-125.02463284 222.11409141 -126.38542508 223.46880328 -127.74728012 224.82244492 C-129.9012451 226.96354163 -132.05197854 229.10783868 -134.20193481 231.25296021 C-138.75680799 235.79646953 -143.3156261 240.33600774 -147.875 244.875 C-153.18109683 250.15749629 -158.48556463 255.44160741 -163.78586197 260.72992325 C-165.90720457 262.84477338 -168.03152892 264.95659732 -170.15597534 267.06832886 C-171.44771737 268.35644076 -172.73932056 269.64469192 -174.03076172 270.93310547 C-174.62396713 271.52114456 -175.21717255 272.10918365 -175.82835388 272.71504211 C-180.34595722 277.23205369 -181.12744181 279.28558071 -181.5625 285.625 C-181.64628906 286.81351562 -181.73007813 288.00203125 -181.81640625 289.2265625 C-181.87699219 290.14179688 -181.93757813 291.05703125 -182 292 C-186.16741523 290.60838098 -188.79416663 288.66792321 -192 285.6875 C-192.87527344 284.87539063 -193.75054687 284.06328125 -194.65234375 283.2265625 C-197.15258228 280.85528802 -199.62449168 278.49732926 -202 276 C-202.65355469 275.34128906 -203.30710937 274.68257813 -203.98046875 274.00390625 C-224.77610585 252.20606977 -231.59539314 223.31567779 -231.27734375 193.96875 C-230.63792554 170.52977795 -221.21079997 147.77843501 -206 130 C-205.33484375 129.20207031 -204.6696875 128.40414062 -203.984375 127.58203125 C-194.48812334 116.56569614 -183.79631598 108.63622899 -171 102 C-170.09765625 101.52820313 -169.1953125 101.05640625 -168.265625 100.5703125 C-157.28064027 95.21097146 -143.93215162 90.77118714 -131.625 90.9375 C-130.75101562 90.94652344 -129.87703125 90.95554687 -128.9765625 90.96484375 C-128.32429688 90.97644531 -127.67203125 90.98804687 -127 91 C-126.97421875 90.23558594 -126.9484375 89.47117187 -126.921875 88.68359375 C-125.47440597 61.34616739 -112.59336018 39.11378329 -93.296875 20.375 C-69.17166848 -1.18943041 -31.01782054 -10.24328556 0 0 Z " fill="#000000" transform="translate(259,3)"/>
<path d="M0 0 C46.86 0 93.72 0 142 0 C142 98.67 142 197.34 142 299 C62.47 299 -17.06 299 -99 299 C-99 231.35 -99 163.7 -99 94 C-66.33 94 -33.66 94 0 94 C0 62.98 0 31.96 0 0 Z M17.38771057 129.3634491 C16.89931198 129.85903824 16.41091339 130.35462738 15.90771484 130.86523438 C15.39048355 131.38217361 14.87325226 131.89911285 14.34034729 132.43171692 C12.62576333 134.14769822 10.9183784 135.87066342 9.2109375 137.59375 C8.02595858 138.78245761 6.84053837 139.97072547 5.6546936 141.15856934 C2.52999156 144.29091916 -0.58865901 147.42922805 -3.70611572 150.56878662 C-6.88640353 153.76950823 -10.07233835 156.96459772 -13.2578125 160.16015625 C-19.51076966 166.4345835 -25.75735267 172.71531624 -32 179 C-30.42411996 182.3247945 -28.7182851 184.51631617 -26.0859375 187.109375 C-25.32539063 187.86347656 -24.56484375 188.61757813 -23.78125 189.39453125 C-22.9871875 190.17183594 -22.193125 190.94914062 -21.375 191.75 C-20.17230469 192.93916016 -20.17230469 192.93916016 -18.9453125 194.15234375 C-16.96797154 196.10614493 -14.98611091 198.05512103 -13 200 C-9.86594332 198.61403133 -7.78165818 197.00928844 -5.3984375 194.55859375 C-4.74359375 193.89279297 -4.08875 193.22699219 -3.4140625 192.54101562 C-2.74117187 191.84685547 -2.06828125 191.15269531 -1.375 190.4375 C-0.03088131 189.05901463 1.31537153 187.68260599 2.6640625 186.30859375 C3.55279053 185.39291626 3.55279053 185.39291626 4.45947266 184.45874023 C6 183 6 183 8 182 C8 206.09 8 230.18 8 255 C17.9 255 27.8 255 38 255 C38 231.24 38 207.48 38 183 C43.61 188.61 49.22 194.22 55 200 C58.6095499 198.19522505 60.35628071 196.88074534 63.109375 194.0859375 C63.86347656 193.32539063 64.61757813 192.56484375 65.39453125 191.78125 C66.17183594 190.9871875 66.94914062 190.193125 67.75 189.375 C68.93916016 188.17230469 68.93916016 188.17230469 70.15234375 186.9453125 C72.10614493 184.96797154 74.05512103 182.98611091 76 181 C74.42188036 177.18854317 72.01935853 174.76571562 69.12304688 171.86425781 C68.62853531 171.36624161 68.13402374 170.8682254 67.62452698 170.3551178 C65.99425197 168.71606438 64.35679915 167.08440634 62.71875 165.453125 C61.58267419 164.31570185 60.4468954 163.17798196 59.31140137 162.03997803 C56.93398445 159.65961549 54.55299452 157.28290118 52.16943359 154.90869141 C49.109145 151.85982294 46.05795651 148.8020296 43.00936127 145.74147415 C40.66760239 143.39250369 38.32112004 141.04829858 35.97315979 138.70552826 C34.84571857 137.57942414 33.71976922 136.45182439 32.59532166 135.32273102 C31.02730903 133.74966188 29.45306824 132.18310914 27.87695312 130.61816406 C26.98141724 129.72421936 26.08588135 128.83027466 25.16320801 127.90924072 C21.51692405 124.69104173 20.49663565 126.27357342 17.38771057 129.3634491 Z " fill="#000000" transform="translate(204,213)"/>
<path d="M0 0 C0 17.82 0 35.64 0 54 C-17.82 54 -35.64 54 -54 54 C-50.37640508 49.77247259 -46.92300898 45.79740746 -43.02026367 41.89086914 C-42.56257599 41.43142914 -42.10488831 40.97198914 -41.6333313 40.49862671 C-40.14735091 39.00830915 -38.6578203 37.52160304 -37.16796875 36.03515625 C-36.12504228 34.9915551 -35.08226421 33.94780563 -34.03962708 32.90391541 C-31.86861311 30.73143614 -29.69582299 28.56075375 -27.52172852 26.39135742 C-24.72947079 23.60483918 -21.94178413 20.81379755 -19.15537548 18.02143192 C-17.01000369 15.87245923 -14.86227171 13.7258582 -12.71380043 11.57998466 C-11.68396843 10.55082104 -10.65488232 9.5209105 -9.62654686 8.49025154 C-8.19769769 7.05887903 -6.76532304 5.63102836 -5.33276367 4.20336914 C-4.51813156 3.38953262 -3.70349945 2.57569611 -2.86418152 1.73719788 C-1 0 -1 0 0 0 Z " fill="#000000" transform="translate(175,223)"/>
</svg>
