<?xml version="1.0" standalone="no"?>
<!DOCTYPE svg PUBLIC "-//W3C//DTD SVG 20010904//EN"
 "http://www.w3.org/TR/2001/REC-SVG-20010904/DTD/svg10.dtd">
<svg version="1.0" xmlns="http://www.w3.org/2000/svg"
 width="512.000000pt" height="512.000000pt" viewBox="0 0 512.000000 512.000000"
 preserveAspectRatio="xMidYMid meet">

<g transform="translate(0.000000,512.000000) scale(0.100000,-0.100000)"
fill="#000000" stroke="none">
<path d="M3110 3565 l0 -1335 975 0 975 0 0 1068 0 1067 -225 225 -225 225 0
-183 0 -182 108 0 c100 0 110 -2 130 -23 44 -47 21 -127 -41 -143 -14 -3 -91
-4 -172 -2 -147 3 -147 3 -171 31 l-24 28 0 280 0 279 -665 0 -665 0 0 -1335z
m1205 860 c35 -34 33 -78 -4 -116 l-29 -29 -360 0 -360 0 -31 26 c-40 33 -43
83 -6 119 l24 25 371 0 371 0 24 -25z m458 -387 c54 -28 64 -93 21 -133 l-27
-25 -684 0 -685 0 -29 29 c-17 18 -29 40 -29 56 0 16 12 38 29 56 l29 29 677
0 c495 0 682 -3 698 -12z m6 -403 c49 -25 57 -90 16 -130 l-24 -25 -691 0
c-674 0 -690 0 -710 20 -43 43 -34 110 20 137 19 10 179 13 693 13 567 0 672
-2 696 -15z m17 -418 c13 -16 24 -41 24 -57 0 -16 -11 -41 -24 -57 l-24 -28
-674 -3 c-626 -2 -675 -1 -708 15 -41 21 -58 60 -44 101 5 15 24 34 44 45 33
16 82 17 708 15 l674 -3 24 -28z m-1 -402 c27 -27 33 -79 12 -106 -30 -39 -37
-39 -732 -39 l-677 0 -29 29 c-16 16 -29 39 -29 51 0 26 25 77 42 83 7 3 323
6 701 6 l688 1 24 -25z"/>
<path d="M60 2845 l0 -1335 975 0 975 0 0 1073 0 1072 -220 220 -220 220 0
-178 0 -177 101 0 c98 0 101 -1 130 -29 37 -38 39 -82 4 -116 -24 -25 -27 -25
-189 -25 -160 0 -166 1 -193 24 l-28 24 -3 281 -3 281 -665 0 -664 0 0 -1335z
m1189 881 c26 -14 51 -53 51 -81 0 -7 -12 -27 -26 -44 l-26 -31 -372 0 -373 0
-20 23 c-29 31 -34 52 -22 87 21 58 30 59 412 60 282 0 353 -3 376 -14z m463
-396 c68 -19 89 -85 44 -137 l-24 -28 -690 0 -690 0 -26 24 c-51 48 -25 131
44 144 55 10 1306 7 1342 -3z m29 -413 c46 -35 50 -88 10 -128 l-29 -29 -677
0 c-695 0 -702 0 -732 39 -21 27 -15 79 12 106 l24 25 688 0 c525 -1 692 -4
704 -13z m10 -416 c38 -38 38 -74 0 -112 l-29 -29 -687 0 -686 0 -24 25 c-17
16 -25 35 -25 60 0 25 8 44 25 60 l24 25 686 0 687 0 29 -29z m-21 -384 c54
-27 63 -94 20 -137 -20 -20 -36 -20 -710 -20 l-691 0 -24 25 c-35 34 -33 78 4
116 l29 29 674 0 c518 0 679 -3 698 -13z"/>
<path d="M4610 1894 c-113 -30 -275 -72 -360 -94 -85 -22 -321 -83 -525 -136
-203 -52 -883 -228 -1510 -390 -627 -162 -1252 -323 -1390 -359 -137 -36 -341
-88 -452 -116 -216 -55 -254 -74 -290 -142 -20 -40 -21 -123 0 -162 30 -59
103 -105 164 -105 15 0 1076 270 2358 601 1895 489 2337 606 2369 627 109 75
103 245 -12 310 -60 33 -119 27 -352 -34z"/>
<path d="M2342 593 l-212 -368 215 -3 c118 -1 312 -1 430 0 l215 3 -212 368
c-116 202 -214 367 -218 367 -3 0 -101 -165 -218 -367z"/>
</g>
</svg>
