<?xml version="1.0" standalone="no"?>
<!DOCTYPE svg PUBLIC "-//W3C//DTD SVG 20010904//EN"
 "http://www.w3.org/TR/2001/REC-SVG-20010904/DTD/svg10.dtd">
<svg version="1.0" xmlns="http://www.w3.org/2000/svg"
 width="512.000000pt" height="512.000000pt" viewBox="0 0 512.000000 512.000000"
 preserveAspectRatio="xMidYMid meet">

<g transform="translate(0.000000,512.000000) scale(0.100000,-0.100000)"
fill="#000000" stroke="none">
<path d="M280 5104 c-112 -30 -209 -116 -252 -222 -23 -57 -23 -60 -26 -590
-3 -599 -2 -613 66 -712 45 -66 103 -111 177 -139 56 -21 64 -21 943 -19 l887
3 57 28 c74 36 139 101 175 175 l28 57 3 566 c3 556 2 568 -19 623 -42 113
-139 201 -254 231 -87 22 -1701 21 -1785 -1z"/>
<path d="M3060 5106 c-114 -31 -193 -95 -242 -194 l-33 -67 0 -1220 0 -1220
28 -57 c36 -74 101 -139 175 -175 l57 -28 887 -3 c879 -2 887 -2 943 19 74 28
132 73 177 139 72 105 69 43 66 1351 l-3 1174 -24 60 c-33 82 -124 173 -206
206 l-60 24 -860 2 c-663 1 -870 -1 -905 -11z"/>
<path d="M236 2955 c-76 -31 -122 -68 -168 -136 -72 -104 -69 -41 -66 -1350
l3 -1174 24 -60 c33 -82 124 -173 206 -206 l60 -24 854 -3 c953 -3 928 -4
1031 66 66 45 111 103 139 177 21 56 21 59 19 1263 l-3 1207 -28 57 c-37 75
-99 138 -172 174 l-60 29 -890 2 -890 3 -59 -25z"/>
<path d="M3019 1681 c-106 -41 -200 -142 -228 -242 -9 -33 -11 -189 -9 -604
l3 -560 33 -67 c51 -103 142 -173 260 -198 30 -7 350 -10 897 -8 l850 3 60 24
c82 33 173 124 206 206 l24 60 3 533 c2 459 1 542 -13 595 -28 108 -93 189
-198 245 l-52 27 -895 2 c-846 2 -898 1 -941 -16z"/>
</g>
</svg>
