<?xml version="1.0" encoding="UTF-8"?>
<svg version="1.1" xmlns="http://www.w3.org/2000/svg" width="932" height="268">
<path d="M0 0 C79.86 0 159.72 0 242 0 C242 12.10787354 239.03964235 19.1060503 231 28 C229.32260379 29.6561297 227.63464059 31.30160959 225.9375 32.9375 C217.95649917 40.77272913 213.1882584 49.01539061 212.6875 60.3125 C213.09257537 73.38743271 218.90367122 81.0832667 228 89.875 C236.18747142 97.8877388 242.15329682 106.79494831 242.37988281 118.47167969 C242.37827148 119.24415039 242.37666016 120.01662109 242.375 120.8125 C242.37338867 121.61204102 242.37177734 122.41158203 242.37011719 123.23535156 C242.24536708 129.23069477 241.34267393 133.92408774 238 139 C237.40316406 139.94746094 236.80632812 140.89492187 236.19140625 141.87109375 C233.92231291 145.1109222 231.40614216 147.95676755 228.6875 150.8125 C219.24071343 160.9445457 212.54629391 169.1091171 212.7890625 183.578125 C213.79725224 195.1536368 219.79851536 203.01243051 227.9375 210.8125 C234.51035661 217.11165653 239.75024131 224.00096526 242 233 C242 235.97 242 238.94 242 242 C162.14 242 82.28 242 0 242 C0 226.30200915 8.65492125 216.47707472 19.22265625 205.7421875 C26.10821478 198.56061431 29.12147884 191.48349557 29.5 181.5 C29.10465593 170.74919179 25.42046381 163.53686325 18 156 C12.4072314 150.01749143 7.09528458 144.12737028 3 137 C2.48953125 136.12021484 2.48953125 136.12021484 1.96875 135.22265625 C-1.61871048 127.63251996 -1.1236655 117.65751209 0.80859375 109.6484375 C3.65944265 102.01329201 8.33166575 96.7235453 14 91 C23.93343077 80.71180384 29.48432787 71.93448353 29.2578125 57.4375 C28.37899106 45.71988083 21.89437385 38.93089586 14 31 C5.0428243 21.84679183 0 12.95582732 0 0 Z M85 73 C85 104.02 85 135.04 85 167 C121.73135962 168.30535624 121.73135962 168.30535624 152.03125 153.19140625 C161.73459361 142.95608109 165.53759343 130.43665108 165.31640625 116.6640625 C164.33203807 105.26483589 159.52732762 94.56876174 152 86 C130.69984674 68.83441464 114.79038625 73 85 73 Z " fill="#182295" transform="translate(14,13)"/>
<path d="M0 0 C1.66869141 -0.01836914 1.66869141 -0.01836914 3.37109375 -0.03710938 C16.34595495 -0.06003316 26.482307 2.32152764 36.1796875 11.27734375 C43.19005643 18.63371801 46.07750006 27.51850154 46.4375 37.5625 C46.13019348 48.90611904 42.18533676 57.79400286 34.375 65.8671875 C27.21616786 72.52887852 18.90798445 75.3274473 9.265625 75.28515625 C7.32236328 75.28032227 7.32236328 75.28032227 5.33984375 75.27539062 C3.97656183 75.26703598 2.61328058 75.25857104 1.25 75.25 C-0.12890465 75.24498168 -1.50781104 75.24041935 -2.88671875 75.23632812 C-6.25785659 75.22454093 -9.62890628 75.20808635 -13 75.1875 C-13.02312465 65.55637288 -13.04091571 55.92525526 -13.05181217 46.29410648 C-13.05704074 41.82244451 -13.06413789 37.35080147 -13.07543945 32.87915039 C-13.08626929 28.56738027 -13.09227704 24.25562841 -13.09487724 19.94384575 C-13.09673132 18.29513702 -13.1003516 16.64642934 -13.10573006 14.99772835 C-13.11294178 12.69646128 -13.11399089 10.3952706 -13.11352539 8.09399414 C-13.115746 6.7816127 -13.11796661 5.46923126 -13.12025452 4.11708069 C-12.85308559 -2.39155564 -5.12167135 0.00288708 0 0 Z " fill="#182295" transform="translate(122,94.8125)"/>
<path d="M0 0 C0.8206897 -0.0033284 1.64137939 -0.0066568 2.48693848 -0.01008606 C4.23217202 -0.01516278 5.97741533 -0.01749416 7.72265625 -0.01733398 C10.36735637 -0.0194994 13.01162497 -0.03758784 15.65625 -0.05664062 C17.35416525 -0.05957878 19.05208247 -0.06156075 20.75 -0.0625 C21.92242249 -0.07327827 21.92242249 -0.07327827 23.11853027 -0.08427429 C34.97660764 -0.03607265 45.4910532 3.62071034 54.5625 11.46484375 C59.90021129 17.05164824 63.29346354 22.92242645 65.90625 30.16796875 C66.15117187 30.833125 66.39609375 31.49828125 66.6484375 32.18359375 C70.18394744 43.7103248 67.87888534 55.50236304 62.90625 66.16796875 C55.52499271 77.87917618 45.30812048 84.98031158 31.90625 88.16796875 C24.70244955 89.42696628 17.46187262 89.35411413 10.16796875 89.35327148 C8.01543155 89.35548502 5.86338618 89.37376985 3.7109375 89.39257812 C2.34114757 89.3955078 0.97135524 89.39749544 -0.3984375 89.3984375 C-1.63577637 89.40254639 -2.87311523 89.40665527 -4.14794922 89.41088867 C-7.09375 89.16796875 -7.09375 89.16796875 -9.09375 87.16796875 C-9.28706113 84.43241876 -9.35600156 81.79851369 -9.33666992 79.06225586 C-9.33856827 78.22476303 -9.34046661 77.3872702 -9.34242249 76.5243988 C-9.34613619 73.74794238 -9.33541847 70.97174579 -9.32421875 68.1953125 C-9.32302727 66.27242565 -9.32257372 64.34953821 -9.3228302 62.426651 C-9.32126436 58.39401616 -9.31296637 54.36146997 -9.29956055 50.32885742 C-9.28255917 45.14771356 -9.27874647 39.96666711 -9.27950573 34.78549862 C-9.27923443 30.81453005 -9.27375989 26.84358298 -9.26650429 22.87262154 C-9.26331194 20.96155523 -9.2613489 19.05048648 -9.26061058 17.13941765 C-9.25845364 14.47433149 -9.24972383 11.80935079 -9.23901367 9.14428711 C-9.23946686 8.34686096 -9.23992004 7.54943481 -9.24038696 6.72784424 C-9.19461842 -1.0211973 -7.0000685 0.00976404 0 0 Z M3.90625 11.16796875 C3.90625 32.94796875 3.90625 54.72796875 3.90625 77.16796875 C26.19363705 78.20885536 26.19363705 78.20885536 45.12109375 69 C51.62930705 62.3208927 54.89562114 54.08402902 55.21875 44.85546875 C55.00016825 35.45645371 52.13034469 27.29291925 45.90625 20.16796875 C33.93989602 9.293782 19.55010691 11.16796875 3.90625 11.16796875 Z " fill="#172294" transform="translate(323.09375,87.83203125)"/>
<path d="M0 0 C0.70125 0.00515625 1.4025 0.0103125 2.125 0.015625 C2.82625 0.01046875 3.5275 0.0053125 4.25 0 C6.125 0.265625 6.125 0.265625 8.125 2.265625 C8.75 4.390625 8.75 4.390625 9.125 6.265625 C9.846875 5.646875 10.56875 5.028125 11.3125 4.390625 C17.76272873 -0.48288115 24.27796878 -0.51243614 32.125 0.265625 C37.1846514 1.83113117 41.15927814 4.79561837 45.125 8.265625 C45.56070313 7.85570313 45.99640625 7.44578125 46.4453125 7.0234375 C47.04085937 6.48460938 47.63640625 5.94578125 48.25 5.390625 C48.83007812 4.85695313 49.41015625 4.32328125 50.0078125 3.7734375 C56.46982394 -0.82865921 64.5403075 -0.67724656 72.125 0.265625 C78.72653332 2.71612812 83.99269 6.89659466 87.125 13.265625 C89.30400542 18.53304072 89.40211398 23.18475444 89.35546875 28.78515625 C89.35501053 29.68433273 89.35455231 30.58350922 89.3540802 31.50993347 C89.35107117 33.40010914 89.34322551 35.29028263 89.33081055 37.18041992 C89.3124511 40.08586306 89.31030175 42.99098904 89.31054688 45.89648438 C89.3056351 47.73437778 89.29980828 49.57226901 89.29296875 51.41015625 C89.29185593 52.28299759 89.2907431 53.15583893 89.28959656 54.05513 C89.24108018 60.14954482 89.24108018 60.14954482 88.125 61.265625 C86.12890625 61.43359375 86.12890625 61.43359375 83.6875 61.453125 C82.88441406 61.46730469 82.08132813 61.48148438 81.25390625 61.49609375 C79.125 61.265625 79.125 61.265625 77.125 59.265625 C76.91551188 56.38653035 76.82386098 53.59589699 76.81640625 50.71484375 C76.79123979 48.96679363 76.76584186 47.21874684 76.74023438 45.47070312 C76.71151922 42.71233018 76.68750607 39.95401511 76.66870117 37.19555664 C76.64700868 34.53500835 76.60755854 31.87515188 76.56640625 29.21484375 C76.56623253 27.98334846 76.56623253 27.98334846 76.5660553 26.72697449 C76.48626038 22.09691109 76.13007988 19.01940926 73.125 15.265625 C68.7213287 12.36320528 65.34966049 11.71566074 60.125 12.265625 C56.32624058 13.1673944 56.32624058 13.1673944 53.125 15.265625 C50.18053725 20.65192117 49.67335107 25.16114841 49.6484375 31.2265625 C49.62506821 32.4733226 49.62506821 32.4733226 49.60122681 33.74526978 C49.55402019 36.37704658 49.52602664 39.008561 49.5 41.640625 C49.46351525 44.29393036 49.42298673 46.94708658 49.37734985 49.60025024 C49.35010014 51.24613669 49.32875886 52.89213335 49.31381226 54.53817749 C49.23572236 60.15490264 49.23572236 60.15490264 48.125 61.265625 C46.46070949 61.36386437 44.79218069 61.39536131 43.125 61.390625 C41.76375 61.39449219 41.76375 61.39449219 40.375 61.3984375 C38.125 61.265625 38.125 61.265625 37.125 60.265625 C37.00177631 57.52590082 36.93885592 54.80751599 36.9140625 52.06640625 C36.88597801 50.36522502 36.85731345 48.66405328 36.828125 46.96289062 C36.78696239 44.27482528 36.75008669 41.58693417 36.72363281 38.89868164 C36.69591628 36.30838032 36.65002673 33.71889162 36.6015625 31.12890625 C36.59830963 30.3318074 36.59505676 29.53470856 36.59170532 28.7134552 C36.48521203 23.84658225 35.76636217 20.50336598 33.125 16.265625 C29.87793595 13.32297321 27.21147349 12.347623 22.8125 12.015625 C17.90781368 12.34814611 14.60240296 13.78822204 11.125 17.265625 C10.2437664 19.96166956 9.98387293 22.47521591 9.91967773 25.29980469 C9.89973251 26.08031189 9.87978729 26.86081909 9.85923767 27.66497803 C9.83416893 28.9136264 9.83416893 28.9136264 9.80859375 30.1875 C9.78781265 31.04748596 9.76703156 31.90747192 9.74562073 32.79351807 C9.68036261 35.53414098 9.62135083 38.27485775 9.5625 41.015625 C9.51929219 42.8763117 9.47567718 44.73698898 9.43164062 46.59765625 C9.32470558 51.15355023 9.22337149 55.7095384 9.125 60.265625 C6.75886544 61.44869228 5.25719264 61.39917108 2.625 61.390625 C1.8309375 61.39320313 1.036875 61.39578125 0.21875 61.3984375 C-1.875 61.265625 -1.875 61.265625 -3.875 60.265625 C-3.9212929 52.7379372 -3.95685365 45.21026412 -3.97862434 37.68246651 C-3.98907198 34.18718573 -4.00324883 30.69200217 -4.02587891 27.19677734 C-4.05171953 23.18065444 -4.06146466 19.16463403 -4.0703125 15.1484375 C-4.08063507 13.89008087 -4.09095764 12.63172424 -4.10159302 11.3352356 C-4.10174408 10.17418304 -4.10189514 9.01313049 -4.10205078 7.81689453 C-4.106492 6.79097198 -4.11093323 5.76504944 -4.11550903 4.70803833 C-3.81883855 1.69529514 -3.11003368 0.44058811 0 0 Z " fill="#172191" transform="translate(756.875,115.734375)"/>
<path d="M0 0 C3.5 0.1875 3.5 0.1875 5.5 1.1875 C5.5 3.1675 5.5 5.1475 5.5 7.1875 C6.15226563 6.76597656 6.80453125 6.34445313 7.4765625 5.91015625 C16.25740391 0.4059415 16.25740391 0.4059415 21.5 0.1875 C22.23734375 0.12691406 22.9746875 0.06632812 23.734375 0.00390625 C31.83437129 -0.41115567 38.06738621 1.87708687 44.75 6.375 C51.74659559 13.53060912 55.3588137 20.71251242 56.0625 30.75 C55.91445712 39.15672073 52.07625251 46.83380129 46.79296875 53.265625 C40.88469373 58.74496202 32.60380355 62.34274528 24.5 62.1875 C18.99884507 61.49281491 14.35043628 59.92364354 9.5 57.1875 C6.67120714 60.01629286 7.1857334 61.98674198 7.0859375 65.9453125 C7.06657135 66.60836395 7.0472052 67.27141541 7.0272522 67.95455933 C6.96744046 70.07374177 6.92106612 72.1929785 6.875 74.3125 C6.83682155 75.74872169 6.79776989 77.18492045 6.7578125 78.62109375 C6.66173875 82.14301936 6.57771358 85.66511608 6.5 89.1875 C4.27109005 90.30195498 2.96944894 90.35230286 0.5 90.375 C-0.551875 90.39626953 -0.551875 90.39626953 -1.625 90.41796875 C-3.5 90.1875 -3.5 90.1875 -5.5 88.1875 C-5.69855525 85.45744877 -5.7727178 82.82883268 -5.75878906 80.09765625 C-5.76404602 78.84382645 -5.76404602 78.84382645 -5.76940918 77.56466675 C-5.77823414 74.79302746 -5.77237468 72.02164203 -5.765625 69.25 C-5.76697143 67.32950796 -5.76891178 65.40901626 -5.77142334 63.48852539 C-5.77437564 59.46009074 -5.77007356 55.43174468 -5.76074219 51.40332031 C-5.7493476 46.23119557 -5.75590651 41.05927838 -5.76788712 35.88716125 C-5.77510286 31.92043484 -5.7728191 27.9537579 -5.76763153 23.98703003 C-5.76629424 22.07957942 -5.7679455 20.17212437 -5.77259064 18.26467896 C-5.77765119 15.60211228 -5.76995235 12.93988504 -5.75878906 10.27734375 C-5.76283752 9.48351288 -5.76688599 8.68968201 -5.77105713 7.87179565 C-5.71208021 0.3060043 -5.71208021 0.3060043 0 0 Z M9.125 17.625 C5.14958878 23.89391769 4.43548119 29.88397527 5.5 37.1875 C7.81745927 42.49672943 11.04546445 46.89085345 16.5 49.1875 C21.62152643 51.13014796 26.99532992 50.62852399 32.125 49.125 C37.0503998 46.29745567 40.0494262 42.69303656 42.875 37.8125 C44.42015727 31.32283948 44.07197909 25.83461485 40.76953125 19.9765625 C37.71952627 15.67840164 33.6457689 12.50385949 28.5 11.1875 C20.6992201 10.21240251 14.65858205 11.94579737 9.125 17.625 Z " fill="#172192" transform="translate(612.5,115.8125)"/>
<path d="M0 0 C6.29531881 4.94966516 9.9967217 10.86508702 11.4453125 18.765625 C11.75855543 21.73787322 12.03568631 24.54359384 11.8515625 27.52734375 C9.8515625 29.52734375 9.8515625 29.52734375 6.1237793 29.70678711 C4.51596889 29.68610559 2.90826717 29.65554183 1.30078125 29.6171875 C-0.44726276 29.59675857 -2.19530976 29.57658431 -3.94335938 29.55664062 C-6.70186925 29.51319759 -9.46018163 29.46485854 -12.21850586 29.41088867 C-14.87873692 29.3625035 -17.5387064 29.33269454 -20.19921875 29.3046875 C-21.02021561 29.28292953 -21.84121246 29.26117157 -22.68708801 29.23875427 C-27.3801181 29.19823789 -30.27612702 29.56209606 -34.1484375 32.52734375 C-32.07366177 37.59901777 -29.9455848 39.88401769 -25.1484375 42.52734375 C-18.60390385 44.53185608 -12.15263628 44.06740336 -5.8671875 41.4609375 C-3.5449254 40.19952695 -1.93749118 38.44891993 -0.1484375 36.52734375 C0.8415625 36.52734375 1.8315625 36.52734375 2.8515625 36.52734375 C3.21709053 37.94112157 3.56851745 39.35854951 3.9140625 40.77734375 C4.11128906 41.56625 4.30851563 42.35515625 4.51171875 43.16796875 C4.8749162 45.68947749 4.76949947 47.16189078 3.8515625 49.52734375 C-2.44214969 54.85279252 -10.74138871 57.14406844 -18.9296875 56.8125 C-28.88713604 55.53275749 -37.29780451 50.46166987 -43.60546875 42.75390625 C-48.5828118 35.57141121 -50.32036548 28.17786367 -49.1484375 19.52734375 C-46.93354899 9.93386218 -42.22881614 3.02397187 -34.0234375 -2.41015625 C-23.62178009 -8.77631587 -9.58959936 -6.57323447 0 0 Z M-30.6484375 9.40234375 C-32.45308906 11.47159822 -32.45308906 11.47159822 -31.8984375 14.27734375 C-31.6509375 15.01984375 -31.4034375 15.76234375 -31.1484375 16.52734375 C-32.4684375 16.85734375 -33.7884375 17.18734375 -35.1484375 17.52734375 C-35.4784375 16.86734375 -35.8084375 16.20734375 -36.1484375 15.52734375 C-36.4784375 16.84734375 -36.8084375 18.16734375 -37.1484375 19.52734375 C-25.2684375 19.19734375 -13.3884375 18.86734375 -1.1484375 18.52734375 C-2.37916462 12.37370816 -4.59047955 10.5168666 -9.3984375 6.77734375 C-17.24133501 3.21239034 -23.73328998 4.21598311 -30.6484375 9.40234375 Z M-37.1484375 28.52734375 C-37.1484375 28.85734375 -37.1484375 29.18734375 -37.1484375 29.52734375 C-35.4984375 29.52734375 -33.8484375 29.52734375 -32.1484375 29.52734375 C-32.1484375 29.19734375 -32.1484375 28.86734375 -32.1484375 28.52734375 C-33.7984375 28.52734375 -35.4484375 28.52734375 -37.1484375 28.52734375 Z M-36.1484375 30.52734375 C-35.1484375 32.52734375 -35.1484375 32.52734375 -35.1484375 32.52734375 Z " fill="#172191" transform="translate(907.1484375,121.47265625)"/>
<path d="M0 0 C0.9075 0.00257812 1.815 0.00515625 2.75 0.0078125 C4.11125 0.00394531 4.11125 0.00394531 5.5 0 C7.75 0.1328125 7.75 0.1328125 8.75 1.1328125 C8.87337174 2.97313239 8.92791308 4.81810661 8.95532227 6.66235352 C8.97526749 7.84350235 8.99521271 9.02465118 9.01576233 10.24159241 C9.03247482 11.5269841 9.04918732 12.81237579 9.06640625 14.13671875 C9.08718735 15.44487045 9.10796844 16.75302216 9.12937927 18.10081482 C9.184663 21.58436697 9.23404431 25.0679791 9.28222656 28.55163574 C9.33239574 32.1041398 9.38810567 35.6565564 9.44335938 39.20898438 C9.55101791 46.18351796 9.65244567 53.15813048 9.75 60.1328125 C11.49140824 57.93241232 13.23065817 55.73036127 14.96875 53.52734375 C15.45569336 52.91250122 15.94263672 52.29765869 16.44433594 51.66418457 C19.49727631 47.79057502 22.40161816 43.8463279 25.25 39.8203125 C28.48643702 35.83475443 30.55173255 34.4237711 35.6875 33.8828125 C38.50624176 33.8669546 40.23055387 33.87308944 42.75 35.1328125 C42.19896678 39.12780338 40.22857385 41.07669595 37.5 43.9453125 C33.87677105 47.84990155 30.75943748 51.74763218 27.75 56.1328125 C26.42524934 57.80630922 25.09326883 59.47414303 23.75 61.1328125 C30.64309933 70.07451518 37.6964886 78.71831189 45.453125 86.9375 C46.875 88.5078125 46.875 88.5078125 48.75 91.1328125 C48.3671875 93.296875 48.3671875 93.296875 47.75 95.1328125 C46.02225692 95.24174201 44.29249052 95.31882342 42.5625 95.3828125 C41.59957031 95.42921875 40.63664063 95.475625 39.64453125 95.5234375 C34.07518535 94.77183886 31.23612827 90.73448247 27.95629883 86.46142578 C27.51697021 85.8786084 27.0776416 85.29579102 26.625 84.6953125 C21.20934133 77.64867965 15.52785382 70.88614813 9.75 64.1328125 C9.42 74.3628125 9.09 84.5928125 8.75 95.1328125 C-1.25 95.1328125 -1.25 95.1328125 -3.25 94.1328125 C-3.27312178 82.02439306 -3.29091424 69.91597883 -3.30181217 57.80754185 C-3.30704136 52.18573288 -3.31413966 46.56393897 -3.32543945 40.94213867 C-3.33626706 35.52162973 -3.34227656 30.1011353 -3.34487724 24.68061638 C-3.34673172 22.60766305 -3.35035277 20.53471056 -3.35573006 18.46176338 C-3.3629388 15.56897357 -3.36399101 12.67624454 -3.36352539 9.78344727 C-3.36712067 8.91742386 -3.37071594 8.05140045 -3.37442017 7.15913391 C-3.36221364 0.198464 -3.36221364 0.198464 0 0 Z " fill="#17218F" transform="translate(479.25,81.8671875)"/>
<path d="M0 0 C1.0725 0.721875 2.145 1.44375 3.25 2.1875 C10.46044774 9.56182155 13.3125 16.97693262 13.3125 27.16845703 C13.11692566 36.42934636 9.51562743 42.32301142 3.28515625 48.984375 C-3.26662248 54.76337983 -11.07200377 57.37458562 -19.76171875 57.2109375 C-29.5392053 56.28949898 -36.57932787 51.7666757 -43.25 44.8125 C-48.13699309 38.76384462 -50.75494693 30.95016176 -50.3125 23.1796875 C-48.98572078 13.92540244 -44.67514212 6.89473618 -37.49609375 0.9140625 C-26.28780179 -7.27083029 -11.64706205 -7.89631325 0 0 Z M-32.79296875 11.98828125 C-36.98109998 17.74820519 -38.68400842 22.46579986 -37.62109375 29.51171875 C-36.30604109 35.04486483 -34.41255837 38.48186053 -29.8203125 41.8828125 C-24.82124053 44.95091247 -19.78789529 45.6868903 -14 45 C-7.58700323 43.19986056 -3.67681775 39.41136171 0 34 C1.87739299 28.51887563 1.51913604 22.80170744 -0.0625 17.3125 C-3.09667398 12.12504126 -7.40932279 8.30575953 -13 6 C-20.69056252 4.87518984 -27.47082605 6.08638444 -32.79296875 11.98828125 Z " fill="#182292" transform="translate(450,121)"/>
<path d="M0 0 C1.51400391 0.01740234 1.51400391 0.01740234 3.05859375 0.03515625 C4.07050781 0.04417969 5.08242188 0.05320312 6.125 0.0625 C7.29869141 0.07990234 7.29869141 0.07990234 8.49609375 0.09765625 C8.5101123 1.66277954 8.5101123 1.66277954 8.52441406 3.25952148 C8.56459091 7.16814289 8.63042307 11.07599987 8.70361328 14.98413086 C8.73166359 16.66860051 8.75295665 18.35319789 8.76708984 20.0378418 C8.49781996 33.2244719 8.49781996 33.2244719 13.49609375 45.09765625 C17.3391577 47.97995421 20.84784133 48.58405501 25.5390625 48.38671875 C29.64316094 47.78052457 32.54986687 46.14176867 35.30859375 43.09765625 C37.89542966 38.74087998 37.71187232 34.4037218 37.8125 29.4921875 C37.8332811 28.65298264 37.85406219 27.81377777 37.87547302 26.94914246 C37.94083393 24.26956331 37.99979089 21.58988656 38.05859375 18.91015625 C38.10179177 17.09308888 38.14540648 15.27603137 38.18945312 13.45898438 C38.29650155 9.00530826 38.39780694 4.55153399 38.49609375 0.09765625 C42.45609375 0.09765625 46.41609375 0.09765625 50.49609375 0.09765625 C50.51864898 7.77302602 50.53701128 15.44838354 50.54790592 23.12377834 C50.5531337 26.68743047 50.56022944 30.25105882 50.5715332 33.81469727 C50.58443551 37.90771722 50.58932281 42.00071205 50.59375 46.09375 C50.59891129 47.37914169 50.60407257 48.66453339 50.60939026 49.98887634 C50.60946579 51.17002518 50.60954132 52.35117401 50.60961914 53.56811523 C50.61183975 54.61402328 50.61406036 55.65993134 50.61634827 56.73753357 C50.49609375 59.09765625 50.49609375 59.09765625 49.49609375 60.09765625 C47.97681337 60.16945589 46.45441893 60.18157632 44.93359375 60.16015625 C44.10730469 60.15113281 43.28101563 60.14210937 42.4296875 60.1328125 C41.79160156 60.12121094 41.15351562 60.10960937 40.49609375 60.09765625 C39.83609375 57.78765625 39.17609375 55.47765625 38.49609375 53.09765625 C37.99980469 53.50757813 37.50351562 53.9175 36.9921875 54.33984375 C31.1432527 58.97903682 26.30953545 61.39507987 18.68359375 61.09765625 C12.03764197 60.21625716 6.32100609 57.24673886 1.828125 52.23828125 C-3.03239089 45.11142511 -3.81652898 36.81514729 -3.734375 28.37890625 C-3.73391678 27.59495483 -3.73345856 26.81100342 -3.73298645 26.0032959 C-3.729993 24.36643944 -3.72219546 22.72958507 -3.7097168 21.09277344 C-3.69124784 18.57607079 -3.68920897 16.05973268 -3.68945312 13.54296875 C-3.68454473 11.94661138 -3.6787194 10.3502565 -3.671875 8.75390625 C-3.67076218 7.99984497 -3.66964935 7.24578369 -3.66850281 6.46887207 C-3.61012968 0.14080069 -3.61012968 0.14080069 0 0 Z " fill="#172292" transform="translate(539.50390625,116.90234375)"/>
<path d="M0 0 C0.66 0.33 1.32 0.66 2 1 C2.40729228 3.32156597 2.74438677 5.6568787 3 8 C3.50789062 7.59007813 4.01578125 7.18015625 4.5390625 6.7578125 C10.11088358 2.39634956 14.6864516 -0.43020873 22 0 C22.53190541 1.43344 23.05015258 2.87195367 23.5625 4.3125 C23.85253906 5.11300781 24.14257812 5.91351563 24.44140625 6.73828125 C25 9 25 9 24 12 C23.34773437 12.03738281 22.69546875 12.07476562 22.0234375 12.11328125 C14.54137358 12.62333793 14.54137358 12.62333793 8 16 C2.35292145 23.81002792 3.36324278 33.84600161 3.3125 43 C3.2834316 45.42589037 3.24898797 47.85159302 3.21000671 50.27734375 C3.18752257 51.77855867 3.17170113 53.279891 3.16316223 54.78125 C3.10964875 59.89035125 3.10964875 59.89035125 2 61 C0.33570949 61.09823937 -1.33281931 61.12973631 -3 61.125 C-4.36125 61.12886719 -4.36125 61.12886719 -5.75 61.1328125 C-8 61 -8 61 -9 60 C-9.09381302 58.15881971 -9.11743954 56.31402359 -9.11352539 54.47045898 C-9.11344986 53.28931015 -9.11337433 52.10816132 -9.11329651 50.89122009 C-9.10813522 49.6058284 -9.10297394 48.32043671 -9.09765625 46.99609375 C-9.0962413 45.68794205 -9.09482635 44.37979034 -9.09336853 43.03199768 C-9.0895441 39.54837141 -9.07971446 36.06478661 -9.06866455 32.58117676 C-9.05844882 29.02873292 -9.05387056 25.47628241 -9.04882812 21.92382812 C-9.03809212 14.94920168 -9.0210166 7.97460283 -9 1 C-6.01405576 -0.49297212 -3.29146376 -0.11755228 0 0 Z " fill="#17218E" transform="translate(690,116)"/>
<path d="M0 0 C0 30.03 0 60.06 0 91 C-4.95 91.495 -4.95 91.495 -10 92 C-9.89261786 80.43032213 -9.78000896 68.86070822 -9.66066074 57.29114723 C-9.60541283 51.91937975 -9.55198985 46.54760684 -9.50268555 41.17578125 C-9.45506956 35.99512249 -9.40272776 30.81453137 -9.34705925 25.63395309 C-9.32662315 23.65395153 -9.30791217 21.67393141 -9.29092598 19.69389725 C-9.26690974 16.92818723 -9.23685142 14.16260576 -9.20532227 11.39697266 C-9.1995668 10.57194748 -9.19381134 9.7469223 -9.18788147 8.89689636 C-9.11405216 3.22810432 -9.11405216 3.22810432 -8 1 C-5 0 -5 0 0 0 Z " fill="#172294" transform="translate(486,83)"/>
<path d="M0 0 C1.81242052 -0.02687279 3.62495233 -0.04633715 5.4375 -0.0625 C6.44683594 -0.07410156 7.45617187 -0.08570312 8.49609375 -0.09765625 C11 0 11 0 12 1 C12.09899561 2.80509373 12.12799151 4.61406928 12.12939453 6.421875 C12.13254669 7.57977539 12.13569885 8.73767578 12.13894653 9.93066406 C12.1369223 11.19104492 12.13489807 12.45142578 12.1328125 13.75 C12.13376923 15.03358398 12.13472595 16.31716797 12.13571167 17.63964844 C12.13718831 20.36003824 12.13503519 23.08039525 12.13037109 25.80078125 C12.12467381 29.29484669 12.12795299 32.78883533 12.13394356 36.28289795 C12.13841754 39.60527153 12.13528885 42.92762423 12.1328125 46.25 C12.13483673 47.51038086 12.13686096 48.77076172 12.13894653 50.06933594 C12.13579437 51.22723633 12.13264221 52.38513672 12.12939453 53.578125 C12.12859894 54.60325195 12.12780334 55.62837891 12.12698364 56.68457031 C12 59 12 59 11 60 C8.8203125 60.23828125 8.8203125 60.23828125 6.125 60.3125 C4.79855469 60.36857422 4.79855469 60.36857422 3.4453125 60.42578125 C1 60 1 60 -0.67016602 58.43994141 C-2.50479619 55.07381436 -2.09540598 52.21929939 -1.72265625 48.53515625 C-1.59986144 47.00301737 -1.48037572 45.47061058 -1.36376953 43.93798828 C-1.30022278 43.13242493 -1.23667603 42.32686157 -1.17120361 41.49688721 C-0.88145291 37.27107204 -0.78264124 33.04251115 -0.68359375 28.80859375 C-0.66245514 27.95737946 -0.64131653 27.10616516 -0.61953735 26.22915649 C-0.55638315 23.63198982 -0.49685339 21.03475601 -0.4375 18.4375 C-0.39414857 16.63606123 -0.35053008 14.83462887 -0.30664062 13.03320312 C-0.20136318 8.68886941 -0.09964813 4.34446633 0 0 Z " fill="#162090" transform="translate(725,117)"/>
<path d="M0 0 C79.86 0 159.72 0 242 0 C242 10.125 242 10.125 240 15 C239.67 15 239.34 15 239 15 C239.020625 13.9275 239.04125 12.855 239.0625 11.75 C239.01345128 8.8070768 238.71872873 6.77223939 238 4 C238.33 3.34 238.66 2.68 239 2 C160.46 2 81.92 2 1 2 C1.66 3.32 2.32 4.64 3 6 C3.0777346 8.33203812 3.08967728 10.66839059 3 13 C3.66 13 4.32 13 5 13 C5.26554687 13.54269531 5.53109375 14.08539063 5.8046875 14.64453125 C6.15789063 15.35996094 6.51109375 16.07539063 6.875 16.8125 C7.22304688 17.52019531 7.57109375 18.22789063 7.9296875 18.95703125 C9.0656486 21.21246418 9.0656486 21.21246418 11 24 C10.67 24.99 10.34 25.98 10 27 C3.6367639 18.40963126 0 10.81291497 0 0 Z " fill="#18236F" transform="translate(14,13)"/>
<path d="M0 0 C7.15616189 4.88713495 11.90857906 12.63431623 14 21 C14 23.97 14 26.94 14 30 C-65.86 30 -145.72 30 -228 30 C-228 27.69 -228 25.38 -228 23 C-227.34 24.32 -226.68 25.64 -226 27 C-147.46 27.33 -68.92 27.66 12 28 C10.18298414 18.9149207 8.44156454 13.0740339 3 6 C3 5.34 3 4.68 3 4 C1.02 3.01 1.02 3.01 -1 2 C-0.67 1.34 -0.34 0.68 0 0 Z " fill="#15227A" transform="translate(242,225)"/>
<path d="M0 0 C0.87914062 0.00064453 1.75828125 0.00128906 2.6640625 0.00195312 C4.03691406 0.02612305 4.03691406 0.02612305 5.4375 0.05078125 C6.81035156 0.04594727 6.81035156 0.04594727 8.2109375 0.04101562 C15.03667092 0.09606186 15.03667092 0.09606186 18.4375 2.36328125 C20.108125 2.33234375 20.108125 2.33234375 21.8125 2.30078125 C25.7650637 2.3689289 27.28197772 3.10933677 30.4375 5.36328125 C31.0975 5.69328125 31.7575 6.02328125 32.4375 6.36328125 C32.1075 7.02328125 31.7775 7.68328125 31.4375 8.36328125 C30.52613281 8.08613281 29.61476563 7.80898437 28.67578125 7.5234375 C16.60173213 4.14750934 7.67452658 3.99361585 -5.5625 3.36328125 C-5.5625 25.14328125 -5.5625 46.92328125 -5.5625 69.36328125 C16.06462232 69.16778688 16.06462232 69.16778688 27.4375 66.36328125 C27.4375 67.35328125 27.4375 68.34328125 27.4375 69.36328125 C28.4275 70.35328125 28.4275 70.35328125 29.4375 71.36328125 C29.4375 72.68328125 29.4375 74.00328125 29.4375 75.36328125 C33.95160179 73.33193544 37.64774007 70.81182673 41.5078125 67.765625 C43.41265306 66.38133803 45.30559143 65.35343434 47.4375 64.36328125 C42.79642429 73.0078408 34.53309704 76.75665062 25.4921875 79.63671875 C17.15835089 81.61893564 8.96226698 81.48429338 0.4375 81.42578125 C-0.81417969 81.42126953 -2.06585938 81.41675781 -3.35546875 81.41210938 C-6.42452941 81.4003954 -9.49348907 81.38399198 -12.5625 81.36328125 C-12.5625 81.03328125 -12.5625 80.70328125 -12.5625 80.36328125 C-1.54360461 79.65645635 9.39437814 79.21669114 20.4375 79.36328125 C20.7675 78.70328125 21.0975 78.04328125 21.4375 77.36328125 C22.4275 76.70328125 23.4175 76.04328125 24.4375 75.36328125 C23.7775 75.36328125 23.1175 75.36328125 22.4375 75.36328125 C22.4375 73.71328125 22.4375 72.06328125 22.4375 70.36328125 C21.32890625 70.523125 20.2203125 70.68296875 19.078125 70.84765625 C14.11206691 71.46458505 9.18739006 71.58360831 4.1875 71.61328125 C2.86105469 71.64421875 2.86105469 71.64421875 1.5078125 71.67578125 C-4.83914222 71.71413143 -4.83914222 71.71413143 -8.171875 70.09765625 C-9.5625 68.36328125 -9.5625 68.36328125 -9.5625 64.36328125 C-8.9025 64.36328125 -8.2425 64.36328125 -7.5625 64.36328125 C-7.56916183 63.60573044 -7.57582367 62.84817963 -7.58268738 62.06767273 C-7.64277832 54.93129682 -7.68846391 47.79504345 -7.71793652 40.65848064 C-7.73359805 36.98941449 -7.75484475 33.32055724 -7.78881836 29.65161133 C-7.82139514 26.11139178 -7.83934934 22.57137326 -7.84713173 19.0310154 C-7.85537924 17.0218047 -7.87880137 15.01267497 -7.90238953 13.00358582 C-7.90272942 11.1720269 -7.90272942 11.1720269 -7.90307617 9.3034668 C-7.90973801 8.22647018 -7.91639984 7.14947357 -7.92326355 6.0398407 C-7.5625 3.36328125 -7.5625 3.36328125 -6.17427063 1.51528931 C-4.02606958 -0.02013073 -2.62610259 -0.00974777 0 0 Z " fill="#14207D" transform="translate(332.5625,95.63671875)"/>
<path d="M0 0 C2.98715542 1.99143695 3.78741495 2.76643985 5 6 C4.67 6.66 4.34 7.32 4 8 C3.01 8 2.02 8 1 8 C1.16298584 8.65250732 1.32597168 9.30501465 1.49389648 9.97729492 C2.13130878 13.78424216 2.12372133 17.51686345 2.09765625 21.36328125 C2.0962413 22.15526413 2.09482635 22.94724701 2.09336853 23.76322937 C2.08779457 26.27969219 2.07524693 28.79606431 2.0625 31.3125 C2.05748163 33.02408725 2.05291931 34.73567591 2.04882812 36.44726562 C2.03783368 40.63154508 2.02058707 44.81575719 2 49 C-0.97 48.67 -3.94 48.34 -7 48 C-7.04955872 43.10702988 -7.0857946 38.21420695 -7.10986328 33.32104492 C-7.11990057 31.65760756 -7.13353331 29.99418775 -7.15087891 28.33081055 C-7.17522749 25.93533995 -7.18650588 23.54010332 -7.1953125 21.14453125 C-7.20563507 20.4047554 -7.21595764 19.66497955 -7.22659302 18.90278625 C-7.2274732 14.82210091 -6.91106128 11.63386751 -5 8 C-3 6 -3 6 0 4 C-0.66 4 -1.32 4 -2 4 C-1.34 2.68 -0.68 1.36 0 0 Z " fill="#182296" transform="translate(803,126)"/>
<path d="M0 0 C0.9075 0.00257812 1.815 0.00515625 2.75 0.0078125 C4.11125 0.00394531 4.11125 0.00394531 5.5 0 C7.75 0.1328125 7.75 0.1328125 8.75 1.1328125 C8.8471649 2.94743 8.8751599 4.76579098 8.87597656 6.58300781 C8.88168671 8.33052338 8.88168671 8.33052338 8.88751221 10.11334229 C8.88853943 11.38304871 8.88956665 12.65275513 8.890625 13.9609375 C8.90425788 15.94152111 8.91792038 17.92210505 8.93333054 19.90267563 C8.97137255 24.80282473 9.00261916 29.70271387 9.00048828 34.60302734 C8.99985317 37.34684693 9.01230606 40.08999393 9.03948975 42.8336792 C9.06486395 45.42116694 9.07120168 48.00892505 9.05670166 50.59649658 C9.00787982 57.43980396 9.00787982 57.43980396 12.17871094 63.26074219 C13.45149902 64.18741699 13.45149902 64.18741699 14.75 65.1328125 C16.5625 68.4453125 16.5625 68.4453125 17.75 71.1328125 C13.54509714 69.48088638 12.94017065 68.12052581 9.75 64.1328125 C9.42 74.3628125 9.09 84.5928125 8.75 95.1328125 C5.45 95.1328125 2.15 95.1328125 -1.25 95.1328125 C-1.91 94.4728125 -2.57 93.8128125 -3.25 93.1328125 C1.7 92.6378125 1.7 92.6378125 6.75 92.1328125 C6.75 62.1028125 6.75 32.0728125 6.75 1.1328125 C4.11 1.4628125 1.47 1.7928125 -1.25 2.1328125 C-1.58 31.8328125 -1.91 61.5328125 -2.25 92.1328125 C-2.58 92.1328125 -2.91 92.1328125 -3.25 92.1328125 C-3.27312202 80.28516077 -3.29091437 68.43751436 -3.30181217 56.5898447 C-3.30704131 51.08910388 -3.31413951 45.58837845 -3.32543945 40.08764648 C-3.33626725 34.7838469 -3.3422766 29.48006215 -3.34487724 24.17625237 C-3.34673169 22.14795638 -3.35035267 20.11966124 -3.35573006 18.09137154 C-3.36293906 15.26084736 -3.363991 12.43038532 -3.36352539 9.59985352 C-3.36712067 8.75253159 -3.37071594 7.90520966 -3.37442017 7.0322113 C-3.3621733 0.19846162 -3.3621733 0.19846162 0 0 Z " fill="#0E1A83" transform="translate(479.25,81.8671875)"/>
<path d="M0 0 C0.33 0 0.66 0 1 0 C1.33 30.69 1.66 61.38 2 93 C38.42966127 93.60755283 38.42966127 93.60755283 55 89 C54.67 89.66 54.34 90.32 54 91 C53.34 91 52.68 91 52 91 C52 91.66 52 92.32 52 93 C49.525 93.495 49.525 93.495 47 94 C47 94.66 47 95.32 47 96 C40.32465139 95.88270365 33.64947491 95.75786785 26.97436523 95.62768555 C24.70161164 95.58426335 22.42882387 95.54259384 20.15600586 95.50268555 C16.89686768 95.44515881 13.63790269 95.38141448 10.37890625 95.31640625 C9.35599991 95.29969376 8.33309357 95.28298126 7.27919006 95.26576233 C5.86784035 95.2358445 5.86784035 95.2358445 4.42797852 95.20532227 C3.59524918 95.18977798 2.76251984 95.1742337 1.90455627 95.15821838 C0 95 0 95 -1 94 C-1.10056691 91.11393984 -1.13615375 88.25177425 -1.12939453 85.36523438 C-1.13114685 84.45961258 -1.13289917 83.55399078 -1.13470459 82.6209259 C-1.13912454 79.61184807 -1.13618461 76.60282848 -1.1328125 73.59375 C-1.1334855 71.51249175 -1.13445549 69.43123357 -1.13571167 67.34997559 C-1.13718884 62.98184462 -1.13503348 58.61373407 -1.13037109 54.24560547 C-1.1246738 48.63285447 -1.1279527 43.02015128 -1.13394356 37.40740204 C-1.13754866 33.10788611 -1.13641082 28.80838162 -1.13381577 24.50886536 C-1.13314636 22.43870539 -1.1339754 20.3685444 -1.13629532 18.29838562 C-1.13882102 15.41048414 -1.13498242 12.52266122 -1.12939453 9.63476562 C-1.13141876 8.77031326 -1.13344299 7.9058609 -1.13552856 7.01521301 C-1.11426237 1.11426237 -1.11426237 1.11426237 0 0 Z " fill="#182277" transform="translate(98,86)"/>
<path d="M0 0 C79.2 0 158.4 0 240 0 C240 3.96 240 7.92 240 12 C239.34 12.66 238.68 13.32 238 14 C238.020625 12.9275 238.04125 11.855 238.0625 10.75 C238.01345128 7.8070768 237.71872873 5.77223939 237 3 C237.33 2.34 237.66 1.68 238 1 C159.46 1 80.92 1 0 1 C0 0.67 0 0.34 0 0 Z " fill="#121B81" transform="translate(15,14)"/>
<path d="M0 0 C5.24697519 -0.04977792 10.4938101 -0.0858971 15.7409668 -0.10986328 C17.52256671 -0.11986411 19.30415044 -0.13346916 21.08569336 -0.15087891 C23.66003433 -0.17538957 26.23415657 -0.18654248 28.80859375 -0.1953125 C29.98572182 -0.21079636 29.98572182 -0.21079636 31.18663025 -0.22659302 C43.30456581 -0.2290013 54.94336723 3.75862076 63.8125 12.3125 C66 15 66 15 66 17 C63.03312999 18.64826111 60.34373475 19.44271087 57 20 C57.33 20.33 57.66 20.66 58 21 C61.11469497 26.39081822 61.11469497 26.39081822 60.5859375 29.19921875 C60.39257812 29.79347656 60.19921875 30.38773438 60 31 C59.62488281 30.33613281 59.24976563 29.67226562 58.86328125 28.98828125 C55.98662553 24.02478209 53.31045211 19.8033401 49 16 C49.99 15.67 50.98 15.34 52 15 C53.1500831 13.03327085 53.1500831 13.03327085 54 11 C54.33 10.67 54.66 10.34 55 10 C52.55229545 7.12517922 50.16175663 6.10559751 46.625 4.875 C45.68914062 4.54242188 44.75328125 4.20984375 43.7890625 3.8671875 C38.39880538 2.1912252 33.25968246 1.80697561 27.63671875 1.68359375 C26.44874443 1.6524221 26.44874443 1.6524221 25.23677063 1.62062073 C22.72043072 1.55552196 20.20399128 1.49642577 17.6875 1.4375 C15.97590139 1.394277 14.26431265 1.35066152 12.55273438 1.30664062 C8.36859016 1.19988153 4.18434638 1.09850365 0 1 C0 0.67 0 0.34 0 0 Z " fill="#141F85" transform="translate(315,88)"/>
<path d="M0 0 C1.66869141 -0.01836914 1.66869141 -0.01836914 3.37109375 -0.03710938 C11.45705159 -0.05139552 19.21085069 0.36368397 26.5 4.1875 C27.47453125 4.6825 27.47453125 4.6825 28.46875 5.1875 C30 6.1875 30 6.1875 31 8.1875 C29.22739369 7.73607225 27.4569632 7.27609477 25.6875 6.8125 C24.70136719 6.55726562 23.71523437 6.30203125 22.69921875 6.0390625 C20 5.1875 20 5.1875 17 3.1875 C3.14 2.6925 3.14 2.6925 -11 2.1875 C-11.33 25.9475 -11.66 49.7075 -12 74.1875 C0.375 73.6925 0.375 73.6925 13 73.1875 C13 72.8575 13 72.5275 13 72.1875 C16.3 72.1875 19.6 72.1875 23 72.1875 C18.34214061 75.29273959 14.82488349 75.30953896 9.265625 75.28515625 C7.32236328 75.28032227 7.32236328 75.28032227 5.33984375 75.27539062 C3.97656183 75.26703598 2.61328058 75.25857104 1.25 75.25 C-0.12890465 75.24498168 -1.50781104 75.24041935 -2.88671875 75.23632812 C-6.25785659 75.22454093 -9.62890628 75.20808635 -13 75.1875 C-13.02312465 65.55637288 -13.04091571 55.92525526 -13.05181217 46.29410648 C-13.05704074 41.82244451 -13.06413789 37.35080147 -13.07543945 32.87915039 C-13.08626929 28.56738027 -13.09227704 24.25562841 -13.09487724 19.94384575 C-13.09673132 18.29513702 -13.1003516 16.64642934 -13.10573006 14.99772835 C-13.11294178 12.69646128 -13.11399089 10.3952706 -13.11352539 8.09399414 C-13.115746 6.7816127 -13.11796661 5.46923126 -13.12025452 4.11708069 C-12.85308559 -2.39155564 -5.12167135 0.00288708 0 0 Z " fill="#20276F" transform="translate(122,94.8125)"/>
<path d="M0 0 C0.99 0 1.98 0 3 0 C2.979375 1.216875 2.95875 2.43375 2.9375 3.6875 C2.93175884 6.91977322 3.21233685 9.84934741 4 13 C4.66 13 5.32 13 6 13 C6.38909985 14.45463481 6.76088029 15.91391207 7.125 17.375 C7.33382813 18.18710938 7.54265625 18.99921875 7.7578125 19.8359375 C7.83773438 20.55007812 7.91765625 21.26421875 8 22 C6.66666667 23.33333333 5.33333333 24.66666667 4 26 C1.875 25.625 1.875 25.625 0 25 C0.33 24.01 0.66 23.02 1 22 C0.01 21.67 -0.98 21.34 -2 21 C-3.72567535 17.48227718 -5.421604 13.90417303 -6 10 C-5.67 9.34 -5.34 8.68 -5 8 C-5.66 8 -6.32 8 -7 8 C-7 7.01 -7 6.02 -7 5 C-6.34 5 -5.68 5 -5 5 C-5 4.34 -5 3.68 -5 3 C-4.360625 2.87625 -3.72125 2.7525 -3.0625 2.625 C-2.0415625 2.315625 -2.0415625 2.315625 -1 2 C-0.67 1.34 -0.34 0.68 0 0 Z " fill="#182295" transform="translate(408,140)"/>
<path d="M0 0 C2.32039251 1.60027069 2.89969741 2.72775011 3.875 5.375 C4.0389951 8.81889713 3.05689702 10.28195751 1 13 C-2 15 -2 15 -5.5 14.875 C-9 14 -9 14 -10.9375 12.3125 C-12.32431433 9.2941394 -12.4112874 7.29029921 -12 4 C-9.00369823 -1.27919836 -5.60614617 -1.40153654 0 0 Z " fill="#15208B" transform="translate(735,93)"/>
<path d="M0 0 C1.81242052 -0.02687279 3.62495233 -0.04633715 5.4375 -0.0625 C6.44683594 -0.07410156 7.45617187 -0.08570312 8.49609375 -0.09765625 C11 0 11 0 12 1 C12.09899561 2.80509373 12.12799151 4.61406928 12.12939453 6.421875 C12.13254669 7.57977539 12.13569885 8.73767578 12.13894653 9.93066406 C12.1369223 11.19104492 12.13489807 12.45142578 12.1328125 13.75 C12.13376923 15.03358398 12.13472595 16.31716797 12.13571167 17.63964844 C12.13718831 20.36003824 12.13503519 23.08039525 12.13037109 25.80078125 C12.12467381 29.29484669 12.12795299 32.78883533 12.13394356 36.28289795 C12.13841754 39.60527153 12.13528885 42.92762423 12.1328125 46.25 C12.13483673 47.51038086 12.13686096 48.77076172 12.13894653 50.06933594 C12.13579437 51.22723633 12.13264221 52.38513672 12.12939453 53.578125 C12.12859894 54.60325195 12.12780334 55.62837891 12.12698364 56.68457031 C12 59 12 59 11 60 C9.31391034 60.07205511 7.62499341 60.08386068 5.9375 60.0625 C5.01839844 60.05347656 4.09929688 60.04445312 3.15234375 60.03515625 C2.44207031 60.02355469 1.73179687 60.01195312 1 60 C0.67 59.34 0.34 58.68 0 58 C4.455 57.505 4.455 57.505 9 57 C9 38.52 9 20.04 9 1 C6.69 1.66 4.38 2.32 2 3 C1.67 3.99 1.34 4.98 1 6 C0.67 6 0.34 6 0 6 C0 4.02 0 2.04 0 0 Z " fill="#122088" transform="translate(725,117)"/>
<path d="M0 0 C0.78375 0.04125 1.5675 0.0825 2.375 0.125 C2.045 1.115 1.715 2.105 1.375 3.125 C0.055 2.795 -1.265 2.465 -2.625 2.125 C-2.625 20.605 -2.625 39.085 -2.625 58.125 C0.345 58.125 3.315 58.125 6.375 58.125 C6.705 47.565 7.035 37.005 7.375 26.125 C7.705 26.125 8.035 26.125 8.375 26.125 C8.375 37.345 8.375 48.565 8.375 60.125 C6.00886544 61.30806728 4.50719264 61.25854608 1.875 61.25 C1.0809375 61.25257813 0.286875 61.25515625 -0.53125 61.2578125 C-2.625 61.125 -2.625 61.125 -4.625 60.125 C-4.6712929 52.5973122 -4.70685365 45.06963912 -4.72862434 37.54184151 C-4.73907198 34.04656073 -4.75324883 30.55137717 -4.77587891 27.05615234 C-4.80171953 23.04002944 -4.81146466 19.02400903 -4.8203125 15.0078125 C-4.83063507 13.74945587 -4.84095764 12.49109924 -4.85159302 11.1946106 C-4.85174408 10.03355804 -4.85189514 8.87250549 -4.85205078 7.67626953 C-4.856492 6.65034698 -4.86093323 5.62442444 -4.86550903 4.56741333 C-4.51523611 1.01032755 -3.55310091 0.16919528 0 0 Z " fill="#0F227A" transform="translate(757.625,115.875)"/>
<path d="M0 0 C0.9075 0.00257812 1.815 0.00515625 2.75 0.0078125 C4.11125 0.00394531 4.11125 0.00394531 5.5 0 C7.75 0.1328125 7.75 0.1328125 8.75 1.1328125 C8.84370624 2.91273174 8.86744271 4.69637989 8.86352539 6.47875977 C8.86344986 7.6198671 8.86337433 8.76097443 8.86329651 9.93666077 C8.85813522 11.1783049 8.85297394 12.41994904 8.84765625 13.69921875 C8.8462413 14.96297836 8.84482635 16.22673798 8.84336853 17.52879333 C8.83870582 20.89406139 8.8297148 24.2592624 8.81866455 27.62451172 C8.80844846 31.0563092 8.80387049 34.48811359 8.79882812 37.91992188 C8.7877738 44.65757074 8.7710171 51.39518775 8.75 58.1328125 C8.42 58.1328125 8.09 58.1328125 7.75 58.1328125 C7.42 39.3228125 7.09 20.5128125 6.75 1.1328125 C4.11 1.4628125 1.47 1.7928125 -1.25 2.1328125 C-1.58 31.8328125 -1.91 61.5328125 -2.25 92.1328125 C-2.58 92.1328125 -2.91 92.1328125 -3.25 92.1328125 C-3.27312202 80.28516077 -3.29091437 68.43751436 -3.30181217 56.5898447 C-3.30704131 51.08910388 -3.31413951 45.58837845 -3.32543945 40.08764648 C-3.33626725 34.7838469 -3.3422766 29.48006215 -3.34487724 24.17625237 C-3.34673169 22.14795638 -3.35035267 20.11966124 -3.35573006 18.09137154 C-3.36293906 15.26084736 -3.363991 12.43038532 -3.36352539 9.59985352 C-3.36712067 8.75253159 -3.37071594 7.90520966 -3.37442017 7.0322113 C-3.3621733 0.19846162 -3.3621733 0.19846162 0 0 Z " fill="#161E75" transform="translate(479.25,81.8671875)"/>
<path d="M0 0 C9.02049732 -0.69093171 15.73684511 1.13056883 23.25 6.1875 C30.24659559 13.34310912 33.8588137 20.52501242 34.5625 30.5625 C34.41492422 38.94269635 30.6035401 47.04862784 24.9765625 53.21875 C23.0625 54.875 23.0625 54.875 20 57 C19.34 56.67 18.68 56.34 18 56 C22.52380952 51.22486772 22.52380952 51.22486772 25.25 49.9375 C27.17948795 49.15348175 27.17948795 49.15348175 27.6875 47.125 C27.790625 46.42375 27.89375 45.7225 28 45 C28.33333333 43.66666667 28.66666667 42.33333333 29 41 C29.66 41 30.32 41 31 41 C31 33.74 31 26.48 31 19 C30.01 18.67 29.02 18.34 28 18 C25 12.77777778 25 12.77777778 25 10 C23.7315625 9.6596875 23.7315625 9.6596875 22.4375 9.3125 C18.88654419 7.95668051 16.52565163 6.30254328 13.61328125 3.92578125 C12.81470703 3.46751953 12.81470703 3.46751953 12 3 C11.01 3.33 10.02 3.66 9 4 C8.67 3.34 8.34 2.68 8 2 C6.10466658 1.53476937 6.10466658 1.53476937 3.9375 1.375 C2.638125 1.25125 1.33875 1.1275 0 1 C0 0.67 0 0.34 0 0 Z " fill="#121C79" transform="translate(634,116)"/>
<path d="M0 0 C5.98977231 1.99659077 8.94750086 5.32250566 11.89306641 10.87329102 C16.28693529 19.84187043 17.10288598 27.12510757 15 37 C11.21173138 45.63471283 5.83608112 52.59316118 -1 59 C-1.98286392 59.9754554 -2.96247352 60.95421058 -3.9375 61.9375 C-4.9584375 62.9584375 -4.9584375 62.9584375 -6 64 C-6.66 63.67 -7.32 63.34 -8 63 C-7.02189418 61.87407755 -6.04241565 60.74934767 -5.0625 59.625 C-4.42828125 58.89152344 -3.7940625 58.15804687 -3.140625 57.40234375 C-1.69061584 55.77505244 -0.19892012 54.18413509 1.328125 52.62890625 C8.67686739 45.02466123 12.0842657 38.14531759 12.5 27.5 C12.14265517 17.78252595 9.25933828 10.5326375 2.48828125 3.55859375 C1 2 1 2 0 0 Z " fill="#131D7D" transform="translate(31,167)"/>
<path d="M0 0 C1.51400391 0.01740234 1.51400391 0.01740234 3.05859375 0.03515625 C4.07050781 0.04417969 5.08242188 0.05320312 6.125 0.0625 C7.29869141 0.07990234 7.29869141 0.07990234 8.49609375 0.09765625 C8.51067627 1.14107178 8.52525879 2.1844873 8.5402832 3.25952148 C8.59869768 7.16805574 8.67592382 11.0760396 8.75854492 14.98413086 C8.79159288 16.66860962 8.81968605 18.35319375 8.8425293 20.0378418 C8.93780251 32.86789182 8.93780251 32.86789182 12.49609375 45.09765625 C11.50609375 44.43765625 10.51609375 43.77765625 9.49609375 43.09765625 C9.49609375 42.10765625 9.49609375 41.11765625 9.49609375 40.09765625 C8.83609375 40.09765625 8.17609375 40.09765625 7.49609375 40.09765625 C6.22449432 36.20805798 6.36958188 32.31202046 6.3984375 28.26953125 C6.39985245 27.52052551 6.4012674 26.77151978 6.40272522 25.99981689 C6.40830716 23.61572213 6.4208563 21.23172247 6.43359375 18.84765625 C6.43861109 17.22786594 6.44317359 15.60807416 6.44726562 13.98828125 C6.45827067 10.02470313 6.47552284 6.0611958 6.49609375 2.09765625 C3.85609375 2.09765625 1.21609375 2.09765625 -1.50390625 2.09765625 C-1.5535425 6.82990001 -1.58973722 11.5619904 -1.61376953 16.29443359 C-1.62379388 17.90253338 -1.63741691 19.5106151 -1.65478516 21.11865234 C-1.67919113 23.43722001 -1.69042511 25.75554554 -1.69921875 28.07421875 C-1.70954132 28.78695953 -1.71986389 29.49970032 -1.73049927 30.23403931 C-1.73146768 34.59491944 -1.05724499 38.03714876 0.49609375 42.09765625 C0.78484375 43.29390625 1.07359375 44.49015625 1.37109375 45.72265625 C2.56367061 49.30038682 3.52788699 50.82785108 6.49609375 53.09765625 C8.63429035 53.88492405 8.63429035 53.88492405 10.49609375 54.09765625 C10.16609375 55.08765625 9.83609375 56.07765625 9.49609375 57.09765625 C4.3387845 54.99653026 1.24674729 51.57215428 -1.25390625 46.66015625 C-3.35623519 40.66851878 -3.65366123 34.97730278 -3.63671875 28.671875 C-3.63767548 27.88367874 -3.6386322 27.09548248 -3.63961792 26.28340149 C-3.64029504 24.62863077 -3.63847357 22.97385733 -3.63427734 21.3190918 C-3.62888646 18.77581927 -3.63425642 16.23272047 -3.640625 13.68945312 C-3.63996484 12.07942669 -3.63868496 10.46940037 -3.63671875 8.859375 C-3.63874298 8.09590256 -3.64076721 7.33243011 -3.64285278 6.54582214 C-3.61406479 0.14095417 -3.61406479 0.14095417 0 0 Z " fill="#151F79" transform="translate(539.50390625,116.90234375)"/>
<path d="M0 0 C4.35610226 4.0449521 8.09294033 8.01800386 10.625 13.4375 C11.12 14.4275 11.12 14.4275 11.625 15.4375 C12.0658019 20.94752376 11.32541285 25.61291303 8.625 30.4375 C6.4375 31.9375 6.4375 31.9375 4.625 32.4375 C5.12 31.303125 5.615 30.16875 6.125 29 C8.36906789 22.95170274 8.34680285 17.84350951 6.5 11.6875 C3.66641974 6.77596088 -0.10845786 3.65550569 -5.375 1.4375 C-12.19855893 0.43949648 -17.68865783 1.55925741 -23.375 5.4375 C-25.79572212 7.51886655 -25.79572212 7.51886655 -27.375 9.4375 C-25.74067291 2.66671635 -25.74067291 2.66671635 -23.51171875 1.26953125 C-15.81138874 -1.93586928 -7.83139849 -3.62564745 0 0 Z " fill="#141E7C" transform="translate(442.375,126.5625)"/>
<path d="M0 0 C0.60328125 0.42152344 1.2065625 0.84304687 1.828125 1.27734375 C3.02695312 2.09912109 3.02695312 2.09912109 4.25 2.9375 C5.03890625 3.48277344 5.8278125 4.02804688 6.640625 4.58984375 C11.1413841 7.27986699 15.82853265 7.55097876 21 7 C25.17842467 5.53755137 28.60801263 3.84926939 32 1 C31.875 3.3125 31.875 3.3125 31 6 C25.93538479 9.39767887 21.65597371 9.31367932 15.8125 9.0625 C14.21516384 9.00248817 12.61746388 8.95133323 11.01953125 8.91015625 C10.31932861 8.88058838 9.61912598 8.85102051 8.89770508 8.82055664 C6.66608164 8.88034451 6.66608164 8.88034451 4 11 C3.67 11.66 3.34 12.32 3 13 C2.01 12.67 1.02 12.34 0 12 C0 12.66 0 13.32 0 14 C-3.36720387 12.60667426 -4.9859524 11.0210714 -7 8 C-6.195625 7.71125 -5.39125 7.4225 -4.5625 7.125 C-1.8673532 6.26737432 -1.8673532 6.26737432 -1 4 C-0.64830932 2.67139075 -0.31229724 1.33841672 0 0 Z " fill="#172195" transform="translate(415,158)"/>
<path d="M0 0 C4.57114211 2.71116015 8.78881715 5.76457903 13 9 C12.01 9.495 12.01 9.495 11 10 C11 21.22 11 32.44 11 44 C10.01 44.495 10.01 44.495 9 45 C8.98541748 43.99622314 8.97083496 42.99244629 8.95581055 41.95825195 C8.89767948 38.2212425 8.82044835 34.48482631 8.73754883 30.74829102 C8.7043689 29.13348037 8.67631542 27.51855569 8.65356445 25.90356445 C8.61988975 23.57714408 8.56757037 21.25176217 8.51171875 18.92578125 C8.50532883 18.20787918 8.4989389 17.48997711 8.49235535 16.75032043 C8.36430766 12.3493042 7.70912906 9.49883796 5 6 C0.57854186 3.08585713 -2.76083868 2.54042445 -8 3 C-10.39520503 3.54734178 -12.6595404 4.2357683 -15 5 C-15 4.34 -15 3.68 -15 3 C-10.135136 0.567568 -5.45701362 -1.59977598 0 0 Z " fill="#091278" transform="translate(825,125)"/>
<path d="M0 0 C3.30686529 1.39575483 5.01575326 2.9247093 7.125 5.8125 C7.87136719 6.81216797 7.87136719 6.81216797 8.6328125 7.83203125 C11.36939043 12.17146197 12.32004538 16.09759601 12.75 21.1875 C12.89695312 22.75564453 12.89695312 22.75564453 13.046875 24.35546875 C13 27 13 27 11 29 C8.38623047 29.22705078 8.38623047 29.22705078 5.1171875 29.1953125 C3.95058594 29.18886719 2.78398438 29.18242187 1.58203125 29.17578125 C0.35871094 29.15902344 -0.86460937 29.14226562 -2.125 29.125 C-3.35605469 29.11597656 -4.58710937 29.10695312 -5.85546875 29.09765625 C-8.90383815 29.07402548 -11.95182382 29.04108054 -15 29 C-15 28.67 -15 28.34 -15 28 C-6.42 27.67 2.16 27.34 11 27 C10.36724755 16.42976428 10.36724755 16.42976428 5 9 C4.01 9.66 3.02 10.32 2 11 C1.34 10.01 0.68 9.02 0 8 C-0.33 7.67 -0.66 7.34 -1 7 C-0.67 6.34 -0.34 5.68 0 5 C0.66 5 1.32 5 2 5 C1.34 3.35 0.68 1.7 0 0 Z " fill="#0F1F7D" transform="translate(906,122)"/>
<path d="M0 0 C0.99 0 1.98 0 3 0 C2.8820767 5.96327899 2.757853 11.92637998 2.62768555 17.8894043 C2.58426759 19.91964104 2.54259774 21.94991592 2.50268555 23.98022461 C2.44514854 26.89188151 2.38140722 29.80334514 2.31640625 32.71484375 C2.29133751 34.08514992 2.29133751 34.08514992 2.26576233 35.48313904 C2.11387171 41.88612829 2.11387171 41.88612829 1 43 C-0.66429051 43.09823937 -2.33281931 43.12973631 -4 43.125 C-5.36125 43.12886719 -5.36125 43.12886719 -6.75 43.1328125 C-9 43 -9 43 -10 42 C-10.08861992 39.1883662 -10.11522355 36.40141745 -10.09765625 33.58984375 C-10.0962413 32.74780899 -10.09482635 31.90577423 -10.09336853 31.03822327 C-10.08775263 28.33794665 -10.07519748 25.63775172 -10.0625 22.9375 C-10.05748705 21.11132932 -10.05292379 19.28515734 -10.04882812 17.45898438 C-10.03777804 12.97262458 -10.02050279 8.48632616 -10 4 C-9.67 4 -9.34 4 -9 4 C-9 16.21 -9 28.42 -9 41 C-5.7 41 -2.4 41 1 41 C0.67 27.47 0.34 13.94 0 0 Z " fill="#141F77" transform="translate(804,134)"/>
<path d="M0 0 C0.33 0 0.66 0 1 0 C1 28.05 1 56.1 1 85 C2.65 85 4.3 85 6 85 C6 85.66 6 86.32 6 87 C7.32 87.33 8.64 87.66 10 88 C3.9453125 88.1953125 3.9453125 88.1953125 2 88 C-0.55930462 85.44069538 -0.23563634 83.78195224 -0.24884033 80.29348755 C-0.24164978 79.49651459 -0.23445923 78.69954163 -0.22705078 77.87841797 C-0.22734283 77.03931885 -0.22763489 76.20021973 -0.22793579 75.33569336 C-0.22653933 72.55442056 -0.21096335 69.77341366 -0.1953125 66.9921875 C-0.19158349 65.06690619 -0.18873599 63.14162299 -0.18673706 61.21633911 C-0.17909176 56.1429523 -0.1594356 51.06967956 -0.1373291 45.99633789 C-0.11688995 40.82179304 -0.10773948 35.64722981 -0.09765625 30.47265625 C-0.07619054 20.31505398 -0.04204381 10.15753647 0 0 Z " fill="#131A65" transform="translate(607,118)"/>
<path d="M0 0 C1.2065625 0.0309375 1.2065625 0.0309375 2.4375 0.0625 C2.80875 1.733125 2.80875 1.733125 3.1875 3.4375 C4.02370455 7.09539919 4.02370455 7.09539919 6.4375 8.3125 C7.0975 8.56 7.7575 8.8075 8.4375 9.0625 C9.4275 10.5475 9.4275 10.5475 10.4375 12.0625 C6.96424819 13.2202506 4.07682552 13.13116652 0.4375 13.0625 C0.4375 12.4025 0.4375 11.7425 0.4375 11.0625 C-0.8825 10.4025 -2.2025 9.7425 -3.5625 9.0625 C-3.66015625 2.91015625 -3.66015625 2.91015625 -3.5625 1.0625 C-2.5625 0.0625 -2.5625 0.0625 0 0 Z " fill="#182295" transform="translate(515.5625,161.9375)"/>
<path d="M0 0 C3.38084321 3.00599492 5.01406561 5.75127454 6.6875 9.9375 C7.10386719 10.95714844 7.52023437 11.97679688 7.94921875 13.02734375 C11.38115678 22.73628369 10.89358707 32.51303274 7.6875 42.1875 C7.47464355 42.83509277 7.26178711 43.48268555 7.04248047 44.14990234 C5.78886958 47.64937161 5.18526333 48.87649111 2 51 C2.37254406 47.2745594 3.15586767 44.5900386 5.03125 41.40625 C7.50337018 36.58639304 7.46254728 32.32185688 7.25 27 C7.23195313 26.12988281 7.21390625 25.25976562 7.1953125 24.36328125 C7.14868436 22.24170093 7.07696077 20.12069665 7 18 C6.67 18 6.34 18 6 18 C5.62875 16.2675 5.62875 16.2675 5.25 14.5 C4.28186435 10.55730263 2.74415127 7.21738663 0.8046875 3.6640625 C0 2 0 2 0 0 Z " fill="#18237E" transform="translate(381,105)"/>
<path d="M0 0 C3.9791034 -0.05868218 7.95809353 -0.0938239 11.9375 -0.125 C13.05447266 -0.14175781 14.17144531 -0.15851563 15.32226562 -0.17578125 C23.44410565 -0.22341668 31.17637625 0.15809902 38.5 4 C39.47453125 4.495 39.47453125 4.495 40.46875 5 C42 6 42 6 43 8 C41.22739369 7.54857225 39.4569632 7.08859477 37.6875 6.625 C36.70136719 6.36976562 35.71523437 6.11453125 34.69921875 5.8515625 C32 5 32 5 29 3 C25.9957293 2.63072954 25.9957293 2.63072954 22.58203125 2.5859375 C21.32841797 2.54726562 20.07480469 2.50859375 18.78320312 2.46875 C17.47287109 2.4378125 16.16253906 2.406875 14.8125 2.375 C13.4771884 2.33680662 12.14190108 2.29775409 10.80664062 2.2578125 C7.53790112 2.16340847 4.26916936 2.07782983 1 2 C1 4.31 1 6.62 1 9 C0.67 9 0.34 9 0 9 C0 6.03 0 3.06 0 0 Z " fill="#1C2579" transform="translate(110,95)"/>
<path d="M0 0 C0 19.66666667 0 39.33333333 0 59 C2.64 59 5.28 59 8 59 C8.33 59.66 8.66 60.32 9 61 C7.35425434 61.02688151 5.70838587 61.04634123 4.0625 61.0625 C3.14597656 61.07410156 2.22945312 61.08570313 1.28515625 61.09765625 C-1 61 -1 61 -2 60 C-2.09381302 58.15881971 -2.11743954 56.31402359 -2.11352539 54.47045898 C-2.11344986 53.28931015 -2.11337433 52.10816132 -2.11329651 50.89122009 C-2.10813522 49.6058284 -2.10297394 48.32043671 -2.09765625 46.99609375 C-2.0962413 45.68794205 -2.09482635 44.37979034 -2.09336853 43.03199768 C-2.0895441 39.54837141 -2.07971446 36.06478661 -2.06866455 32.58117676 C-2.05844882 29.02873292 -2.05387056 25.47628241 -2.04882812 21.92382812 C-2.03809212 14.94920168 -2.0210166 7.97460283 -2 1 C-1.34 0.67 -0.68 0.34 0 0 Z " fill="#172570" transform="translate(683,116)"/>
<path d="M0 0 C0.66 0.33 1.32 0.66 2 1 C1.60167969 1.53367188 1.20335937 2.06734375 0.79296875 2.6171875 C-5.80992302 11.9030061 -8.25600808 20.73396392 -6.54296875 32.0078125 C-6.06769389 34.68166097 -5.55644273 37.3419923 -5 40 C-5.66 40 -6.32 40 -7 40 C-10.65690797 33.90515339 -10.62150647 25.92380009 -10 19 C-9.25790656 16.20051648 -8.15714517 13.64869467 -7 11 C-6.51850414 9.56327849 -6.03930818 8.12578401 -5.5625 6.6875 C-4.35916449 3.42953311 -3.12811436 1.7258562 0 0 Z " fill="#0D187B" transform="translate(234,49)"/>
<path d="M0 0 C1.485 0.99 1.485 0.99 3 2 C3.1875 4.625 3.1875 4.625 3 7 C3.66 7.33 4.32 7.66 5 8 C6.00953985 11.02861956 6.01252048 12.36084991 5.66015625 15.44921875 C5.56669922 16.29677734 5.47324219 17.14433594 5.37695312 18.01757812 C5.27318359 18.89865234 5.16941406 19.77972656 5.0625 20.6875 C4.91264648 22.02651367 4.91264648 22.02651367 4.75976562 23.39257812 C4.51234698 25.59578221 4.25887721 27.79811781 4 30 C4.66 30.33 5.32 30.66 6 31 C5.01 32.485 5.01 32.485 4 34 C3.01 34 2.02 34 1 34 C1 34.66 1 35.32 1 36 C0.34 36 -0.32 36 -1 36 C-0.7834375 35.29617187 -0.566875 34.59234375 -0.34375 33.8671875 C2.8799107 22.4351315 2.96842115 11.50263195 0 0 Z " fill="#1E2581" transform="translate(176,116)"/>
<path d="M0 0 C0.33 0 0.66 0 1 0 C1.02312851 7.54498233 1.04091769 15.08996101 1.05181217 22.63497066 C1.05703989 26.13808885 1.0641355 29.64118285 1.07543945 33.14428711 C1.08834206 37.16780841 1.09322912 41.19130414 1.09765625 45.21484375 C1.10281754 46.47836166 1.10797882 47.74187958 1.11329651 49.04368591 C1.11337204 50.204814 1.11344757 51.36594208 1.11352539 52.56225586 C1.115746 53.59039902 1.11796661 54.61854218 1.12025452 55.67784119 C1 58 1 58 0 59 C-1.68608966 59.07205511 -3.37500659 59.08386068 -5.0625 59.0625 C-5.98160156 59.05347656 -6.90070312 59.04445312 -7.84765625 59.03515625 C-8.55792969 59.02355469 -9.26820313 59.01195312 -10 59 C-10.33 58.34 -10.66 57.68 -11 57 C-5.555 56.505 -5.555 56.505 0 56 C0 37.52 0 19.04 0 0 Z " fill="#15216F" transform="translate(736,118)"/>
<path d="M0 0 C0.66 0.66 1.32 1.32 2 2 C3.32 2 4.64 2 6 2 C6.33 2.66 6.66 3.32 7 4 C7.66 4.66 8.32 5.32 9 6 C9.71408334 7.98356483 10.38617742 9.98315437 11 12 C10.34 12 9.68 12 9 12 C8.278125 11.071875 7.55625 10.14375 6.8125 9.1875 C3.56856501 5.18696209 0.00903455 3.44639524 -5.1328125 2.68359375 C-11.17658002 2.35718819 -15.71713961 4.20245691 -21 7 C-20.67 6.01 -20.34 5.02 -20 4 C-19.34 4 -18.68 4 -18 4 C-18 3.34 -18 2.68 -18 2 C-12.61481074 -0.69259463 -5.75585801 -1.91861934 0 0 Z " fill="#131F7D" transform="translate(644,125)"/>
<path d="M0 0 C2 0 2 0 3.75 1.6875 C5 4 5 4 4.375 6.6875 C3 9 3 9 0 10 C-0.33 10.99 -0.66 11.98 -1 13 C-1.99 12.67 -2.98 12.34 -4 12 C-4 11.01 -4 10.02 -4 9 C-4.66 8.67 -5.32 8.34 -6 8 C-5.04956626 6.66102417 -4.08940853 5.32894573 -3.125 4 C-2.59132813 3.2575 -2.05765625 2.515 -1.5078125 1.75 C-1.01023437 1.1725 -0.51265625 0.595 0 0 Z " fill="#182296" transform="translate(508,121)"/>
<path d="M0 0 C5.24697519 -0.04977792 10.4938101 -0.0858971 15.7409668 -0.10986328 C17.52256671 -0.11986411 19.30415044 -0.13346916 21.08569336 -0.15087891 C23.66003433 -0.17538957 26.23415657 -0.18654248 28.80859375 -0.1953125 C29.98572182 -0.21079636 29.98572182 -0.21079636 31.18663025 -0.22659302 C38.80370553 -0.22810681 45.79568636 1.00332509 52.5625 4.625 C53.40941406 5.07101563 54.25632812 5.51703125 55.12890625 5.9765625 C56.05509766 6.48316406 56.05509766 6.48316406 57 7 C52.9971577 8.33428077 51.47701935 7.22045881 47.625 5.625 C40.76996214 2.80419132 35.03176473 1.84585952 27.63671875 1.68359375 C26.44874443 1.6524221 26.44874443 1.6524221 25.23677063 1.62062073 C22.72043072 1.55552196 20.20399128 1.49642577 17.6875 1.4375 C15.97590139 1.394277 14.26431265 1.35066152 12.55273438 1.30664062 C8.36859016 1.19988153 4.18434638 1.09850365 0 1 C0 0.67 0 0.34 0 0 Z " fill="#141E77" transform="translate(315,88)"/>
<path d="M0 0 C7.875 0.875 7.875 0.875 9 2 C10.41327947 2.15620555 11.8335459 2.25056173 13.25390625 2.31640625 C14.10791016 2.35830078 14.96191406 2.40019531 15.84179688 2.44335938 C16.73962891 2.48267578 17.63746094 2.52199219 18.5625 2.5625 C19.46419922 2.60568359 20.36589844 2.64886719 21.29492188 2.69335938 C23.52978485 2.79978142 25.76476308 2.90179988 28 3 C28 2.34 28 1.68 28 1 C29.65 1 31.3 1 33 1 C28.16762499 5.42967709 21.53267392 6.43469294 15.15234375 6.2578125 C9.49771129 5.5804881 3.83071585 4.4257785 0 0 Z " fill="#131C81" transform="translate(415,172)"/>
<path d="M0 0 C4.01099133 2.97959356 7.12211428 5.93710251 10 10 C9.6328125 12.1875 9.6328125 12.1875 9 14 C-0.73004484 14.76681614 -0.73004484 14.76681614 -3.84375 12.88671875 C-5.1875 11.5 -5.1875 11.5 -7 9 C-4.625 8.875 -4.625 8.875 -2 9 C-1.34 9.66 -0.68 10.32 0 11 C3.58343976 11.16677282 3.58343976 11.16677282 7 11 C6.57847656 10.54109375 6.15695312 10.0821875 5.72265625 9.609375 C5.17480469 8.99578125 4.62695312 8.3821875 4.0625 7.75 C3.51722656 7.14671875 2.97195313 6.5434375 2.41015625 5.921875 C0.93787201 3.91532695 0.42470811 2.42997551 0 0 Z " fill="#101D7E" transform="translate(518,163)"/>
<path d="M0 0 C0.99 0 1.98 0 3 0 C3.36552803 1.41377782 3.71695495 2.83120576 4.0625 4.25 C4.25972656 5.03890625 4.45695313 5.8278125 4.66015625 6.640625 C5.02441892 9.16952905 4.94152444 10.63360166 4 13 C0.58781031 15.63669203 -2.84194634 17.79635289 -7 19 C-9.3125 18.625 -9.3125 18.625 -11 18 C-6.71146306 16.11304374 -2.47238653 14.41807378 2 13 C2 12.01 2 11.02 2 10 C1.21625 10.515625 0.4325 11.03125 -0.375 11.5625 C-1.24125 12.036875 -2.1075 12.51125 -3 13 C-3.66 12.67 -4.32 12.34 -5 12 C-4.01 10.35 -3.02 8.7 -2 7 C-0.68 7.33 0.64 7.66 2 8 C1.34 5.36 0.68 2.72 0 0 Z " fill="#14217B" transform="translate(907,158)"/>
<path d="M0 0 C-9.17297908 6.11531938 -20.43340623 5.13502678 -31 5.0625 C-32.25167969 5.05798828 -33.50335938 5.05347656 -34.79296875 5.04882812 C-37.86202941 5.03711415 -40.93098907 5.02071073 -44 5 C-44 4.67 -44 4.34 -44 4 C-32.98110461 3.2931751 -22.04312186 2.85340989 -11 3 C-10.67 2.34 -10.34 1.68 -10 1 C-6.28098293 -0.96281457 -4.02784093 -1.15081169 0 0 Z " fill="#0B2C7C" transform="translate(364,172)"/>
<path d="M0 0 C1.125 1.75 1.125 1.75 2 4 C1.125 6.25 1.125 6.25 0 8 C-0.66 8 -1.32 8 -2 8 C-2.2475 8.5775 -2.495 9.155 -2.75 9.75 C-5.24204331 14.23567796 -8.6974991 16.41849946 -13 19 C-14.36984198 20.29579647 -15.7151049 21.61992749 -17 23 C-18.32 22.34 -19.64 21.68 -21 21 C-19.948125 20.41605469 -19.948125 20.41605469 -18.875 19.8203125 C-10.49595897 14.87941059 -4.12968222 8.93737196 0 0 Z " fill="#19207C" transform="translate(174,153)"/>
<path d="M0 0 C1.4375 1.3125 1.4375 1.3125 3 3 C4.2375 3.495 4.2375 3.495 5.5 4 C8.01929235 5.00771694 9.24899945 5.97252568 11 8 C10.67 8.66 10.34 9.32 10 10 C8.8553125 9.0409375 8.8553125 9.0409375 7.6875 8.0625 C3.46977823 4.82564375 0.2174344 4.64627563 -5 5 C-8.29978359 6.39606229 -11.020603 8.01373534 -14 10 C-14.33 8.68 -14.66 7.36 -15 6 C-13.25197854 5.18325204 -11.50149811 4.37176549 -9.75 3.5625 C-8.77546875 3.11003906 -7.8009375 2.65757813 -6.796875 2.19140625 C-4.49641719 1.21146263 -2.46847449 0.36776369 0 0 Z " fill="#131F7B" transform="translate(781,123)"/>
<path d="M0 0 C0.66 0.66 1.32 1.32 2 2 C1.01 3.98 0.02 5.96 -1 8 C-0.01 9.485 -0.01 9.485 1 11 C0.01 11.495 0.01 11.495 -1 12 C-1.66 11.67 -2.32 11.34 -3 11 C-3.33 11.66 -3.66 12.32 -4 13 C-4.66 12.67 -5.32 12.34 -6 12 C-8.3400417 12.28241883 -10.67504723 12.61250787 -13 13 C-12.278125 12.443125 -11.55625 11.88625 -10.8125 11.3125 C-6.692424 7.92488196 -3.07422448 4.36863479 0 0 Z " fill="#141F84" transform="translate(373,149)"/>
<path d="M0 0 C0.33 0 0.66 0 1 0 C1.28212549 3.19742223 1.14631124 4.75005163 -0.5 7.5625 C-3.15404563 13.6446879 -2.66357888 20.25088749 -1.125 26.625 C-0.10790793 29.11631634 -0.10790793 29.11631634 2 31 C1.625 33.625 1.625 33.625 1 36 C-3.49504416 30.68767508 -4.38803063 25.05198789 -4.375 18.25 C-4.37628906 17.55132812 -4.37757812 16.85265625 -4.37890625 16.1328125 C-4.25788901 10.16996327 -2.83956994 5.27348704 0 0 Z " fill="#15207C" transform="translate(18,116)"/>
<path d="M0 0 C0.33 0 0.66 0 1 0 C1 1.98 1 3.96 1 6 C1.66 6 2.32 6 3 6 C3.12375 7.093125 3.2475 8.18625 3.375 9.3125 C3.75464801 13.07381802 3.75464801 13.07381802 6 16 C6 16.99 6 17.98 6 19 C7.65 19.33 9.3 19.66 11 20 C10.67 20.99 10.34 21.98 10 23 C9.01 23.33 8.02 23.66 7 24 C1.63082681 16.11018444 -0.38979189 9.5499012 0 0 Z " fill="#101E7D" transform="translate(400,142)"/>
<path d="M0 0 C0.33 0 0.66 0 1 0 C2.88992107 16.00740379 2.88992107 16.00740379 -1 23 C-2.484375 24.73828125 -2.484375 24.73828125 -4 26 C-4.66 26 -5.32 26 -6 26 C-5.731875 25.360625 -5.46375 24.72125 -5.1875 24.0625 C-4.795625 23.051875 -4.40375 22.04125 -4 21 C-3.74734375 20.36835937 -3.4946875 19.73671875 -3.234375 19.0859375 C-0.89927565 12.79032651 -0.32776365 6.6795972 0 0 Z " fill="#141D7C" transform="translate(44,68)"/>
<path d="M0 0 C0.60328125 0.42152344 1.2065625 0.84304687 1.828125 1.27734375 C3.02695312 2.09912109 3.02695312 2.09912109 4.25 2.9375 C5.03890625 3.48277344 5.8278125 4.02804688 6.640625 4.58984375 C11.1413841 7.27986699 15.82853265 7.55097876 21 7 C25.17842467 5.53755137 28.60801263 3.84926939 32 1 C31.875 3.3125 31.875 3.3125 31 6 C25.68294651 10.28318198 18.4794458 9.60548219 12 9 C7.94142923 7.82708777 4.41049029 6.53350708 1 4 C0.36328125 1.8984375 0.36328125 1.8984375 0 0 Z " fill="#101B73" transform="translate(415,158)"/>
<path d="M0 0 C0.556875 0.28875 1.11375 0.5775 1.6875 0.875 C2.8321875 1.431875 2.8321875 1.431875 4 2 C4.6909375 2.3403125 5.381875 2.680625 6.09375 3.03125 C10.00058263 4.33352754 13.71926486 4.4603099 17.8125 4.625 C18.60076172 4.66367188 19.38902344 4.70234375 20.20117188 4.7421875 C22.1337538 4.83588844 24.06684376 4.91900779 26 5 C21.76659461 7.82227026 17.65870185 8.32335563 12.6875 7.71875 C8.06847271 6.78246068 4.13110575 5.33036735 0 3 C0 2.01 0 1.02 0 0 Z " fill="#131D75" transform="translate(622,170)"/>
<path d="M0 0 C-0.33 1.32 -0.66 2.64 -1 4 C-1.33 3.01 -1.66 2.02 -2 1 C-4.97 1 -7.94 1 -11 1 C-11 1.66 -11 2.32 -11 3 C-11.70125 3.53625 -12.4025 4.0725 -13.125 4.625 C-16.23986149 7.19814645 -18.21399733 9.87927587 -20.47265625 13.1953125 C-22.15289036 15.18065305 -23.61957585 16.00687681 -26 17 C-24.59846255 15.11588189 -23.18980275 13.2391656 -21.76171875 11.375 C-20.58511825 9.78880686 -19.46170882 8.16178502 -18.39453125 6.5 C-14.28879328 0.41453564 -14.28879328 0.41453564 -10.4375 -0.82421875 C-6.55522102 -1.258718 -3.72501816 -1.24167272 0 0 Z " fill="#111F6F" transform="translate(522,117)"/>
<path d="M0 0 C2.57542521 3.86313781 2.38225295 7.1399568 2.375 11.625 C2.37628906 12.43372559 2.37757813 13.24245117 2.37890625 14.07568359 C2.26948202 20.24944863 1.18388187 24.62719935 -2 30 C-2.33 30 -2.66 30 -3 30 C-2.24242424 23.56060606 -2.24242424 23.56060606 -1 20.6875 C0.19828151 17.46711843 0.41746909 14.61176001 0.625 11.1875 C0.69976562 10.02605469 0.77453125 8.86460937 0.8515625 7.66796875 C0.90054688 6.78753906 0.94953125 5.90710938 1 5 C0.34 5 -0.32 5 -1 5 C-0.67 3.35 -0.34 1.7 0 0 Z " fill="#0D1877" transform="translate(254,122)"/>
<path d="M0 0 C6.25186212 4.26956437 9.83076899 10.1833404 13 17 C13 18.32 13 19.64 13 21 C12.34 21 11.68 21 11 21 C10.63648438 20.12988281 10.63648438 20.12988281 10.265625 19.2421875 C8.65736148 15.49369637 7.08337704 11.92089623 4.75 8.5625 C3 6 3 6 3 4 C1.68 3.34 0.36 2.68 -1 2 C-0.67 1.34 -0.34 0.68 0 0 Z " fill="#0E1775" transform="translate(242,225)"/>
<path d="M0 0 C5.4528666 5.23475194 10.35043077 11.04855139 15 17 C11.46791088 16.42555034 9.87106947 15.2055636 7.4375 12.625 C6.85871094 12.01914063 6.27992188 11.41328125 5.68359375 10.7890625 C5.12800781 10.19867188 4.57242188 9.60828125 4 9 C2.3215274 7.24317118 1.18015192 6.09007596 -1 5 C-0.67 3.35 -0.34 1.7 0 0 Z " fill="#121C78" transform="translate(229,89)"/>
<path d="M0 0 C0.33 0.66 0.66 1.32 1 2 C10.9 1.505 10.9 1.505 21 1 C15.9591382 4.78064635 12.20134416 5.17913099 6 5 C3.07550054 4.28146101 0.7426547 3.29370505 -2 2 C-1.34 1.34 -0.68 0.68 0 0 Z " fill="#0F176D" transform="translate(551,173)"/>
<path d="M0 0 C4.57511109 2.78235596 4.57511109 2.78235596 6.4921875 4.828125 C6.7421875 7.53515625 6.7421875 7.53515625 6.4921875 9.828125 C5.9559375 9.065 5.4196875 8.301875 4.8671875 7.515625 C1.36003115 3.54700071 -1.66541023 1.99561612 -6.9453125 1.515625 C-10.76340887 1.85054573 -13.87627879 2.64231808 -17.5078125 3.828125 C-17.5078125 3.168125 -17.5078125 2.508125 -17.5078125 1.828125 C-11.57363828 -1.13896211 -6.29865956 -2.94329886 0 0 Z " fill="#131F76" transform="translate(827.5078125,126.171875)"/>
<path d="M0 0 C0.66 0 1.32 0 2 0 C2.10957031 0.90621094 2.21914062 1.81242188 2.33203125 2.74609375 C3.25700022 9.8525627 4.45742463 16.29684675 7 23 C6.01 22.67 5.02 22.34 4 22 C0.81481124 14.84131489 -0.52719406 7.77611241 0 0 Z " fill="#0C167A" transform="translate(224,190)"/>
<path d="M0 0 C-1.50146159 5.04605129 -4.56677306 8.10979749 -8.125 11.8125 C-8.96998047 12.7087207 -8.96998047 12.7087207 -9.83203125 13.62304688 C-11.2149998 15.08805594 -12.60664785 16.54486312 -14 18 C-14.625 16.125 -14.625 16.125 -15 14 C-14.34 13.34 -13.68 12.68 -13 12 C-12.01 12 -11.02 12 -10 12 C-9.71125 11.4225 -9.4225 10.845 -9.125 10.25 C-8.75375 9.5075 -8.3825 8.765 -8 8 C-7.566875 7.01 -7.566875 7.01 -7.125 6 C-5.47588453 3.06823916 -3.57150897 0 0 0 Z " fill="#0E1A79" transform="translate(251,152)"/>
<path d="M0 0 C0.33 0.66 0.66 1.32 1 2 C-4.625 7 -4.625 7 -8 7 C-8.33 7.66 -8.66 8.32 -9 9 C-9 8.34 -9 7.68 -9 7 C-9.54140625 7.17402344 -10.0828125 7.34804687 -10.640625 7.52734375 C-13.48751809 8.09766505 -15.86718522 7.87137301 -18.75 7.5625 C-19.73484375 7.46066406 -20.7196875 7.35882813 -21.734375 7.25390625 C-22.48203125 7.17011719 -23.2296875 7.08632812 -24 7 C-24 6.34 -24 5.68 -24 5 C-23.154375 5.03480469 -22.30875 5.06960937 -21.4375 5.10546875 C-12.9829735 5.3072245 -7.15708112 4.77138742 0 0 Z " fill="#121B7B" transform="translate(906,160)"/>
<path d="M0 0 C0.66 0.165 1.32 0.33 2 0.5 C7.41936382 1.4032273 12.65148842 1.3371279 18 0 C17.01 1.98 16.02 3.96 15 6 C14.44828125 5.85691406 13.8965625 5.71382812 13.328125 5.56640625 C10.81285231 4.9544691 8.28957492 4.43873189 5.75 3.9375 C4.85796875 3.76089844 3.9659375 3.58429688 3.046875 3.40234375 C2.37140625 3.26957031 1.6959375 3.13679687 1 3 C0.67 2.01 0.34 1.02 0 0 Z " fill="#151F85" transform="translate(554,164)"/>
<path d="M0 0 C1.32 0.33 2.64 0.66 4 1 C-5.22551253 9.81548975 -5.22551253 9.81548975 -11 11 C-11.33 10.01 -11.66 9.02 -12 8 C-10.5437455 7.32880451 -9.08492133 6.66318193 -7.625 6 C-6.81289062 5.62875 -6.00078125 5.2575 -5.1640625 4.875 C-3 4 -3 4 -1 4 C-0.67 2.68 -0.34 1.36 0 0 Z " fill="#171D7C" transform="translate(156,156)"/>
<path d="M0 0 C0.66 0 1.32 0 2 0 C0.57699887 4.68904588 -2.15696334 7.51610475 -5.625 10.8125 C-6.140625 11.31458984 -6.65625 11.81667969 -7.1875 12.33398438 C-8.45159154 13.56296227 -9.72488806 14.78246001 -11 16 C-11.33 15.01 -11.66 14.02 -12 13 C-10.71034824 11.62437146 -9.37310707 10.29233607 -8 9 C-7.34 9 -6.68 9 -6 9 C-5.9175 8.21625 -5.835 7.4325 -5.75 6.625 C-5 4 -5 4 -3 2.8125 C-2.34 2.544375 -1.68 2.27625 -1 2 C-0.67 1.34 -0.34 0.68 0 0 Z " fill="#0F1978" transform="translate(248,33)"/>
<path d="M0 0 C0.99 0.495 0.99 0.495 2 1 C2 3.31 2 5.62 2 8 C2.66 8 3.32 8 4 8 C4.26554687 8.54269531 4.53109375 9.08539063 4.8046875 9.64453125 C5.15789063 10.35996094 5.51109375 11.07539063 5.875 11.8125 C6.22304688 12.52019531 6.57109375 13.22789063 6.9296875 13.95703125 C8.0656486 16.21246418 8.0656486 16.21246418 10 19 C9.67 19.99 9.34 20.98 9 22 C-0.60656089 8.28966552 -0.60656089 8.28966552 0 0 Z " fill="#151E7E" transform="translate(15,18)"/>
<path d="M0 0 C0.66 0.99 1.32 1.98 2 3 C1.31747273 6.27613089 0.51753022 8.40579863 -1.6875 10.9375 C-5.0642141 12.48896324 -7.46188088 11.86784054 -11 11 C-11.33 10.34 -11.66 9.68 -12 9 C-10.3603125 9.061875 -10.3603125 9.061875 -8.6875 9.125 C-4.91107771 9.32074666 -4.91107771 9.32074666 -2 7 C-0.7811879 3.44327821 -0.7811879 3.44327821 0 0 Z " fill="#101A78" transform="translate(737,96)"/>
<path d="M0 0 C2 2 2 2 2.125 5.125 C2.08375 6.07375 2.0425 7.0225 2 8 C3.32 7.67 4.64 7.34 6 7 C6 7.99 6 8.98 6 10 C7.65 10 9.3 10 11 10 C11 10.33 11 10.66 11 11 C8.03 11 5.06 11 2 11 C1.34 8.69 0.68 6.38 0 4 C-0.99 4.99 -1.98 5.98 -3 7 C-3.66 6.67 -4.32 6.34 -5 6 C-3.35 4.02 -1.7 2.04 0 0 Z " fill="#0F1D79" transform="translate(578,166)"/>
<path d="M0 0 C1.9375 0.8125 1.9375 0.8125 4 2 C4.33 2.99 4.66 3.98 5 5 C5.99 5 6.98 5 8 5 C9.84827434 8.6125362 11.55049545 12.2089881 13 16 C8.14396737 11.44746941 3.97880604 6.33140264 0 1 C0 0.67 0 0.34 0 0 Z " fill="#111B7B" transform="translate(497,154)"/>
<path d="M0 0 C0.99 0.33 1.98 0.66 3 1 C9.72789192 2.89900175 15.44671907 2.18442698 22 0 C22 0.66 22 1.32 22 2 C16.26609298 4.86695351 11.22915978 6.39370038 4.9375 4.3203125 C3.26289973 3.61130836 1.62652339 2.8132617 0 2 C0 1.34 0 0.68 0 0 Z " fill="#111C78" transform="translate(626,163)"/>
<path d="M0 0 C2.06723714 3.10085571 2.24497423 3.72931681 2.1953125 7.23046875 C2.18886719 8.03291016 2.18242187 8.83535156 2.17578125 9.66210938 C2.15902344 10.49548828 2.14226562 11.32886719 2.125 12.1875 C2.11597656 13.03248047 2.10695313 13.87746094 2.09765625 14.74804688 C2.07410703 16.83215243 2.03823647 18.91611217 2 21 C1.34 21 0.68 21 0 21 C-0.33 22.65 -0.66 24.3 -1 26 C-1.66 26 -2.32 26 -3 26 C-2.7834375 25.37996094 -2.566875 24.75992188 -2.34375 24.12109375 C0.24149413 15.89858118 0.31109668 8.53787561 0 0 Z " fill="#17227B" transform="translate(377,123)"/>
<path d="M0 0 C3.69227317 4.08787387 6.45393891 8.6978641 8 14 C7.60546875 16.27734375 7.60546875 16.27734375 7 18 C5.82333996 15.75474054 4.6585926 13.50455858 3.5 11.25 C3.16613281 10.61578125 2.83226562 9.9815625 2.48828125 9.328125 C0.72824467 5.87989007 0 3.95159931 0 0 Z " fill="#161C7E" transform="translate(159,108)"/>
<path d="M0 0 C0.66 0 1.32 0 2 0 C1.7834375 1.21236328 1.7834375 1.21236328 1.5625 2.44921875 C1.376875 3.51785156 1.19125 4.58648437 1 5.6875 C0.814375 6.74324219 0.62875 7.79898438 0.4375 8.88671875 C0.04931926 11.64904062 -0.08259976 14.21742043 0 17 C-2.32888606 13.50667091 -2.50146441 11.13072349 -3 7 C-3.31966139 5.33065717 -3.64731066 3.6626783 -4 2 C-3.01 2 -2.02 2 -1 2 C-0.67 1.34 -0.34 0.68 0 0 Z " fill="#141F7D" transform="translate(413,136)"/>
<path d="M0 0 C0.33 0 0.66 0 1 0 C1.53344824 9.18716418 0.44660395 16.46042325 -3 25 C-3.33 25 -3.66 25 -4 25 C-3.85769192 23.58297487 -3.71099254 22.1663904 -3.5625 20.75 C-3.48128906 19.96109375 -3.40007812 19.1721875 -3.31640625 18.359375 C-3.02365007 16.17635361 -2.57935581 14.1226818 -2 12 C-1.34 12 -0.68 12 0 12 C0 8.04 0 4.08 0 0 Z " fill="#151E79" transform="translate(167,126)"/>
<path d="M0 0 C2.475 0.495 2.475 0.495 5 1 C5 1.66 5 2.32 5 3 C6.65 3 8.3 3 10 3 C10.268125 3.639375 10.53625 4.27875 10.8125 4.9375 C11.88667752 7.33131686 11.88667752 7.33131686 15 8 C14.67 8.66 14.34 9.32 14 10 C10.67312232 8.45315734 7.75296022 6.54045021 4.75 4.4375 C3.85796875 3.81746094 2.9659375 3.19742188 2.046875 2.55859375 C1.37140625 2.04425781 0.6959375 1.52992187 0 1 C0 0.67 0 0.34 0 0 Z " fill="#192080" transform="translate(152,89)"/>
<path d="M0 0 C0.8353125 0.30744141 0.8353125 0.30744141 1.6875 0.62109375 C6.83617554 2.43878495 11.56276016 3.50570547 17 4 C17 4.33 17 4.66 17 5 C14.93757383 5.02717692 12.87504297 5.0464758 10.8125 5.0625 C9.66394531 5.07410156 8.51539063 5.08570313 7.33203125 5.09765625 C4.40699414 5.01192832 1.83683709 4.67849023 -1 4 C-0.67 2.68 -0.34 1.36 0 0 Z " fill="#0A1F75" transform="translate(871,146)"/>
<path d="M0 0 C0.33 0.66 0.66 1.32 1 2 C2.32 2 3.64 2 5 2 C5 2.66 5 3.32 5 4 C5.763125 4.185625 6.52625 4.37125 7.3125 4.5625 C10 6 10 6 11.9375 9.4375 C12.288125 10.613125 12.63875 11.78875 13 13 C12.01 14.485 12.01 14.485 11 16 C10.5875 14.9275 10.175 13.855 9.75 12.75 C7.66786958 7.9112462 4.87012794 5.08719769 0 3 C0 2.01 0 1.02 0 0 Z " fill="#111D7A" transform="translate(895,125)"/>
<path d="M0 0 C-1.40280696 2.80561393 -3.0509005 3.00680507 -5.9375 4.125 C-6.83339844 4.47820312 -7.72929688 4.83140625 -8.65234375 5.1953125 C-11 6 -11 6 -13 6 C-13.33 6.66 -13.66 7.32 -14 8 C-14 7.01 -14 6.02 -14 5 C-9.84135816 1.25300037 -5.64776616 -0.70597077 0 0 Z " fill="#131F7B" transform="translate(634,117)"/>
<path d="M0 0 C4.15983896 3.80328133 7.49856366 7.91197205 10 13 C10 13.99 10 14.98 10 16 C9.34 16 8.68 16 8 16 C7.01780373 14.23084525 6.03934641 12.45961431 5.0625 10.6875 C4.51722656 9.70136719 3.97195312 8.71523437 3.41015625 7.69921875 C2 5 2 5 1 2 C0.34 1.67 -0.32 1.34 -1 1 C-0.67 0.67 -0.34 0.34 0 0 Z " fill="#0F187A" transform="translate(244,106)"/>
<path d="M0 0 C4.01099133 2.97959356 7.12211428 5.93710251 10 10 C9.8125 12.375 9.8125 12.375 9 14 C6.69 14 4.38 14 2 14 C2 13.67 2 13.34 2 13 C3.98 13 5.96 13 8 13 C6.49168562 10.28503411 5.11333744 8.11000399 2.875 5.9375 C0.90267413 3.89942993 0.39451798 2.76162584 0 0 Z " fill="#0E1C6F" transform="translate(518,163)"/>
<path d="M0 0 C2.97 0.495 2.97 0.495 6 1 C5.608125 1.53625 5.21625 2.0725 4.8125 2.625 C3.64661496 5.17119399 3.64661496 5.17119399 5.375 8.25 C5.91125 9.1575 6.4475 10.065 7 11 C5.68 11 4.36 11 3 11 C1.47657021 8.06195683 0.07229283 5.13439441 -1 2 C-0.67 1.34 -0.34 0.68 0 0 Z M2 2 C3 4 3 4 3 4 Z " fill="#0F196D" transform="translate(869,150)"/>
<path d="M0 0 C1.65 0 3.3 0 5 0 C4.55530671 5.03985731 2.28656638 7.37634988 -1 11 C-1.33 10.34 -1.66 9.68 -2 9 C-1 6.66666667 0 4.33333333 1 2 C0.67 1.34 0.34 0.68 0 0 Z " fill="#121E85" transform="translate(515,118)"/>
<path d="M0 0 C0.66 0.33 1.32 0.66 2 1 C1.29875 1.66 0.5975 2.32 -0.125 3 C-2.99868933 5.84103377 -5.26753099 9.01709861 -7.5703125 12.328125 C-9 14 -9 14 -12 15 C-10.57641609 10.45925821 -8.27867927 7.96026853 -4.875 4.6875 C-3.96492188 3.80449219 -3.05484375 2.92148438 -2.1171875 2.01171875 C-1.41851562 1.34785156 -0.71984375 0.68398437 0 0 Z " fill="#101C79" transform="translate(31,101)"/>
<path d="M0 0 C1.65 0 3.3 0 5 0 C-0.61968362 5.15137665 -7.80088376 5.25711129 -15 5 C-15 4.67 -15 4.34 -15 4 C-9.87080814 1.89571616 -5.4389165 1.78244334 0 2 C0 1.34 0 0.68 0 0 Z " fill="#0D1679" transform="translate(443,173)"/>
<path d="M0 0 C0.33 0.66 0.66 1.32 1 2 C0.07421875 4.4609375 0.07421875 4.4609375 -1.3125 7.375 C-1.76238281 8.33148438 -2.21226563 9.28796875 -2.67578125 10.2734375 C-3.76868585 12.52372485 -4.87278739 14.7667431 -6 17 C-7.23306978 14.07323092 -7.01493635 13.03773655 -5.8203125 10.01953125 C-5.26085937 8.96121094 -4.70140625 7.90289062 -4.125 6.8125 C-3.57070313 5.74644531 -3.01640625 4.68039063 -2.4453125 3.58203125 C-1 1 -1 1 0 0 Z " fill="#141E78" transform="translate(22,231)"/>
<path d="M0 0 C0.66 0.33 1.32 0.66 2 1 C-1.9700218 5.21814817 -6.30840284 8.61227103 -11 12 C-11 9 -11 9 -9.8125 7.5 C-7.67638759 5.73218283 -5.37571581 4.42542949 -3 3 C-1.24850835 1.41754725 -1.24850835 1.41754725 0 0 Z " fill="#0F1A74" transform="translate(378,160)"/>
<path d="M0 0 C3.91939465 3.80411834 7.49102731 7.81576108 11 12 C6.91944849 11.49452628 5.33727705 9.49911118 2.75 6.4375 C2.04359375 5.61121094 1.3371875 4.78492188 0.609375 3.93359375 C0.07828125 3.29550781 -0.4528125 2.65742188 -1 2 C-0.67 1.34 -0.34 0.68 0 0 Z " fill="#101A7B" transform="translate(231,213)"/>
<path d="M0 0 C7.26 0.33 14.52 0.66 22 1 C22 1.33 22 1.66 22 2 C11.11 2.495 11.11 2.495 0 3 C0 2.01 0 1.02 0 0 Z " fill="#101D7F" transform="translate(316,174)"/>
<path d="M0 0 C-0.83144531 0.39832031 -0.83144531 0.39832031 -1.6796875 0.8046875 C-2.76636719 1.33449219 -2.76636719 1.33449219 -3.875 1.875 C-4.59429688 2.22304687 -5.31359375 2.57109375 -6.0546875 2.9296875 C-8.15135019 3.96557543 -8.15135019 3.96557543 -10 6 C-12.125 5.625 -12.125 5.625 -14 5 C-9.43149396 1.08413768 -6.03922093 -1.77473934 0 0 Z " fill="#111E7D" transform="translate(780,117)"/>
<path d="M0 0 C2.475 0.99 2.475 0.99 5 2 C5 2.99 5 3.98 5 5 C0.25 6.125 0.25 6.125 -2 5 C-1.34 3.35 -0.68 1.7 0 0 Z " fill="#19229A" transform="translate(499,132)"/>
<path d="M0 0 C1.60785777 0.59427388 3.21117709 1.20083588 4.8125 1.8125 C6.15248047 2.31716797 6.15248047 2.31716797 7.51953125 2.83203125 C9.91924072 3.96197319 11.28423353 5.01062293 13 7 C11.22739369 6.54857225 9.4569632 6.08859477 7.6875 5.625 C6.20830078 5.24214844 6.20830078 5.24214844 4.69921875 4.8515625 C2 4 2 4 -1 2 C-0.67 1.34 -0.34 0.68 0 0 Z " fill="#151C6D" transform="translate(140,96)"/>
<path d="M0 0 C1.485 0.99 1.485 0.99 3 2 C3 2.66 3 3.32 3 4 C3.66 4 4.32 4 5 4 C5.33 7.63 5.66 11.26 6 15 C5.34 13.68 4.68 12.36 4 11 C3.64679687 10.32839844 3.29359375 9.65679687 2.9296875 8.96484375 C2.58164062 8.29582031 2.23359375 7.62679687 1.875 6.9375 C1.34519531 5.93009766 1.34519531 5.93009766 0.8046875 4.90234375 C0 3 0 3 0 0 Z " fill="#151E75" transform="translate(38,52)"/>
<path d="M0 0 C0.66 0 1.32 0 2 0 C1.34 5.61 0.68 11.22 0 17 C-0.33 17 -0.66 17 -1 17 C-1.22185844 14.73044814 -1.42705515 12.45926245 -1.625 10.1875 C-1.74101563 8.92292969 -1.85703125 7.65835938 -1.9765625 6.35546875 C-2 3 -2 3 0 0 Z " fill="#13207B" transform="translate(618,136)"/>
<path d="M0 0 C2.64 0.33 5.28 0.66 8 1 C8.33 1.99 8.66 2.98 9 4 C8.01 4.33 7.02 4.66 6 5 C5.67 5.66 5.34 6.32 5 7 C3.35 4.69 1.7 2.38 0 0 Z " fill="#1A2186" transform="translate(166,100)"/>
<path d="M0 0 C0.33 0 0.66 0 1 0 C1 4.95 1 9.9 1 15 C-0.32 14.34 -1.64 13.68 -3 13 C-2.67 12.34 -2.34 11.68 -2 11 C-1.34 11 -0.68 11 0 11 C0 7.37 0 3.74 0 0 Z M-5 14 C-3 15 -3 15 -3 15 Z " fill="#111B8E" transform="translate(254,127)"/>
<path d="M0 0 C3.33511388 2.9901021 5.21521119 5.89498574 7 10 C7 10.66 7 11.32 7 12 C4 11 4 11 2.83203125 9.00390625 C2.49558594 8.19824219 2.15914063 7.39257812 1.8125 6.5625 C1.46832031 5.75941406 1.12414062 4.95632812 0.76953125 4.12890625 C0 2 0 2 0 0 Z " fill="#131D78" transform="translate(381,105)"/>
<path d="M0 0 C5.06562383 -0.25328119 9.15758367 0.66416101 14 2 C14 2.33 14 2.66 14 3 C4.58997722 3.18451025 4.58997722 3.18451025 0 2 C0 1.34 0 0.68 0 0 Z " fill="#091074" transform="translate(881,175)"/>
<path d="M0 0 C0.99 0 1.98 0 3 0 C1.55746343 3.36591866 -0.33264727 5.51047079 -3 8 C-3.99 7.67 -4.98 7.34 -6 7 C-4 5 -2 3 0 1 C0 0.67 0 0.34 0 0 Z " fill="#0E166F" transform="translate(454,164)"/>
<path d="M0 0 C4 5 4 5 8 10 C3.74780225 9.52753358 1.62685275 7.22727623 -1 4 C-0.8125 1.6875 -0.8125 1.6875 0 0 Z " fill="#101B7B" transform="translate(618,153)"/>
<path d="M0 0 C0.33 1.32 0.66 2.64 1 4 C3.64 4.33 6.28 4.66 9 5 C9 5.33 9 5.66 9 6 C5.04 6 1.08 6 -3 6 C-1 1 -1 1 0 0 Z " fill="#000547" transform="translate(875,133)"/>
<path d="M0 0 C3.68006822 3.38168431 5.9785845 6.42521756 8 11 C3.44984107 9.48328036 1.49942736 5.83108947 -1 2 C-0.67 1.34 -0.34 0.68 0 0 Z " fill="#0C1673" transform="translate(489,142)"/>
<path d="M0 0 C2.93200474 2.85276137 5.64315404 5.65079784 8 9 C7.67 9.66 7.34 10.32 7 11 C4 9 4 9 3.3125 6.375 C3.209375 5.59125 3.10625 4.8075 3 4 C2.01 3.67 1.02 3.34 0 3 C0 2.01 0 1.02 0 0 Z " fill="#131C71" transform="translate(452,123)"/>
<path d="M0 0 C-3.60957611 3.2910841 -6.12637153 4.54663921 -11 5 C-7.17906575 1.05170128 -5.52310605 -0.1453449 0 0 Z " fill="#131E78" transform="translate(425,117)"/>
<path d="M0 0 C5.98993047 -0.3152595 9.63560356 0.31780178 15 3 C15 3.33 15 3.66 15 4 C8.125 3.125 8.125 3.125 7 2 C4.67182036 1.63239269 2.3381615 1.29758419 0 1 C0 0.67 0 0.34 0 0 Z " fill="#142071" transform="translate(432,116)"/>
<path d="M0 0 C0.99 0.33 1.98 0.66 3 1 C2 4 2 4 -0.0625 5.1875 C-0.701875 5.455625 -1.34125 5.72375 -2 6 C-2.33 4.68 -2.66 3.36 -3 2 C-2.01 1.34 -1.02 0.68 0 0 Z " fill="#18219A" transform="translate(373,99)"/>
<path d="M0 0 C1.41687119 4.25061356 0.19320039 6.71851625 -1 11 C-1.66 10.67 -2.32 10.34 -3 10 C-3.36923077 4.58461538 -3.36923077 4.58461538 -1.5 1.625 C-1.005 1.08875 -0.51 0.5525 0 0 Z " fill="#0D1878" transform="translate(228,179)"/>
<path d="M0 0 C0.66 0.33 1.32 0.66 2 1 C1.02471263 2.33617352 0.04466681 3.6688751 -0.9375 5 C-1.48277344 5.7425 -2.02804688 6.485 -2.58984375 7.25 C-3.28787109 8.11625 -3.28787109 8.11625 -4 9 C-4.33 9 -4.66 9 -5 9 C-5.3125 6.75 -5.3125 6.75 -5 4 C-2.5 1.6875 -2.5 1.6875 0 0 Z " fill="#0F1A7A" transform="translate(234,170)"/>
<path d="M0 0 C0.66 0 1.32 0 2 0 C1.34 2.64 0.68 5.28 0 8 C-0.33 7.34 -0.66 6.68 -1 6 C-3.02463255 5.34786708 -3.02463255 5.34786708 -5 5 C-4.34 5 -3.68 5 -3 5 C-2.5359375 4.0409375 -2.5359375 4.0409375 -2.0625 3.0625 C-1 1 -1 1 0 0 Z " fill="#111B79" transform="translate(696,121)"/>
<path d="M0 0 C0.66 0.33 1.32 0.66 2 1 C1.01 1.33 0.02 1.66 -1 2 C-1.309375 2.639375 -1.61875 3.27875 -1.9375 3.9375 C-3.2342338 6.45468915 -4.4221737 6.96886948 -7 8 C-5.50902342 4.2047869 -3.24299151 2.38957269 0 0 Z " fill="#101A77" transform="translate(809,118)"/>
<path d="M0 0 C0 0.66 0 1.32 0 2 C-4.95 3.485 -4.95 3.485 -10 5 C-5.16129032 0 -5.16129032 0 0 0 Z " fill="#131E7B" transform="translate(881,117)"/>
<path d="M0 0 C0.66 0.33 1.32 0.66 2 1 C0.02 3.31 -1.96 5.62 -4 8 C-4.66 7.34 -5.32 6.68 -6 6 C-4 4 -2 2 0 0 Z " fill="#121B7A" transform="translate(511,129)"/>
<path d="M0 0 C4.29 0.66 8.58 1.32 13 2 C13 2.33 13 2.66 13 3 C9.04 3 5.08 3 1 3 C0.67 2.01 0.34 1.02 0 0 Z " fill="#111979" transform="translate(554,164)"/>
<path d="M0 0 C2.31 0 4.62 0 7 0 C5.73134318 2.53731364 4.50290879 2.78646846 2 4 C1.34 4.66 0.68 5.32 0 6 C0 4.02 0 2.04 0 0 Z " fill="#151F7F" transform="translate(725,117)"/>
<path d="M0 0 C1.32 0.33 2.64 0.66 4 1 C4 1.66 4 2.32 4 3 C4.66 3 5.32 3 6 3 C6 3.66 6 4.32 6 5 C6.66 5 7.32 5 8 5 C7.67 5.99 7.34 6.98 7 8 C5.83035398 6.8572081 4.66435444 5.71068285 3.5 4.5625 C2.8503125 3.92441406 2.200625 3.28632812 1.53125 2.62890625 C0 1 0 1 0 0 Z " fill="#172079" transform="translate(27,42)"/>
<path d="M0 0 C1.65 0 3.3 0 5 0 C5 0.66 5 1.32 5 2 C6.32 2.33 7.64 2.66 9 3 C6.36 3 3.72 3 1 3 C0.67 2.01 0.34 1.02 0 0 Z " fill="#0E1D7F" transform="translate(608,203)"/>
<path d="M0 0 C0.33 0.99 0.66 1.98 1 3 C2.85744207 3.61067144 2.85744207 3.61067144 5 4 C6.3479743 4.63654342 7.68596724 5.29605388 9 6 C5.625 6.125 5.625 6.125 2 6 C1.34 5.34 0.68 4.68 0 4 C0 2.68 0 1.36 0 0 Z " fill="#0E1D75" transform="translate(834,171)"/>
<path d="M0 0 C1.0326802 2.78823655 1.04509293 3.8677274 0.0625 6.75 C-0.288125 7.4925 -0.63875 8.235 -1 9 C-2.32 8.67 -3.64 8.34 -5 8 C-4.360625 7.236875 -3.72125 6.47375 -3.0625 5.6875 C-0.85767219 3.11753287 -0.85767219 3.11753287 0 0 Z " fill="#162076" transform="translate(577,155)"/>
<path d="M0 0 C5.53846154 0.61538462 5.53846154 0.61538462 7.875 2.5625 C8.431875 3.2740625 8.431875 3.2740625 9 4 C5.37471432 4.20140476 3.13498292 3.85776765 0 2 C0 1.34 0 0.68 0 0 Z " fill="#141D73" transform="translate(896,117)"/>
<path d="M0 0 C1.32 0 2.64 0 4 0 C4 0.99 4 1.98 4 3 C4.99 3.33 5.98 3.66 7 4 C7 4.66 7 5.32 7 6 C3.63279613 4.60667426 2.0140476 3.0210714 0 0 Z " fill="#121D7A" transform="translate(408,166)"/>
<path d="M0 0 C0.6875 1.6875 0.6875 1.6875 1 4 C-0.4375 6.75 -0.4375 6.75 -2 9 C-2.6875 7.3125 -2.6875 7.3125 -3 5 C-1.5625 2.25 -1.5625 2.25 0 0 Z " fill="#121C82" transform="translate(386,147)"/>
<path d="M0 0 C0.66 0 1.32 0 2 0 C1 2 0 4 -1 6 C-1.99 6 -2.98 6 -4 6 C-2.84826645 3.53199953 -1.95216435 1.95216435 0 0 Z " fill="#0D1B79" transform="translate(869,122)"/>
<path d="M0 0 C1.65 0 3.3 0 5 0 C5 0.33 5 0.66 5 1 C3.35 1 1.7 1 0 1 C0 0.67 0 0.34 0 0 Z " fill="#000000" transform="translate(895,138)"/>
<path d="M0 0 C0.66 0.66 1.32 1.32 2 2 C1.01 2.495 1.01 2.495 0 3 C0 2.01 0 1.02 0 0 Z " fill="#000040" transform="translate(489,137)"/>
<path d="M0 0 C1 4 1 4 1 4 Z " fill="#000000" transform="translate(738,119)"/>
<path d="M0 0 C0.66 0.66 1.32 1.32 2 2 C1.01 2.495 1.01 2.495 0 3 C0 2.01 0 1.02 0 0 Z " fill="#000035" transform="translate(619,119)"/>
<path d="M0 0 C0.33 0.66 0.66 1.32 1 2 C0.34 1.67 -0.32 1.34 -1 1 C-0.67 0.67 -0.34 0.34 0 0 Z " fill="#000063" transform="translate(577,171)"/>
<path d="" fill="#000000" transform="translate(0,0)"/>
<path d="" fill="#000063" transform="translate(0,0)"/>
<path d="" fill="#000000" transform="translate(0,0)"/>
<path d="M0 0 C2 1 2 1 2 1 Z " fill="#002A6A" transform="translate(903,138)"/>
<path d="" fill="#00006A" transform="translate(0,0)"/>
<path d="" fill="#000040" transform="translate(0,0)"/>
<path d="" fill="#000000" transform="translate(0,0)"/>
<path d="" fill="#000000" transform="translate(0,0)"/>
<path d="" fill="#000000" transform="translate(0,0)"/>
<path d="" fill="#000000" transform="translate(0,0)"/>
<path d="" fill="#000000" transform="translate(0,0)"/>
<path d="" fill="#000000" transform="translate(0,0)"/>
<path d="" fill="#000000" transform="translate(0,0)"/>
<path d="" fill="#000000" transform="translate(0,0)"/>
<path d="" fill="#000000" transform="translate(0,0)"/>
</svg>
