<?xml version="1.0" encoding="UTF-8"?>
<svg version="1.1" xmlns="http://www.w3.org/2000/svg" width="512" height="512">
<path d="M0 0 C1.62581759 -0.00461302 3.251631 -0.01096863 4.87743574 -0.01890898 C9.3301298 -0.03557054 13.78247989 -0.0273704 18.23517501 -0.0149641 C23.04304741 -0.00590285 27.85086122 -0.01988873 32.65872192 -0.03088379 C42.07170615 -0.04866251 51.48456274 -0.04483177 60.89755195 -0.03323323 C68.54886448 -0.02419611 76.20014126 -0.02297612 83.8514576 -0.02732849 C84.94084329 -0.02794142 86.03022898 -0.02855436 87.15262635 -0.02918586 C89.36577325 -0.03046478 91.57892013 -0.03176163 93.792067 -0.03307623 C114.54109802 -0.04448027 135.29005834 -0.03137134 156.03907777 -0.00987476 C173.83684267 0.00799353 191.63450321 0.00489397 209.43226624 -0.0135498 C230.10599519 -0.03496393 250.77966217 -0.043379 271.45340067 -0.03110075 C273.65866728 -0.02982657 275.86393389 -0.02856909 278.06920052 -0.02732849 C279.69669667 -0.02640284 279.69669667 -0.02640284 281.35707153 -0.02545848 C288.99733955 -0.02200703 296.6375682 -0.02782958 304.27783012 -0.0372467 C313.59151672 -0.04847418 322.9050685 -0.04541093 332.21873968 -0.02412373 C336.96936663 -0.01362307 341.71976893 -0.00947471 346.47039413 -0.02272034 C350.82229323 -0.03467056 355.1737602 -0.02803847 359.52562029 -0.00681013 C361.09684691 -0.00235516 362.6681103 -0.00458543 364.23931312 -0.01431328 C375.39560284 -0.07806773 385.0246414 0.89289251 393.49598694 8.80480957 C399.3222519 15.28504305 402.27354991 22.29146677 402.28450584 31.04471016 C402.29095474 32.35001281 402.29740363 33.65531546 402.30404794 35.00017273 C402.30110592 36.4418168 402.2979705 37.88346049 402.29466248 39.32510376 C402.29839987 40.86185933 402.30300175 42.398613 402.30839312 43.93536365 C402.32062677 48.15549239 402.32036225 52.37554187 402.31800437 56.59568429 C402.31759631 61.14785754 402.32863403 65.70000535 402.33811951 70.25216675 C402.35473074 79.16820558 402.36022904 88.08421797 402.36134426 97.00027098 C402.36229435 104.24456798 402.36640266 111.48885624 402.37274551 118.73315048 C402.39035558 139.26300393 402.39958435 159.79283647 402.39808457 180.32269754 C402.39800465 181.42941658 402.39792474 182.53613562 402.39784241 183.6763916 C402.39776065 184.78445805 402.39767888 185.89252449 402.39759465 187.03416871 C402.39678104 205.0080645 402.41593804 222.98187663 402.44411914 240.95574822 C402.47281376 259.40228589 402.48666144 277.84878271 402.48493159 296.29534328 C402.48426667 306.65543901 402.48980395 317.01544695 402.51128769 327.37552261 C402.52945416 336.19244428 402.53388403 345.00923834 402.52026884 353.82617058 C402.51371715 358.32693941 402.51370102 362.82746308 402.53097534 367.32820892 C402.54661372 371.4449039 402.54393802 375.56115745 402.52640708 379.67784105 C402.52331675 381.1703225 402.52704539 382.66283615 402.53812723 384.15527965 C402.55215513 386.17775626 402.53932307 388.20036661 402.52501488 390.22284126 C402.52566698 391.91075584 402.52566698 391.91075584 402.52633226 393.6327697 C401.90829037 397.19315638 400.93220568 398.40381275 398.02723694 400.50793457 C396.70723694 400.50793457 395.38723694 400.50793457 394.02723694 400.50793457 C394.0481842 401.16277832 394.06913147 401.81762207 394.0907135 402.49230957 C394.17454077 405.49735785 394.22610589 408.50215921 394.27723694 411.50793457 C394.31075256 412.53789551 394.34426819 413.56785645 394.37879944 414.62902832 C394.46580599 421.45904271 393.57681098 425.6552018 390.02723694 431.50793457 C388.69141219 433.61623674 388.69141219 433.61623674 389.88832092 436.51721191 C390.33991863 437.79636596 390.80239731 439.07170962 391.27333069 440.34387207 C391.52212479 441.01963287 391.77091888 441.69539368 392.0272522 442.39163208 C392.55999551 443.82404783 393.0974858 445.25470553 393.63929749 446.68371582 C394.45563302 448.85867901 395.23255613 451.04526662 396.00965881 453.23449707 C398.80507231 461.66545366 398.80507231 461.66545366 405.23036194 467.27746582 C407.10981506 467.88654785 407.10981506 467.88654785 409.02723694 468.50793457 C414.17230061 472.84434383 417.52447912 478.56407877 418.37879944 485.26574707 C418.74222674 492.74469836 417.38178903 498.37445518 413.02723694 504.50793457 C408.88242206 509.0587336 404.49460552 512.1905436 398.21667767 512.76520348 C397.18452035 512.76855516 396.15236303 512.77190685 395.08892822 512.77536011 C393.8988063 512.78389008 392.70868439 512.79242004 391.48249817 512.8012085 C390.18523804 512.80030212 388.88797791 512.79939575 387.55140686 512.79846191 C386.16464883 512.80444955 384.77789414 512.81125564 383.3911438 512.81881714 C379.6306742 512.83646168 375.87029566 512.84117189 372.10978866 512.84244871 C369.75802083 512.84387188 367.40627603 512.84814464 365.05451393 512.85344315 C356.84317687 512.87193913 348.63190468 512.8801144 340.42054749 512.87854004 C332.77754335 512.87733913 325.13482182 512.89843252 317.49188918 512.93002737 C310.92100362 512.95621834 304.35021019 512.96690614 297.77927285 512.96562922 C293.85877149 512.96512036 289.9385213 512.9707609 286.01807213 512.99198532 C282.32843631 513.01141524 278.63929001 513.01146024 274.94963646 512.99695206 C272.95925386 512.99387939 270.96887097 513.01050758 268.9785614 513.02783203 C260.92780393 512.97148407 255.36123161 512.1607513 249.03895569 506.83215332 C243.61696424 500.13063587 241.36673657 494.27107772 241.61708069 485.57434082 C242.62714062 478.02294042 246.34265399 472.40297356 252.18348694 467.66418457 C254.02723694 466.50793457 254.02723694 466.50793457 256.43544006 465.91223145 C260.20714817 463.86863075 260.99257516 460.73603054 262.33973694 456.88293457 C262.73515686 455.8233252 262.73515686 455.8233252 263.13856506 454.74230957 C263.78470993 453.00359247 264.40822137 451.256494 265.02723694 449.50793457 C264.45760636 449.50733748 263.88797579 449.50674039 263.30108368 449.50612521 C229.5228249 449.47021327 195.74466924 449.4135467 161.96649498 449.33001362 C157.90861766 449.31999644 153.85073994 449.31015226 149.79286194 449.30041504 C148.58111169 449.29750298 148.58111169 449.29750298 147.34488164 449.29453209 C134.27309163 449.26353051 121.20131917 449.24653659 108.12949933 449.23474035 C94.71163381 449.22231924 81.29386021 449.19479618 67.87605274 449.1533215 C59.59984291 449.12821354 51.32378559 449.11481531 43.04753713 449.116505 C37.36836534 449.11653481 31.68934863 449.10186489 26.01023729 449.07577029 C22.73605229 449.06115583 19.46224809 449.05507673 16.18802834 449.06213188 C12.63101047 449.06877482 9.07491514 449.05084199 5.51799011 449.0269165 C3.98001225 449.03855713 3.98001225 449.03855713 2.41096413 449.05043292 C-6.70392913 448.94218269 -14.68064309 446.52545699 -21.44151306 440.21105957 C-27.12255155 433.89235349 -30.20064542 426.93253447 -30.26329041 418.38244629 C-30.27605011 417.19456512 -30.28880981 416.00668396 -30.30195618 414.7828064 C-30.30418182 413.51389557 -30.30640747 412.24498474 -30.30870056 410.93762207 C-30.31535736 409.62383575 -30.32201416 408.31004944 -30.32887268 406.95645142 C-30.340807 404.18435372 -30.3445571 401.41238034 -30.34336853 398.64025879 C-30.34316466 395.09140231 -30.37055297 391.54334048 -30.40491295 387.99467278 C-30.43249947 384.6006433 -30.4313295 381.20676226 -30.43370056 377.81262207 C-30.44807159 376.53966278 -30.46244263 375.26670349 -30.47724915 373.95516968 C-30.47109589 372.77359283 -30.46494263 371.59201599 -30.45860291 370.37463379 C-30.46145294 369.33571991 -30.46430298 368.29680603 -30.46723938 367.22640991 C-29.83905037 363.77282422 -28.7772092 362.57160253 -25.97276306 360.50793457 C-24.65276306 360.50793457 -23.33276306 360.50793457 -21.97276306 360.50793457 C-21.97276306 355.22793457 -21.97276306 349.94793457 -21.97276306 344.50793457 C-23.95276306 344.17793457 -25.93276306 343.84793457 -27.97276306 343.50793457 C-31.07983899 338.84732068 -30.34134771 334.05234945 -30.34776306 328.57043457 C-30.37225525 327.47279785 -30.39674744 326.37516113 -30.42198181 325.2442627 C-30.42778259 323.65968262 -30.42778259 323.65968262 -30.43370056 322.04309082 C-30.44191833 321.07766357 -30.45013611 320.11223633 -30.45860291 319.11755371 C-29.82912595 315.7364084 -28.70678815 314.54387873 -25.97276306 312.50793457 C-24.65276306 312.50793457 -23.33276306 312.50793457 -21.97276306 312.50793457 C-21.97276306 307.22793457 -21.97276306 301.94793457 -21.97276306 296.50793457 C-23.95276306 296.17793457 -25.93276306 295.84793457 -27.97276306 295.50793457 C-30.21439585 292.14548539 -30.22073332 291.06427717 -30.21327209 287.13594055 C-30.21602142 286.02114822 -30.21877075 284.9063559 -30.22160339 283.75778198 C-30.21441284 282.53427032 -30.20722229 281.31075867 -30.19981384 280.0501709 C-30.2001059 278.76226151 -30.20039795 277.47435211 -30.20069885 276.14741516 C-30.20127333 272.61459197 -30.18950377 269.08190423 -30.17555094 265.54911256 C-30.16305933 261.85755234 -30.16187432 258.16598911 -30.15950012 254.47441101 C-30.15328073 247.48336898 -30.13686372 240.49238941 -30.11680114 233.5013749 C-30.09445641 225.542578 -30.0834523 217.58377813 -30.07341027 209.62495768 C-30.05249788 193.25258007 -30.017313 176.88026529 -29.97276306 160.50793457 C-31.1070575 160.52888184 -32.24135193 160.5498291 -33.41001892 160.57141113 C-37.65354079 160.6442896 -41.89700832 160.68990677 -46.14097595 160.72766113 C-47.97114899 160.74766831 -49.80125898 160.77488308 -51.63121033 160.80969238 C-54.27516819 160.8586946 -56.91827471 160.88101218 -59.56260681 160.89855957 C-60.77254555 160.92952728 -60.77254555 160.92952728 -62.00692749 160.96112061 C-71.22084716 160.96468892 -79.35220945 156.82185202 -85.97276306 150.50793457 C-93.3035652 141.45415011 -95.29382111 132.16876564 -94.31797791 120.71887207 C-93.40833442 114.89303659 -90.34518026 109.98140432 -87.40684509 104.97766113 C-85.75121837 102.12639795 -84.17147117 99.23902066 -82.59385681 96.34387207 C-75.99033799 84.26315194 -69.16595839 72.31984992 -62.18663025 60.45202637 C-57.8892081 53.1297492 -53.72436329 45.74012377 -49.59776306 38.32043457 C-41.96843314 24.64003996 -41.96843314 24.64003996 -38.41026306 18.75793457 C-37.852099 17.83496582 -37.29393494 16.91199707 -36.71885681 15.96105957 C-27.08161714 2.42149243 -15.68363888 -0.09695267 0 0 Z " fill="#F4F6FE" transform="translate(93.97276306152344,-0.5079345703125)"/>
<path d="M0 0 C1.62581759 -0.00461302 3.251631 -0.01096863 4.87743574 -0.01890898 C9.3301298 -0.03557054 13.78247989 -0.0273704 18.23517501 -0.0149641 C23.04304741 -0.00590285 27.85086122 -0.01988873 32.65872192 -0.03088379 C42.07170615 -0.04866251 51.48456274 -0.04483177 60.89755195 -0.03323323 C68.54886448 -0.02419611 76.20014126 -0.02297612 83.8514576 -0.02732849 C84.94084329 -0.02794142 86.03022898 -0.02855436 87.15262635 -0.02918586 C89.36577325 -0.03046478 91.57892013 -0.03176163 93.792067 -0.03307623 C114.54109802 -0.04448027 135.29005834 -0.03137134 156.03907777 -0.00987476 C173.83684267 0.00799353 191.63450321 0.00489397 209.43226624 -0.0135498 C230.10599519 -0.03496393 250.77966217 -0.043379 271.45340067 -0.03110075 C273.65866728 -0.02982657 275.86393389 -0.02856909 278.06920052 -0.02732849 C279.69669667 -0.02640284 279.69669667 -0.02640284 281.35707153 -0.02545848 C288.99733955 -0.02200703 296.6375682 -0.02782958 304.27783012 -0.0372467 C313.59151672 -0.04847418 322.9050685 -0.04541093 332.21873968 -0.02412373 C336.96936663 -0.01362307 341.71976893 -0.00947471 346.47039413 -0.02272034 C350.82229323 -0.03467056 355.1737602 -0.02803847 359.52562029 -0.00681013 C361.09684691 -0.00235516 362.6681103 -0.00458543 364.23931312 -0.01431328 C375.39560284 -0.07806773 385.0246414 0.89289251 393.49598694 8.80480957 C399.3222519 15.28504305 402.27354991 22.29146677 402.28450584 31.04471016 C402.29095474 32.35001281 402.29740363 33.65531546 402.30404794 35.00017273 C402.30110592 36.4418168 402.2979705 37.88346049 402.29466248 39.32510376 C402.29839987 40.86185933 402.30300175 42.398613 402.30839312 43.93536365 C402.32062677 48.15549239 402.32036225 52.37554187 402.31800437 56.59568429 C402.31759631 61.14785754 402.32863403 65.70000535 402.33811951 70.25216675 C402.35473074 79.16820558 402.36022904 88.08421797 402.36134426 97.00027098 C402.36229435 104.24456798 402.36640266 111.48885624 402.37274551 118.73315048 C402.39035558 139.26300393 402.39958435 159.79283647 402.39808457 180.32269754 C402.39800465 181.42941658 402.39792474 182.53613562 402.39784241 183.6763916 C402.39776065 184.78445805 402.39767888 185.89252449 402.39759465 187.03416871 C402.39678104 205.0080645 402.41593804 222.98187663 402.44411914 240.95574822 C402.47281376 259.40228589 402.48666144 277.84878271 402.48493159 296.29534328 C402.48426667 306.65543901 402.48980395 317.01544695 402.51128769 327.37552261 C402.52945416 336.19244428 402.53388403 345.00923834 402.52026884 353.82617058 C402.51371715 358.32693941 402.51370102 362.82746308 402.53097534 367.32820892 C402.54661372 371.4449039 402.54393802 375.56115745 402.52640708 379.67784105 C402.52331675 381.1703225 402.52704539 382.66283615 402.53812723 384.15527965 C402.55215513 386.17775626 402.53932307 388.20036661 402.52501488 390.22284126 C402.52566698 391.91075584 402.52566698 391.91075584 402.52633226 393.6327697 C401.9097126 397.18496325 400.88838938 398.37018394 398.02723694 400.50793457 C394.27374232 400.9771214 391.9887524 401.03929838 388.65223694 399.19543457 C385.76024807 396.19221537 385.90261112 393.19410469 385.90418911 389.23493671 C385.90219824 388.13483202 385.90020737 387.03472733 385.89815617 385.90128613 C385.90106883 384.68861222 385.90398149 383.47593832 385.90698242 382.22651672 C385.9061264 380.94482605 385.90527039 379.66313538 385.90438843 378.34260559 C385.90213937 374.77076078 385.90616719 371.19894579 385.91116421 367.62710477 C385.91552013 363.72155296 385.91407031 359.8160026 385.91334629 355.91044903 C385.91281386 348.32355148 385.91743867 340.73666574 385.92384762 333.14977122 C385.931037 324.3770273 385.93184179 315.60429049 385.93263245 306.83154297 C385.93788653 283.66117163 385.95184759 260.49080292 385.96473694 237.32043457 C385.98536194 185.57230957 386.00598694 133.82418457 386.02723694 80.50793457 C278.77723694 80.50793457 171.52723694 80.50793457 61.02723694 80.50793457 C65.64723694 88.75793457 70.26723694 97.00793457 75.02723694 105.50793457 C84.08419896 123.62185862 84.08419896 123.62185862 81.34364319 135.46105957 C77.94302389 145.56414428 72.54106847 152.54610551 63.02723694 157.50793457 C55.30962264 161.32092397 47.56125327 160.89140124 39.15223694 160.80090332 C37.61667803 160.79529966 36.08111371 160.7910332 34.54554749 160.78804016 C30.52759173 160.77665187 26.50996756 160.74723756 22.49214172 160.71392822 C18.38279199 160.68309665 14.27338805 160.66950701 10.16395569 160.65441895 C2.11823156 160.62236119 -5.92722436 160.57123893 -13.97276306 160.50793457 C-13.96999768 161.1733108 -13.9672323 161.83868704 -13.96438313 162.52422619 C-13.89812487 178.71565025 -13.84848328 194.90703136 -13.81732655 211.09855938 C-13.80185883 218.92867082 -13.78077118 226.75869176 -13.7464447 234.58874512 C-13.71653936 241.41356667 -13.69718736 248.23832267 -13.69049758 255.06320792 C-13.68658722 258.67682593 -13.67739949 262.29025642 -13.65557289 265.90381432 C-13.63140217 269.93819873 -13.63079379 273.97225729 -13.63218689 278.00671387 C-13.62140106 279.2043335 -13.61061523 280.40195312 -13.59950256 281.63586426 C-13.60362656 282.73657761 -13.60775055 283.83729095 -13.61199951 284.97135925 C-13.60923413 285.92541499 -13.60646875 286.87947073 -13.60361958 287.86243725 C-14.04699031 291.03989031 -15.0917263 292.92949553 -16.97276306 295.50793457 C-19.09385681 296.35559082 -19.09385681 296.35559082 -21.41026306 296.57043457 C-22.55301697 296.71158691 -22.55301697 296.71158691 -23.71885681 296.85559082 C-26.92922233 296.36040446 -27.94700294 294.99729029 -29.97276306 292.50793457 C-30.46495438 289.95425034 -30.46495438 289.95425034 -30.45378113 287.01568604 C-30.45927979 285.89951904 -30.46477844 284.78335205 -30.47044373 283.63336182 C-30.45606262 282.41344543 -30.44168152 281.19352905 -30.42686462 279.93664551 C-30.42744873 278.64859009 -30.42803284 277.36053467 -30.42863464 276.03344727 C-30.42978219 272.50464758 -30.4062671 268.97639189 -30.37833881 265.44771862 C-30.35333153 261.75885464 -30.35098371 258.06997815 -30.34623718 254.38104248 C-30.33380537 247.39702668 -30.30098117 240.41326137 -30.26083922 233.42935586 C-30.21612775 225.47781739 -30.19413608 217.52626696 -30.17405748 209.57463408 C-30.13224856 193.21892094 -30.06189275 176.86345972 -29.97276306 160.50793457 C-31.1070575 160.52888184 -32.24135193 160.5498291 -33.41001892 160.57141113 C-37.65354079 160.6442896 -41.89700832 160.68990677 -46.14097595 160.72766113 C-47.97114899 160.74766831 -49.80125898 160.77488308 -51.63121033 160.80969238 C-54.27516819 160.8586946 -56.91827471 160.88101218 -59.56260681 160.89855957 C-60.77254555 160.92952728 -60.77254555 160.92952728 -62.00692749 160.96112061 C-71.22084716 160.96468892 -79.35220945 156.82185202 -85.97276306 150.50793457 C-93.3035652 141.45415011 -95.29382111 132.16876564 -94.31797791 120.71887207 C-93.40833442 114.89303659 -90.34518026 109.98140432 -87.40684509 104.97766113 C-85.75121837 102.12639795 -84.17147117 99.23902066 -82.59385681 96.34387207 C-75.99033799 84.26315194 -69.16595839 72.31984992 -62.18663025 60.45202637 C-57.8892081 53.1297492 -53.72436329 45.74012377 -49.59776306 38.32043457 C-41.96843314 24.64003996 -41.96843314 24.64003996 -38.41026306 18.75793457 C-37.852099 17.83496582 -37.29393494 16.91199707 -36.71885681 15.96105957 C-27.08161714 2.42149243 -15.68363888 -0.09695267 0 0 Z " fill="#033C59" transform="translate(93.97276306152344,-0.5079345703125)"/>
<path d="M0 0 C10.69089276 7.2063185 14.48791404 18.17965512 18.8125 29.8125 C19.36705594 31.28403724 19.92233163 32.7553034 20.47827148 34.22631836 C23.77380943 42.96661278 27.01459588 51.72745519 30.265625 60.484375 C30.62351608 61.44788376 30.98140717 62.41139252 31.35014343 63.40409851 C33.1117427 68.14800272 34.86937292 72.89329394 36.6184082 77.6418457 C37.26770789 79.39796142 37.9170391 81.15406548 38.56640625 82.91015625 C38.85449158 83.69642395 39.1425769 84.48269165 39.43939209 85.29278564 C41.15882762 89.93286189 43.06347303 94.44697746 45.10057068 98.95613098 C46.22818587 101.51853106 47.17116505 104.12167749 48.078125 106.76953125 C48.43519531 107.76017578 48.79226563 108.75082031 49.16015625 109.77148438 C49.8911786 111.81127253 50.60193806 113.85842829 51.29296875 115.91210938 C53.66775976 122.4771998 53.66775976 122.4771998 59.08984375 126.4921875 C60.39315034 126.99499604 61.69652443 127.4976297 63 128 C68.14506367 132.33640926 71.49724218 138.0561442 72.3515625 144.7578125 C72.7149898 152.23676379 71.3545521 157.86652061 67 164 C62.85518512 168.55079903 58.46736858 171.68260903 52.18944073 172.25726891 C51.15728341 172.26062059 50.12512609 172.26397228 49.06169128 172.26742554 C47.87156937 172.27595551 46.68144745 172.28448547 45.45526123 172.29327393 C44.1580011 172.29236755 42.86074097 172.29146118 41.52416992 172.29052734 C40.1374119 172.29651498 38.7506572 172.30332107 37.36390686 172.31088257 C33.60343726 172.32852711 29.84305872 172.33323732 26.08255172 172.33451414 C23.73078389 172.33593731 21.37903909 172.34021007 19.02727699 172.34550858 C10.81593993 172.36400456 2.60466775 172.37217983 -5.60668945 172.37060547 C-13.24969359 172.36940456 -20.89241511 172.39049795 -28.53534776 172.4220928 C-35.10623332 172.44828377 -41.67702675 172.45897157 -48.24796408 172.45769465 C-52.16846545 172.45718579 -56.08871564 172.46282633 -60.00916481 172.48405075 C-63.69880063 172.50348067 -67.38794693 172.50352567 -71.07760048 172.48901749 C-73.06798308 172.48594482 -75.05836597 172.50257301 -77.04867554 172.51989746 C-85.09943301 172.4635495 -90.66600533 171.65281672 -96.98828125 166.32421875 C-102.4102727 159.6227013 -104.66050037 153.76314315 -104.41015625 145.06640625 C-103.40009632 137.51500585 -99.68458295 131.89503899 -93.84375 127.15625 C-92 126 -92 126 -89.59179688 125.40429688 C-85.82008877 123.36069618 -85.03466178 120.22809597 -83.6875 116.375 C-83.29208008 115.31539062 -83.29208008 115.31539062 -82.88867188 114.234375 C-82.24252701 112.4956579 -81.61901556 110.74855943 -81 109 C-81.56963057 108.99940291 -82.13926115 108.99880582 -82.72615325 108.99819064 C-116.50441204 108.9622787 -150.2825677 108.90561213 -184.06074195 108.82207905 C-188.11861927 108.81206187 -192.176497 108.80221769 -196.234375 108.79248047 C-197.44612525 108.78956841 -197.44612525 108.78956841 -198.6823553 108.78659752 C-211.75414531 108.75559594 -224.82591777 108.73860202 -237.89773761 108.72680578 C-251.31560313 108.71438467 -264.73337672 108.68686161 -278.1511842 108.64538693 C-286.42739403 108.62027897 -294.70345135 108.60688074 -302.97969981 108.60857043 C-308.6588716 108.60860024 -314.33788831 108.59393032 -320.01699965 108.56783572 C-323.29118465 108.55322126 -326.56498885 108.54714216 -329.8392086 108.55419731 C-333.39622647 108.56084025 -336.9523218 108.54290742 -340.50924683 108.51898193 C-341.5345654 108.52674235 -342.55988397 108.53450277 -343.61627281 108.54249835 C-352.73116607 108.43424812 -360.70788003 106.01752242 -367.46875 99.703125 C-373.14978849 93.38441892 -376.22788236 86.4245999 -376.29052734 77.87451172 C-376.30328705 76.68663055 -376.31604675 75.49874939 -376.32919312 74.27487183 C-376.33141876 73.005961 -376.33364441 71.73705017 -376.3359375 70.4296875 C-376.3425943 69.11590118 -376.3492511 67.80211487 -376.35610962 66.44851685 C-376.36804394 63.67641915 -376.37179404 60.90444577 -376.37060547 58.13232422 C-376.37040159 54.58346774 -376.39778991 51.03540591 -376.43214989 47.4867382 C-376.4597364 44.09270873 -376.45856644 40.69882769 -376.4609375 37.3046875 C-376.47530853 36.03172821 -376.48967957 34.75876892 -376.50448608 33.44723511 C-376.49833282 32.26565826 -376.49217957 31.08408142 -376.48583984 29.86669922 C-376.48868988 28.82778534 -376.49153992 27.78887146 -376.49447632 26.71847534 C-375.87318297 23.30279986 -374.69980214 22.11437719 -372 20 C-369.74609375 19.6875 -369.74609375 19.6875 -367.4375 20 C-366.67308594 20.0825 -365.90867187 20.165 -365.12109375 20.25 C-362.28822592 21.25167702 -361.55055661 22.44696821 -360 25 C-359.62145996 27.52865601 -359.62145996 27.52865601 -359.61523438 30.40771484 C-359.60512329 31.48918793 -359.59501221 32.57066101 -359.58459473 33.68490601 C-359.58761597 34.8484964 -359.59063721 36.01208679 -359.59375 37.2109375 C-359.58291382 38.41183014 -359.57207764 39.61272278 -359.56091309 40.8500061 C-359.5266084 44.69172545 -359.51105085 48.53314752 -359.5 52.375 C-359.48543459 57.42476537 -359.45174201 62.47386656 -359.40625 67.5234375 C-359.40927124 68.68297943 -359.41229248 69.84252136 -359.41540527 71.03720093 C-359.3560655 78.94063969 -359.3560655 78.94063969 -356 86 C-352.0696753 89.54687838 -349.69085853 91.1220145 -344.44351006 91.1386652 C-342.99541114 91.14687687 -342.99541114 91.14687687 -341.5180577 91.15525442 C-340.44998166 91.15623253 -339.38190561 91.15721064 -338.28146362 91.15821838 C-337.15269432 91.16315636 -336.02392502 91.16809434 -334.86095059 91.17318195 C-331.05297252 91.18862298 -327.24501139 91.1969354 -323.43701172 91.20532227 C-320.71753564 91.21434382 -317.99806585 91.22486157 -315.27859497 91.23532104 C-309.41055891 91.25710338 -303.54252058 91.27524143 -297.67446518 91.29092598 C-289.19017292 91.31360863 -280.70590576 91.34175366 -272.22163476 91.37124526 C-258.45750065 91.41894088 -244.69335629 91.46219971 -230.92919922 91.50268555 C-217.55614423 91.54203046 -204.18309835 91.58345427 -190.81005859 91.62768555 C-189.98617326 91.63040982 -189.16228793 91.63313409 -188.31343637 91.63594092 C-184.18037386 91.64962023 -180.04731149 91.66334054 -175.91424918 91.67708123 C-141.60951829 91.79107694 -107.30476825 91.89787944 -73 92 C-72.85307205 91.06621521 -72.7061441 90.13243042 -72.55476379 89.17034912 C-72.01424771 86.08142245 -71.1872408 83.44122378 -70.07421875 80.515625 C-69.68943359 79.49726563 -69.30464844 78.47890625 -68.90820312 77.4296875 C-68.50537109 76.38039063 -68.10253906 75.33109375 -67.6875 74.25 C-67.29626953 73.21617187 -66.90503906 72.18234375 -66.50195312 71.1171875 C-64.73009547 66.45100185 -62.92756892 61.80075648 -61.05078125 57.17578125 C-58.09887321 49.84118216 -55.46504329 42.38311454 -52.78173828 34.94702148 C-41.90290822 4.83159805 -41.90290822 4.83159805 -27.75 -2.4375 C-18.4930755 -6.11164014 -8.65489613 -4.51386121 0 0 Z " fill="#033C59" transform="translate(440,340)"/>
<path d="M0 0 C3.33507001 2.01909638 5.00816371 4.29357607 7.04296875 7.59375 C7.9548999 9.07065308 7.9548999 9.07065308 8.88525391 10.57739258 C11.92210282 15.64238581 14.88358323 20.74694869 17.8125 25.875 C19.1374918 28.18389987 20.46295688 30.49252158 21.7890625 32.80078125 C22.1217363 33.38037598 22.4544101 33.9599707 22.79716492 34.55712891 C26.06336107 40.24355047 29.37407147 45.90352536 32.6875 51.5625 C37.54448495 59.87207403 42.36389508 68.20251207 47.14578247 76.55548096 C48.14888573 78.30755427 49.15339435 80.05882276 50.15795898 81.81005859 C52.03498187 85.09539114 53.89650707 88.38884039 55.75 91.6875 C56.07935547 92.26905853 56.40871094 92.85061707 56.74804688 93.44979858 C57.735266 95.19862688 58.70957688 96.95472192 59.68359375 98.7109375 C60.25779053 99.74009277 60.8319873 100.76924805 61.42358398 101.82958984 C63.9273988 107.22433607 63.52243323 111.3702003 61.6875 116.875 C58.60901775 121.34376455 54.94825506 124.95474831 49.75 126.6875 C48.13952286 126.78527231 46.52533371 126.82671828 44.91191101 126.83467102 C43.41680496 126.84540398 43.41680496 126.84540398 41.89149475 126.85635376 C40.79896896 126.85904266 39.70644318 126.86173157 38.58081055 126.86450195 C37.42933533 126.87107315 36.27786011 126.87764435 35.0914917 126.88441467 C31.27323342 126.90415851 27.45501447 126.91581192 23.63671875 126.92578125 C22.33408396 126.92985678 21.03144917 126.9339323 19.68934059 126.93813133 C13.50743168 126.95717653 7.32553467 126.97140927 1.14360207 126.9797433 C-5.98674176 126.98951532 -13.11677513 127.01583629 -20.24700958 127.05624419 C-25.76219516 127.08642443 -31.27729183 127.10121394 -36.79255837 127.10452431 C-40.0848653 127.10687256 -43.37676476 127.11778137 -46.66900063 127.14098549 C-50.34379557 127.16527871 -54.01777664 127.16442943 -57.69262695 127.1574707 C-58.77908005 127.17028076 -59.86553314 127.18309082 -60.98490906 127.19628906 C-68.17757215 127.14660274 -71.6907066 126.14534086 -76.89453125 121.08984375 C-81.19486442 115.69644931 -81.97558186 111.41650721 -81.25 104.6875 C-80.3731162 101.95566969 -79.06829034 99.59713381 -77.625 97.125 C-77.22676025 96.40868408 -76.82852051 95.69236816 -76.41821289 94.9543457 C-75.05227953 92.51787847 -73.65464845 90.10184117 -72.25 87.6875 C-71.48647217 86.36588867 -71.48647217 86.36588867 -70.70751953 85.01757812 C-67.84382809 80.0667012 -64.95724512 75.12969622 -62.05859375 70.19921875 C-58.41001398 63.98140313 -54.82802825 57.72681196 -51.26071167 51.46221924 C-45.75097539 41.78761543 -40.21730477 32.12718273 -34.625 22.5 C-34.06941406 21.53900391 -33.51382813 20.57800781 -32.94140625 19.58789062 C-17.50943754 -6.90177829 -17.50943754 -6.90177829 0 0 Z " fill="#0073FE" transform="translate(97.25,17.3125)"/>
<path d="M0 0 C0.90618576 -0.00428513 1.81237152 -0.00857025 2.74601746 -0.01298523 C4.65985277 -0.01871678 6.57370986 -0.01923746 8.48754883 -0.01489258 C11.39768198 -0.01174072 14.30678986 -0.03517821 17.21679688 -0.06054688 C19.08202998 -0.06282098 20.94726579 -0.06352285 22.8125 -0.0625 C23.67422318 -0.07170975 24.53594635 -0.08091949 25.42378235 -0.09040833 C32.76636824 -0.03491285 39.19609032 1.4828226 44.85546875 6.48828125 C45.479375 7.01808594 46.10328125 7.54789063 46.74609375 8.09375 C51.76130352 14.04667756 53.19969251 19.77098709 53.12304688 27.41967773 C53.13005615 28.29396423 53.13706543 29.16825073 53.14428711 30.06903076 C53.1617812 32.93697605 53.150274 35.80392102 53.13671875 38.671875 C53.13941638 40.67912483 53.14330105 42.68637339 53.14831543 44.69361877 C53.15419907 48.89230846 53.14568495 53.09065678 53.12695312 57.28930664 C53.10417918 62.65358674 53.11728423 68.01706553 53.14124298 73.38131618 C53.15574418 77.52421531 53.15107492 81.66692662 53.14073181 85.80983162 C53.1380757 87.78685668 53.14129475 89.76389915 53.15065002 91.74090385 C53.16088537 94.51188747 53.14521705 97.28160049 53.12304688 100.05249023 C53.1311438 100.8584816 53.13924072 101.66447296 53.14758301 102.49488831 C53.04450708 109.49954197 50.97654277 115.43007241 46.4921875 120.859375 C45.40357422 121.78943359 45.40357422 121.78943359 44.29296875 122.73828125 C43.57496094 123.37636719 42.85695313 124.01445312 42.1171875 124.671875 C36.16967037 128.52897398 29.88880089 128.61887882 23.015625 128.63671875 C22.11226913 128.64337555 21.20891327 128.65003235 20.27818298 128.65689087 C18.37631249 128.66697144 16.47440695 128.67170932 14.57250977 128.67138672 C11.67990381 128.67576319 8.78882135 128.71214026 5.89648438 128.75 C4.04036975 128.75586868 2.18424795 128.75983773 0.328125 128.76171875 C-0.52732407 128.77608978 -1.38277313 128.79046082 -2.2641449 128.80526733 C-9.33315512 128.75207073 -14.51440884 126.81517383 -19.85546875 122.15234375 C-20.48710937 121.41757812 -21.11875 120.6828125 -21.76953125 119.92578125 C-22.41664063 119.19617188 -23.06375 118.4665625 -23.73046875 117.71484375 C-27.50805833 112.23467858 -27.69217668 106.80752697 -27.68505859 100.39306641 C-27.69177582 99.51746567 -27.69849304 98.64186493 -27.70541382 97.73973083 C-27.72435117 94.8563768 -27.72831576 91.97325604 -27.73046875 89.08984375 C-27.73689926 87.07734076 -27.74362781 85.06483869 -27.75064087 83.05233765 C-27.7626027 78.8376041 -27.76632278 74.62295245 -27.76513672 70.40820312 C-27.76493351 65.01916447 -27.79224296 59.63065302 -27.82668114 54.24173927 C-27.84896506 50.08604541 -27.85297381 45.93047817 -27.85191727 41.77473068 C-27.85427069 39.78848833 -27.86307956 37.80224236 -27.878582 35.81605911 C-27.89827362 33.03276318 -27.89239172 30.25060105 -27.88037109 27.46728516 C-27.89161011 26.65455643 -27.90284912 25.8418277 -27.91442871 25.00447083 C-27.83951913 18.14646705 -25.77167891 12.97985643 -21.2109375 7.83984375 C-20.09525391 6.89238281 -20.09525391 6.89238281 -18.95703125 5.92578125 C-18.21582031 5.27867187 -17.47460938 4.6315625 -16.7109375 3.96484375 C-11.30259502 0.07959266 -6.44087199 -0.00676456 0 0 Z " fill="#0174FF" transform="translate(267.39453125,191.69921875)"/>
<path d="M0 0 C26.10350102 -0.07005844 52.20698797 -0.12297269 78.31056404 -0.15543652 C90.43070746 -0.17091019 102.55079249 -0.19200933 114.67089844 -0.22631836 C125.23388103 -0.25620532 135.79682134 -0.27557136 146.35984504 -0.28226548 C151.95369633 -0.28617891 157.54742663 -0.29538655 163.14123917 -0.31719017 C168.40575913 -0.33754412 173.6701082 -0.34383596 178.93466377 -0.33932304 C180.86722174 -0.34014873 182.79978539 -0.34612082 184.73230934 -0.35761642 C187.37099481 -0.37254341 190.00903518 -0.36895285 192.6477356 -0.36076355 C193.41233915 -0.36950207 194.17694271 -0.3782406 194.96471608 -0.38724393 C200.41643083 -0.34151512 204.60287273 0.76230162 208.64453125 4.53515625 C219.46683252 18.68739637 213 18.35141301 213 48 C148.65 48 84.3 48 18 48 C12.72 33.81 7.44 19.62 2 5 C1.34 3.35 0.68 1.7 0 0 Z " fill="#647499" transform="translate(267,16)"/>
<path d="M0 0 C16.19432989 -0.07011814 32.38861044 -0.12300187 48.5830555 -0.15543652 C56.10262251 -0.17089757 63.62209514 -0.19197246 71.14160156 -0.22631836 C77.69651824 -0.25624412 84.25136654 -0.27558054 90.80634964 -0.28226548 C94.2763623 -0.28617239 97.74617939 -0.29533807 101.2161293 -0.31719017 C105.09220259 -0.34140127 108.9680855 -0.34196795 112.84423828 -0.34057617 C113.99150894 -0.351362 115.1387796 -0.36214783 116.32081604 -0.3732605 C123.60275819 -0.34493013 128.26388928 0.29234808 133.62890625 5.6015625 C136.61082995 9.47032578 138.23170293 13.83592621 139.9375 18.375 C140.44410156 19.68488892 140.44410156 19.68488892 140.9609375 21.02124023 C141.6497721 22.80847359 142.33322927 24.59778902 143.01123047 26.38916016 C143.94389422 28.85185304 144.89312637 31.30743482 145.84765625 33.76171875 C146.39941775 35.19493551 146.95025335 36.62850919 147.5 38.0625 C147.75515381 38.72233887 148.01030762 39.38217773 148.27319336 40.06201172 C149.33054444 42.87147037 150 44.96823863 150 48 C134.20618827 48.56264857 118.415111 48.9847753 102.61374474 49.24349213 C95.27488184 49.36686678 87.94226833 49.53471392 80.60742188 49.81054688 C74.20766961 50.05109841 67.81243925 50.20487644 61.40829241 50.25812387 C58.01959788 50.28923907 54.64382428 50.36119129 51.25931931 50.53752136 C34.16442595 51.3294718 34.16442595 51.3294718 27 48 C20.86547684 42.29969884 17.60429404 34.76980706 14.40753555 27.16690063 C12.08283122 21.93640566 9.12010076 17.0941956 6.1875 12.1875 C5.19859427 10.47451609 4.21234361 8.75999238 3.23046875 7.04296875 C2.82207764 6.33164795 2.41368652 5.62032715 1.99291992 4.88745117 C1 3 1 3 0 0 Z " fill="#95A0C2" transform="translate(118,16)"/>
<path d="M0 0 C0.87756454 -0.00571014 1.75512909 -0.01142029 2.6592865 -0.01730347 C3.62449722 -0.01842133 4.58970795 -0.01953918 5.58416748 -0.02069092 C6.59894669 -0.02565582 7.61372589 -0.03062073 8.65925598 -0.03573608 C12.02843903 -0.05038367 15.39757497 -0.05716457 18.76678467 -0.06268311 C21.1036784 -0.06843309 23.44057212 -0.07419084 25.77746582 -0.07995605 C30.68357565 -0.09047389 35.58966905 -0.09631121 40.49578857 -0.09979248 C46.78181927 -0.10527422 53.06763304 -0.1292923 59.35359573 -0.15776443 C64.18345777 -0.17639194 69.01326761 -0.18159652 73.84316254 -0.18312836 C76.16039972 -0.18615591 78.47763596 -0.19418788 80.79483795 -0.20731354 C84.038584 -0.22437352 87.28180098 -0.22249349 90.52557373 -0.21600342 C91.96124443 -0.22982559 91.96124443 -0.22982559 93.42591858 -0.243927 C99.37857177 -0.20662997 103.83322127 0.4856571 108.45819092 4.60528564 C113.52666014 10.99596423 113.02442845 16.6299671 113.06365967 24.51544189 C113.09459717 26.05844971 113.09459717 26.05844971 113.12615967 27.63262939 C113.1592742 34.05684905 112.83695498 38.82583949 108.31365967 43.78497314 C104.30457678 46.90662883 101.55002417 48.2593955 96.50706482 48.28761292 C95.62812561 48.29476822 94.7491864 48.30192352 93.84361267 48.30929565 C92.4011895 48.31332901 92.4011895 48.31332901 90.92962646 48.31744385 C89.40723862 48.32730064 89.40723862 48.32730064 87.85409546 48.33735657 C84.49035572 48.35709185 81.12666061 48.36875204 77.76287842 48.37872314 C76.6146995 48.38279867 75.46652058 48.3868742 74.28354836 48.39107323 C68.20773117 48.41193383 62.13193657 48.42623625 56.05609131 48.43560791 C49.7778717 48.446679 43.50000587 48.48108737 37.22191143 48.52077961 C32.39634029 48.54691037 27.57085395 48.55529657 22.74521828 48.55888939 C20.43075989 48.5637636 18.11630549 48.57540121 15.80191612 48.59392738 C12.56294988 48.61824524 9.32490583 48.61736701 6.08587646 48.6104126 C5.13033371 48.62322266 4.17479095 48.63603271 3.19029236 48.64923096 C-2.45176682 48.60508234 -5.72619644 47.93805705 -10.18634033 44.14044189 C-15.94844739 37.75540434 -15.42906119 32.05722913 -15.49884033 23.82794189 C-15.52784424 22.69936768 -15.55684814 21.57079346 -15.58673096 20.40802002 C-15.63573929 14.00300822 -15.58182619 9.96026427 -11.18634033 5.14044189 C-7.3780454 1.7855154 -5.0584526 0.01967803 0 0 Z " fill="#96A1C3" transform="translate(319.18634033203125,111.85955810546875)"/>
<path d="M0 0 C0.8755792 0.53028204 0.8755792 0.53028204 1.76884687 1.07127684 C8.6482152 4.9129833 14.11032601 5.71715884 21.90835571 5.63923645 C23.06846173 5.64759213 24.22856774 5.6559478 25.42382848 5.66455668 C28.61679502 5.68260334 31.80882053 5.67856118 35.00177932 5.6648711 C38.45500407 5.65555979 41.90808371 5.67518566 45.36126709 5.69119263 C51.33508359 5.71497217 57.30869385 5.72065667 63.28255081 5.71384621 C71.91956244 5.7040261 80.55634619 5.72181384 89.19332092 5.74621352 C103.20815001 5.78506171 117.22291371 5.8017636 131.23779297 5.80444336 C144.84720207 5.80709323 158.4565348 5.82023216 172.06591797 5.84741211 C172.90562349 5.84908549 173.745329 5.85075887 174.61048014 5.85248295 C178.82328226 5.86094278 183.03608391 5.86960813 187.24888539 5.87837565 C222.16591319 5.95077796 257.08290141 5.98719889 292 6 C290.41078475 11.36095277 288.81027062 16.70843973 287 22 C251.94138518 22.09153721 216.88279453 22.16202939 181.82408538 22.20426132 C177.68594605 22.2092642 173.54780695 22.21444148 169.40966797 22.21972656 C168.17391425 22.22130043 168.17391425 22.22130043 166.9131958 22.22290608 C153.57030201 22.24031566 140.22747709 22.27185638 126.88462417 22.30861118 C113.19562927 22.34600524 99.50667047 22.3682326 85.8176266 22.37635398 C77.36938525 22.38184495 68.92133856 22.3991933 60.47315712 22.43166587 C54.68146504 22.45279483 48.88987372 22.45920373 43.09814589 22.45400551 C39.75550334 22.45144111 36.41347583 22.45757685 33.07084656 22.4768219 C29.44680913 22.49666775 25.82361052 22.4919579 22.19955444 22.48101807 C21.14312976 22.49266943 20.08670508 22.5043208 18.99826753 22.51632524 C12.99642219 22.46721731 9.57617841 21.98750182 5 18 C-0.30380175 12.12281427 -0.09788392 7.53706186 0 0 Z " fill="#CBD2EA" transform="translate(80,410)"/>
<path d="M0 0 C0.80232056 -0.00004028 1.60464111 -0.00008057 2.43127441 -0.00012207 C4.12239443 0.00522359 5.8135146 0.02276578 7.50439453 0.05175781 C10.08573724 0.09362006 12.66446867 0.09282315 15.24609375 0.0859375 C16.89324721 0.09643096 18.54038728 0.10936992 20.1875 0.125 C21.3392572 0.12530212 21.3392572 0.12530212 22.51428223 0.12561035 C27.02599744 0.22473308 30.01087988 0.78722566 33.59375 3.59375 C35.16431206 6.73487411 34.74993816 10.09503031 34.75488281 13.54418945 C34.76233017 14.77616058 34.76233017 14.77616058 34.76992798 16.03302002 C34.78456612 18.75769887 34.7913547 21.48231949 34.796875 24.20703125 C34.80262555 26.09791567 34.80838329 27.98880007 34.81414795 29.87968445 C34.82466295 33.84842196 34.8305022 37.81713918 34.83398438 41.78588867 C34.83946701 46.87032516 34.86348802 51.95449357 34.89195633 57.03884602 C34.91058533 60.94649537 34.91578847 64.85408023 34.91732025 68.76177025 C34.92034724 70.63605399 34.92837732 72.51033659 34.94150543 74.3845768 C34.95856975 77.00830045 34.9566847 79.63137025 34.95019531 82.25512695 C34.96401749 83.41566841 34.96401749 83.41566841 34.9781189 84.59965515 C34.94336807 89.08728713 34.46436138 92.07477059 31.59375 95.59375 C27.8240619 96.8503127 24.27657257 96.77550362 20.34765625 96.796875 C19.54013412 96.80257507 18.732612 96.80827515 17.90061951 96.81414795 C16.19344388 96.82358834 14.48625011 96.83012812 12.77905273 96.83398438 C10.16943625 96.8437009 7.56060393 96.8747369 4.95117188 96.90625 C3.29167134 96.91277933 1.63216518 96.91803007 -0.02734375 96.921875 C-0.80661728 96.9342218 -1.58589081 96.9465686 -2.38877869 96.95928955 C-5.62902164 96.94598287 -7.99008795 96.81914875 -10.86743164 95.26074219 C-14.19793812 91.6528256 -13.57381885 87.13990772 -13.59912109 82.52978516 C-13.60729858 81.70832504 -13.61547607 80.88686493 -13.62390137 80.04051208 C-13.64872058 77.32128628 -13.66526061 74.60211248 -13.6796875 71.8828125 C-13.68501118 70.95403667 -13.69033485 70.02526085 -13.69581985 69.0683403 C-13.72253367 64.15429256 -13.74191604 59.24027009 -13.75634766 54.32617188 C-13.76970037 50.25790998 -13.79757981 46.19014807 -13.83837891 42.12207031 C-13.88763996 37.21023799 -13.91246031 32.29886005 -13.91957474 27.38679123 C-13.92629459 25.51526302 -13.94153571 23.64374523 -13.96546555 21.77235794 C-13.99705209 19.15320052 -13.99716434 16.53580144 -13.98974609 13.91650391 C-14.00615143 13.14438065 -14.02255676 12.37225739 -14.03945923 11.57673645 C-13.99362821 7.62231277 -13.55101807 5.78194521 -11.11257935 2.61203003 C-7.47952632 -0.09736614 -4.35965713 -0.09308958 0 0 Z " fill="#F4F6FF" transform="translate(269.40625,207.40625)"/>
<path d="M0 0 C2.5625 2.0625 2.5625 2.0625 4 5 C3.6704919 10.88623363 1.69574847 15.51398446 -0.75390625 20.765625 C-1.32261696 22.01493805 -1.32261696 22.01493805 -1.90281677 23.28948975 C-3.11425951 25.94695598 -4.33770826 28.59866334 -5.5625 31.25 C-7.15125418 34.71166525 -8.7348283 38.17567583 -10.31640625 41.640625 C-10.899702 42.91576965 -10.899702 42.91576965 -11.49478149 44.2166748 C-15.52310079 53.06580055 -19.26780157 62.0222031 -23 71 C-11.45 71 0.1 71 12 71 C11.80249633 59.70605903 11.80249633 59.70605903 11.54956055 48.41333008 C11.53494833 46.99041625 11.52220939 45.56748143 11.51171875 44.14453125 C11.473349 43.04933167 11.473349 43.04933167 11.4342041 41.93200684 C11.43081145 37.94563588 11.84286849 36.19917733 14.34301758 33.0300293 C17 31 17 31 20 30.375 C24.10088626 31.2293513 25.41795197 32.72703822 28 36 C28.43900428 38.92386291 28.58958897 41.24040945 28.48828125 44.14453125 C28.48120651 44.91431808 28.47413177 45.68410492 28.46684265 46.47721863 C28.43896925 48.92332303 28.37625137 51.36709384 28.3125 53.8125 C28.28740768 55.47587827 28.26459613 57.13929262 28.24414062 58.80273438 C28.18916671 62.86938157 28.10294927 66.93429589 28 71 C28.68634521 70.98404785 29.37269043 70.9680957 30.07983398 70.95166016 C30.98032471 70.93925293 31.88081543 70.9268457 32.80859375 70.9140625 C33.70118896 70.89811035 34.59378418 70.8821582 35.51342773 70.86572266 C38.70647006 71.03815008 40.56232611 71.95549932 43 74 C44.40457737 76.80915474 44.24895157 78.88810534 44 82 C42.22015595 85.1359157 41.47691793 85.84102736 38 87 C36.27204648 87.06802967 34.54164635 87.08495645 32.8125 87.0625 C31.46091797 87.04896484 31.46091797 87.04896484 30.08203125 87.03515625 C29.39496094 87.02355469 28.70789063 87.01195312 28 87 C28.01571045 88.00377686 28.0314209 89.00755371 28.04760742 90.04174805 C28.10205114 93.77831955 28.13640226 97.51485621 28.16479492 101.25170898 C28.17984876 102.86667789 28.20029648 104.48160613 28.22631836 106.09643555 C28.26285286 108.42246555 28.27976015 110.74795341 28.29296875 113.07421875 C28.30845261 113.79212082 28.32393646 114.51002289 28.33988953 115.24967957 C28.34136614 119.68310969 27.73671423 122.47899113 25 126 C22.19084526 127.40457737 20.11189466 127.24895157 17 127 C13.8640843 125.22015595 13.15897264 124.47691793 12 121 C11.91518227 118.41369776 11.88401771 115.85521944 11.90234375 113.26953125 C11.9037587 112.51911057 11.90517365 111.76868988 11.90663147 110.99552917 C11.9122244 108.6011454 11.92477556 106.20685547 11.9375 103.8125 C11.94251592 102.18815239 11.94707866 100.56380332 11.95117188 98.93945312 C11.96219152 94.95959931 11.97945127 90.97981556 12 87 C11.37217117 87.01110306 10.74434235 87.02220612 10.0974884 87.03364563 C3.56017286 87.14430481 -2.97687646 87.21969472 -9.51489258 87.2746582 C-11.95445564 87.29979496 -14.39394345 87.33390946 -16.83325195 87.37719727 C-20.34084646 87.43788229 -23.8474449 87.466219 -27.35546875 87.48828125 C-28.44522507 87.51408768 -29.53498138 87.5398941 -30.65776062 87.56648254 C-35.46788958 87.56826231 -38.156772 87.56310869 -42.2277832 84.84448242 C-44.38269017 81.38576619 -44.65985441 80.01245423 -44 76 C-43.05809117 73.18917697 -41.85038838 70.54018239 -40.58984375 67.859375 C-40.2306485 67.07126434 -39.87145325 66.28315369 -39.50137329 65.47116089 C-38.32371576 62.89257785 -37.1307888 60.32138173 -35.9375 57.75 C-34.70370624 55.06215053 -33.47361523 52.3726287 -32.24394226 49.68289185 C-31.4059381 47.85018232 -30.56666331 46.01805329 -29.72615051 44.18649292 C-26.94183167 38.10774177 -24.22901484 32.00184989 -21.5703125 25.8671875 C-21.22720535 25.07759644 -20.88409821 24.28800537 -20.53059387 23.4744873 C-19.21814193 20.45206449 -17.9065365 17.42941769 -16.61080933 14.39978027 C-15.7286682 12.33862948 -14.83608052 10.28229685 -13.94140625 8.2265625 C-13.44326416 7.06721191 -12.94512207 5.90786133 -12.43188477 4.71337891 C-9.7016793 -0.46027898 -5.41530765 -1.04391473 0 0 Z " fill="#0275FF" transform="translate(380,193)"/>
<path d="M0 0 C2.5625 2.0625 2.5625 2.0625 4 5 C3.6704919 10.88623363 1.69574847 15.51398446 -0.75390625 20.765625 C-1.32261696 22.01493805 -1.32261696 22.01493805 -1.90281677 23.28948975 C-3.11425951 25.94695598 -4.33770826 28.59866334 -5.5625 31.25 C-7.15125418 34.71166525 -8.7348283 38.17567583 -10.31640625 41.640625 C-10.899702 42.91576965 -10.899702 42.91576965 -11.49478149 44.2166748 C-15.52310079 53.06580055 -19.26780157 62.0222031 -23 71 C-11.45 71 0.1 71 12 71 C11.80249633 59.70605903 11.80249633 59.70605903 11.54956055 48.41333008 C11.53494833 46.99041625 11.52220939 45.56748143 11.51171875 44.14453125 C11.473349 43.04933167 11.473349 43.04933167 11.4342041 41.93200684 C11.43081145 37.94563588 11.84286849 36.19917733 14.34301758 33.0300293 C17 31 17 31 20 30.375 C24.10088626 31.2293513 25.41795197 32.72703822 28 36 C28.43900428 38.92386291 28.58958897 41.24040945 28.48828125 44.14453125 C28.48120651 44.91431808 28.47413177 45.68410492 28.46684265 46.47721863 C28.43896925 48.92332303 28.37625137 51.36709384 28.3125 53.8125 C28.28740768 55.47587827 28.26459613 57.13929262 28.24414062 58.80273438 C28.18916671 62.86938157 28.10294927 66.93429589 28 71 C28.68634521 70.98404785 29.37269043 70.9680957 30.07983398 70.95166016 C30.98032471 70.93925293 31.88081543 70.9268457 32.80859375 70.9140625 C33.70118896 70.89811035 34.59378418 70.8821582 35.51342773 70.86572266 C38.70647006 71.03815008 40.56232611 71.95549932 43 74 C44.40457737 76.80915474 44.24895157 78.88810534 44 82 C42.22015595 85.1359157 41.47691793 85.84102736 38 87 C36.27204648 87.06802967 34.54164635 87.08495645 32.8125 87.0625 C31.46091797 87.04896484 31.46091797 87.04896484 30.08203125 87.03515625 C29.39496094 87.02355469 28.70789063 87.01195312 28 87 C28.01571045 88.00377686 28.0314209 89.00755371 28.04760742 90.04174805 C28.10205114 93.77831955 28.13640226 97.51485621 28.16479492 101.25170898 C28.17984876 102.86667789 28.20029648 104.48160613 28.22631836 106.09643555 C28.26285286 108.42246555 28.27976015 110.74795341 28.29296875 113.07421875 C28.30845261 113.79212082 28.32393646 114.51002289 28.33988953 115.24967957 C28.34136614 119.68310969 27.73671423 122.47899113 25 126 C22.19084526 127.40457737 20.11189466 127.24895157 17 127 C13.8640843 125.22015595 13.15897264 124.47691793 12 121 C11.91518227 118.41369776 11.88401771 115.85521944 11.90234375 113.26953125 C11.9037587 112.51911057 11.90517365 111.76868988 11.90663147 110.99552917 C11.9122244 108.6011454 11.92477556 106.20685547 11.9375 103.8125 C11.94251592 102.18815239 11.94707866 100.56380332 11.95117188 98.93945312 C11.96219152 94.95959931 11.97945127 90.97981556 12 87 C11.37217117 87.01110306 10.74434235 87.02220612 10.0974884 87.03364563 C3.56017286 87.14430481 -2.97687646 87.21969472 -9.51489258 87.2746582 C-11.95445564 87.29979496 -14.39394345 87.33390946 -16.83325195 87.37719727 C-20.34084646 87.43788229 -23.8474449 87.466219 -27.35546875 87.48828125 C-28.44522507 87.51408768 -29.53498138 87.5398941 -30.65776062 87.56648254 C-35.46788958 87.56826231 -38.156772 87.56310869 -42.2277832 84.84448242 C-44.38269017 81.38576619 -44.65985441 80.01245423 -44 76 C-43.05809117 73.18917697 -41.85038838 70.54018239 -40.58984375 67.859375 C-40.2306485 67.07126434 -39.87145325 66.28315369 -39.50137329 65.47116089 C-38.32371576 62.89257785 -37.1307888 60.32138173 -35.9375 57.75 C-34.70370624 55.06215053 -33.47361523 52.3726287 -32.24394226 49.68289185 C-31.4059381 47.85018232 -30.56666331 46.01805329 -29.72615051 44.18649292 C-26.94183167 38.10774177 -24.22901484 32.00184989 -21.5703125 25.8671875 C-21.22720535 25.07759644 -20.88409821 24.28800537 -20.53059387 23.4744873 C-19.21814193 20.45206449 -17.9065365 17.42941769 -16.61080933 14.39978027 C-15.7286682 12.33862948 -14.83608052 10.28229685 -13.94140625 8.2265625 C-13.44326416 7.06721191 -12.94512207 5.90786133 -12.43188477 4.71337891 C-9.7016793 -0.46027898 -5.41530765 -1.04391473 0 0 Z " fill="#0275FF" transform="translate(180,193)"/>
<path d="M0 0 C17.16 0 34.32 0 52 0 C54.805 7.363125 57.61 14.72625 60.5 22.3125 C61.38751953 24.63450439 62.27503906 26.95650879 63.18945312 29.34887695 C63.88711255 31.18686229 64.58440354 33.02498753 65.28125 34.86328125 C65.64831055 35.81956421 66.01537109 36.77584717 66.39355469 37.7611084 C66.73870117 38.6743689 67.08384766 39.58762939 67.43945312 40.52856445 C67.7414563 41.32132278 68.04345947 42.11408112 68.35461426 42.93086243 C69 45 69 45 69 48 C40.62 48 12.24 48 -17 48 C-16.32677781 43.96066685 -15.82442152 41.1185756 -14.41772461 37.46337891 C-13.93064026 36.18539429 -13.93064026 36.18539429 -13.43371582 34.8815918 C-13.09336304 34.00543213 -12.75301025 33.12927246 -12.40234375 32.2265625 C-12.08881958 31.40696045 -11.77529541 30.5873584 -11.45227051 29.74291992 C-10.2868437 26.7012446 -9.11159639 23.66333936 -7.9375 20.625 C-5.318125 13.81875 -2.69875 7.0125 0 0 Z " fill="#F3F5FE" transform="translate(398,392)"/>
<path d="M0 0 C0.77253569 -0.00638882 1.54507138 -0.01277764 2.34101725 -0.01936007 C4.9262383 -0.03460464 7.50992542 -0.01415359 10.09509277 0.00622559 C11.94976814 0.00272421 13.80444052 -0.00293455 15.65910339 -0.0105896 C20.69430568 -0.02484489 25.72896234 -0.00776867 30.76411247 0.01569557 C36.03219278 0.03579273 41.30025017 0.0299256 46.56835938 0.02758789 C55.41541551 0.02764147 64.26225815 0.04740576 73.10925293 0.07946777 C83.33911423 0.11636106 93.56869584 0.12514343 103.79861498 0.11817026 C113.63748485 0.11186605 123.47625875 0.12261806 133.31510925 0.14213562 C137.50320299 0.15031256 141.6912477 0.15301862 145.87934875 0.15144348 C150.81076383 0.15056484 155.74191292 0.16477531 160.67325783 0.19067001 C162.48366316 0.19783507 164.29409678 0.19991381 166.10451317 0.19655228 C168.57476591 0.19284033 171.04424117 0.20757463 173.5144043 0.22705078 C174.59052593 0.21905889 174.59052593 0.21905889 175.68838739 0.21090555 C180.019627 0.26987203 182.86365208 0.86837251 186.25720215 3.62145996 C187.42901128 7.57631579 187.66201545 9.69038938 186.00720215 13.49645996 C184.25720215 15.62145996 184.25720215 15.62145996 181.25720215 16.62145996 C178.74503544 16.72121919 176.26052012 16.76490894 173.7481842 16.76190186 C172.9766518 16.76487298 172.20511939 16.7678441 171.41020721 16.77090526 C168.8169583 16.7795983 166.22375551 16.781101 163.63049316 16.78259277 C161.77449444 16.78722043 159.91849666 16.79224502 158.0625 16.79763794 C153.01504975 16.81076697 147.9676128 16.81720762 142.92014813 16.8216486 C139.76873867 16.82457787 136.61733285 16.82868235 133.46592522 16.83315277 C123.61160504 16.84682761 113.75729319 16.85649494 103.90296417 16.86035466 C92.51646989 16.86483873 81.13009545 16.88240286 69.74363762 16.91135526 C60.94868044 16.93294447 52.15375705 16.94305743 43.35877365 16.94439578 C38.10262094 16.94544558 32.84658089 16.95139076 27.59045601 16.96921539 C22.64845239 16.9856489 17.70664669 16.98787463 12.76462555 16.97907639 C10.94894571 16.97830353 9.13325543 16.98268123 7.31760216 16.99253464 C4.84256452 17.00518087 2.36823574 16.99941773 -0.10679626 16.98895264 C-1.18933352 17.00103724 -1.18933352 17.00103724 -2.29374021 17.01336598 C-6.38095431 16.97283162 -8.82563727 16.57928123 -11.74279785 13.62145996 C-12.5279541 11.75427246 -12.5279541 11.75427246 -12.80529785 9.74645996 C-12.92002441 9.08903809 -13.03475098 8.43161621 -13.1529541 7.75427246 C-11.84516977 0.95379396 -5.91524631 -0.10321253 0 0 Z " fill="#96A1C3" transform="translate(140.7427978515625,383.3785400390625)"/>
<path d="M0 0 C0.71481023 -0.00427212 1.42962047 -0.00854425 2.16609162 -0.01294583 C4.55580254 -0.02116683 6.9437492 0.00629134 9.33329773 0.03364563 C11.04829873 0.03505631 12.76330276 0.03426374 14.478302 0.03143311 C19.13101478 0.02999831 23.78308327 0.05939835 28.4356463 0.09430289 C33.29897309 0.12555575 38.1623146 0.12849629 43.02572632 0.13442993 C52.23385378 0.14997151 61.44168449 0.19100429 70.64968127 0.24117738 C81.13323175 0.29706101 91.61679639 0.32455489 102.10045874 0.34965456 C123.66480964 0.40191982 145.22889339 0.48986829 166.79301453 0.60127258 C166.19553406 1.43658508 166.19553406 1.43658508 165.58598328 2.28877258 C162.13033896 7.26624566 159.67776183 11.8423225 157.79301453 17.60127258 C136.348683 17.54078134 114.9044729 17.46331217 93.46027756 17.36555767 C83.50365506 17.32056696 73.5470686 17.28115988 63.59037781 17.25483704 C54.91345262 17.23188345 46.23664115 17.19851509 37.55980611 17.15257102 C32.96427416 17.12860311 28.36885508 17.10989776 23.77326202 17.10365868 C19.44927058 17.09762391 15.12556805 17.07768264 10.80168343 17.04699707 C9.21340247 17.03819096 7.62508379 17.03449957 6.0367794 17.03626442 C3.87020728 17.03791196 1.70452142 17.02126394 -0.46192932 17 C-2.28154867 16.99308655 -2.28154867 16.99308655 -4.13792801 16.98603344 C-7.46139796 16.56937746 -8.83706359 15.91916924 -11.20698547 13.60127258 C-11.99214172 11.73408508 -11.99214172 11.73408508 -12.26948547 9.72627258 C-12.38421204 9.06885071 -12.4989386 8.41142883 -12.61714172 7.73408508 C-11.34998014 1.14484485 -5.80715271 -0.02093422 0 0 Z " fill="#95A1C2" transform="translate(236.2069854736328,343.3987274169922)"/>
<path d="M0 0 C29.04 0 58.08 0 88 0 C96 22 96 22 96 25 C61.68 25 27.36 25 -8 25 C-6.5615741 16.3694446 -3.0247847 8.21012991 0 0 Z " fill="#0073FE" transform="translate(380,439)"/>
<path d="M0 0 C1.28992355 -0.00554901 2.57984711 -0.01109802 3.90885925 -0.01681519 C7.44006301 -0.03104557 10.97048642 -0.01401989 14.50161552 0.00946999 C18.20017049 0.02960069 21.89869375 0.02369828 25.59729004 0.0213623 C31.80799199 0.02141585 38.01838947 0.0411583 44.22900391 0.07324219 C51.40512854 0.11013413 58.5808544 0.11891753 65.75706148 0.11194468 C72.66570695 0.10563518 79.57421594 0.11640218 86.48283386 0.13591003 C89.42052661 0.14407593 92.35814952 0.14679508 95.29585266 0.1452179 C99.3992621 0.14417419 103.50214772 0.1683704 107.60546875 0.1953125 C109.43219368 0.1909166 109.43219368 0.1909166 111.29582214 0.18643188 C112.41455215 0.19778168 113.53328217 0.20913147 114.68591309 0.2208252 C115.65559776 0.22455391 116.62528244 0.22828262 117.6243515 0.23212433 C120.81111338 0.6879518 122.7085672 1.73792472 125.30273438 3.61523438 C126.70731174 6.42438911 126.55168595 8.50333972 126.30273438 11.61523438 C124.52289033 14.75115008 123.77965231 15.45626173 120.30273438 16.61523438 C118.51273399 16.71606778 116.71923081 16.75885168 114.92642212 16.76913452 C113.81044144 16.77773499 112.69446075 16.78633545 111.54466248 16.79519653 C110.3196553 16.79945648 109.09464813 16.80371643 107.83251953 16.80810547 C105.89807228 16.8203717 105.89807228 16.8203717 103.92454529 16.83288574 C99.64698367 16.85907405 95.36941239 16.87440752 91.09179688 16.88867188 C89.6187273 16.89403237 88.1456578 16.89940988 86.67258835 16.90480423 C80.54582123 16.9264259 74.41905672 16.94516338 68.29226112 16.95642662 C59.51300601 16.97267296 50.73419294 17.00587488 41.95510447 17.06282747 C35.78091919 17.10151612 29.60685221 17.12105784 23.43254888 17.12634718 C19.74508045 17.13000143 16.05808382 17.14202981 12.37074661 17.17444992 C8.2574758 17.21009816 4.14515682 17.20616255 0.03173828 17.19873047 C-1.79969978 17.22333847 -1.79969978 17.22333847 -3.6681366 17.2484436 C-12.85362978 17.18031952 -12.85362978 17.18031952 -15.95376587 14.26626587 C-17.69726562 11.61523438 -17.69726562 11.61523438 -18.32226562 8.61523438 C-17.67913342 5.52819977 -16.86972264 3.82906284 -14.56648254 1.66398621 C-10.23282079 -0.76747889 -4.82407743 -0.05253904 0 0 Z " fill="#0073FE" transform="translate(369.697265625,479.384765625)"/>
<path d="M0 0 C8.26315782 4.83316778 10.56528116 14.13841891 13.625 22.6875 C14.07939453 23.91855469 14.53378906 25.14960938 15.00195312 26.41796875 C18.3125 35.50828242 18.3125 35.50828242 18.3125 38.9375 C1.8125 38.9375 -14.6875 38.9375 -31.6875 38.9375 C-30.55227087 32.12612525 -28.3508256 26.28947807 -25.875 19.875 C-25.43607422 18.70388672 -24.99714844 17.53277344 -24.54492188 16.32617188 C-24.11115234 15.19630859 -23.67738281 14.06644531 -23.23046875 12.90234375 C-22.83883545 11.8774585 -22.44720215 10.85257324 -22.04370117 9.79663086 C-17.35107804 -0.09631415 -10.28962326 -2.9648067 0 0 Z " fill="#0073FC" transform="translate(430.6875,353.0625)"/>
<path d="M0 0 C0.66569504 -0.00554901 1.33139008 -0.01109802 2.01725769 -0.01681519 C4.20691044 -0.02857861 6.39447797 -0.00437471 8.58398438 0.02148438 C10.11185614 0.02319649 11.63973084 0.02312877 13.16760254 0.0213623 C16.36543997 0.02301365 19.56257476 0.04167599 22.76025391 0.07324219 C26.85265379 0.1129199 30.94413402 0.11728643 35.03668976 0.10977936 C38.19037249 0.1067051 41.3438497 0.11884625 44.4974823 0.13591003 C46.00610565 0.14292529 47.5147523 0.14606636 49.02339172 0.1452179 C51.13450962 0.14702221 53.24453978 0.16845545 55.35546875 0.1953125 C57.15485901 0.20794128 57.15485901 0.20794128 58.99060059 0.2208252 C62.50598722 0.65585581 64.4061499 1.42935876 67.17773438 3.61523438 C68.34954351 7.57009021 68.58254767 9.68416379 66.92773438 13.49023438 C65.17773438 15.61523438 65.17773438 15.61523438 62.17773438 16.61523438 C59.97587341 16.71994026 57.77096424 16.7638979 55.56665039 16.77636719 C54.89964111 16.78133209 54.23263184 16.786297 53.54541016 16.79141235 C51.34080979 16.80600722 49.13628134 16.81283076 46.93164062 16.81835938 C45.39851378 16.82411214 43.86538694 16.82986986 42.33226013 16.83563232 C39.11855738 16.84613407 35.9048796 16.85198243 32.69116211 16.85546875 C28.57405421 16.86095796 24.45727627 16.88499827 20.34027195 16.9134407 C17.17383356 16.93206534 14.00747479 16.93727254 10.84098625 16.93880463 C9.32313161 16.94183107 7.80527836 16.94985938 6.28747749 16.96298981 C4.16413352 16.98005061 2.04159765 16.97817077 -0.08178711 16.97167969 C-1.28963364 16.97532532 -2.49748016 16.97897095 -3.7419281 16.98272705 C-7.08217443 16.58422654 -8.44457294 15.94418256 -10.82226562 13.61523438 C-11.60742188 11.74804688 -11.60742188 11.74804688 -11.88476562 9.74023438 C-11.99949219 9.0828125 -12.11421875 8.42539062 -12.23242188 7.74804688 C-11.00767616 1.37936915 -5.67628993 -0.00972131 0 0 Z " fill="#96A1C3" transform="translate(139.822265625,343.384765625)"/>
<path d="M0 0 C1.04269043 -0.00574036 1.04269043 -0.00574036 2.10644531 -0.01159668 C3.57228041 -0.0143118 5.03816428 -0.00697835 6.50390625 0.00976562 C8.74328975 0.03118581 10.97946587 0.00995557 13.21875 -0.015625 C14.64584039 -0.01298165 16.07292879 -0.0078565 17.5 0 C19.44132812 0.00676758 19.44132812 0.00676758 21.421875 0.01367188 C25.25919979 0.61043894 26.44070951 1.47408051 28.75 4.53125 C29.28125 6.53125 29.28125 6.53125 29.25 8.53125 C29.2603125 9.19125 29.270625 9.85125 29.28125 10.53125 C28.48927074 13.51281897 27.16446325 14.62735121 24.75 16.53125 C21.421875 17.04882812 21.421875 17.04882812 17.5 17.0625 C16.80487305 17.0663269 16.10974609 17.07015381 15.39355469 17.07409668 C13.92771959 17.0768118 12.46183572 17.06947835 10.99609375 17.05273438 C8.75671025 17.03131419 6.52053413 17.05254443 4.28125 17.078125 C2.85415961 17.07548165 1.42707121 17.0703565 0 17.0625 C-1.29421875 17.05798828 -2.5884375 17.05347656 -3.921875 17.04882812 C-7.75919979 16.45206106 -8.94070951 15.58841949 -11.25 12.53125 C-11.78125 10.53125 -11.78125 10.53125 -11.75 8.53125 C-11.76546875 7.54125 -11.76546875 7.54125 -11.78125 6.53125 C-10.16044839 0.42940865 -5.57509951 0.01943511 0 0 Z " fill="#96A0C3" transform="translate(11.25,215.46875)"/>
<path d="M0 0 C1.04269043 -0.00574036 1.04269043 -0.00574036 2.10644531 -0.01159668 C3.57228041 -0.0143118 5.03816428 -0.00697835 6.50390625 0.00976562 C8.74328975 0.03118581 10.97946587 0.00995557 13.21875 -0.015625 C14.64584039 -0.01298165 16.07292879 -0.0078565 17.5 0 C19.44132812 0.00676758 19.44132812 0.00676758 21.421875 0.01367188 C25.25919979 0.61043894 26.44070951 1.47408051 28.75 4.53125 C29.28125 6.53125 29.28125 6.53125 29.25 8.53125 C29.2603125 9.19125 29.270625 9.85125 29.28125 10.53125 C28.48927074 13.51281897 27.16446325 14.62735121 24.75 16.53125 C21.421875 17.04882812 21.421875 17.04882812 17.5 17.0625 C16.80487305 17.0663269 16.10974609 17.07015381 15.39355469 17.07409668 C13.92771959 17.0768118 12.46183572 17.06947835 10.99609375 17.05273438 C8.75671025 17.03131419 6.52053413 17.05254443 4.28125 17.078125 C2.85415961 17.07548165 1.42707121 17.0703565 0 17.0625 C-1.29421875 17.05798828 -2.5884375 17.05347656 -3.921875 17.04882812 C-7.75919979 16.45206106 -8.94070951 15.58841949 -11.25 12.53125 C-11.78125 10.53125 -11.78125 10.53125 -11.75 8.53125 C-11.76546875 7.54125 -11.76546875 7.54125 -11.78125 6.53125 C-10.16044839 0.42940865 -5.57509951 0.01943511 0 0 Z " fill="#96A0C3" transform="translate(11.25,183.46875)"/>
<path d="M0 0 C4.05371811 0.84452461 5.40104553 2.44273905 8 5.625 C8.61523438 8.77539062 8.61523438 8.77539062 8.59375 12.28125 C8.59117188 13.55097656 8.58859375 14.82070313 8.5859375 16.12890625 C8.54339844 18.10697266 8.54339844 18.10697266 8.5 20.125 C8.50386719 22.10306641 8.50386719 22.10306641 8.5078125 24.12109375 C8.39680085 35.05574158 8.39680085 35.05574158 5 39.625 C2.19084526 41.02957737 0.11189466 40.87395157 -3 40.625 C-6.1359157 38.84515595 -6.84102736 38.10191793 -8 34.625 C-8.27124388 30.51376683 -8.31313817 26.40268728 -8.35009766 22.28320312 C-8.36665751 20.93114001 -8.39394924 19.57916446 -8.43212891 18.22753906 C-8.48707871 16.26941461 -8.505666 14.3103772 -8.5234375 12.3515625 C-8.54325684 11.18189941 -8.56307617 10.01223633 -8.58349609 8.80712891 C-7.66798643 3.81434522 -4.96419262 1.0342068 0 0 Z " fill="#F1F5FF" transform="translate(88,47.375)"/>
<path d="M0 0 C1.15468025 0.01061211 1.15468025 0.01061211 2.33268738 0.0214386 C4.77879178 0.049312 7.22256259 0.11202988 9.66796875 0.17578125 C11.33134702 0.20087357 12.99476137 0.22368512 14.65820312 0.24414062 C18.72485032 0.29911454 22.78976464 0.38533198 26.85546875 0.48828125 C26.66210938 1.12894531 26.46875 1.76960938 26.26953125 2.4296875 C26.00914062 3.29464844 25.74875 4.15960938 25.48046875 5.05078125 C25.09761719 6.32115234 25.09761719 6.32115234 24.70703125 7.6171875 C23.73305423 10.90100911 22.79213911 14.19364506 21.85546875 17.48828125 C17.65566685 17.41930084 13.45681995 17.3312868 9.2578125 17.22583008 C7.83018961 17.19263331 6.40243712 17.16458494 4.97460938 17.1418457 C2.9187106 17.10820112 0.86399363 17.05588563 -1.19140625 17 C-2.42729492 16.97381592 -3.66318359 16.94763184 -4.93652344 16.9206543 C-8.32462595 16.46400821 -9.73270154 15.85561629 -12.14453125 13.48828125 C-12.9296875 11.62109375 -12.9296875 11.62109375 -13.20703125 9.61328125 C-13.32175781 8.95585937 -13.43648438 8.2984375 -13.5546875 7.62109375 C-12.20075625 0.58065127 -6.05145841 -0.21109978 0 0 Z " fill="#96A1C3" transform="translate(357.14453125,383.51171875)"/>
<path d="M0 0 C0.76183594 0.103125 1.52367188 0.20625 2.30859375 0.3125 C3.07300781 0.395 3.83742188 0.4775 4.625 0.5625 C7.44170492 1.55846196 8.18771709 2.7900776 9.74609375 5.3125 C10.13427734 7.61499023 10.13427734 7.61499023 10.14453125 10.12109375 C10.15033203 11.48911133 10.15033203 11.48911133 10.15625 12.88476562 C10.14464844 13.83029297 10.13304688 14.77582031 10.12109375 15.75 C10.13269531 16.69166016 10.14429687 17.63332031 10.15625 18.60351562 C10.11795397 27.64776105 10.11795397 27.64776105 6.74609375 31.3125 C4.625 32.16015625 4.625 32.16015625 2.30859375 32.375 C1.54675781 32.46910156 0.78492187 32.56320312 0 32.66015625 C-3.21011347 32.16500876 -4.2264114 30.80037299 -6.25390625 28.3125 C-6.77148438 25.71875 -6.77148438 25.71875 -6.78515625 22.8125 C-6.7903125 21.760625 -6.79546875 20.70875 -6.80078125 19.625 C-6.7853125 18.531875 -6.76984375 17.43875 -6.75390625 16.3125 C-6.769375 15.219375 -6.78484375 14.12625 -6.80078125 13 C-6.79304688 11.4221875 -6.79304688 11.4221875 -6.78515625 9.8125 C-6.78064453 8.8534375 -6.77613281 7.894375 -6.77148438 6.90625 C-6.0013933 3.0470766 -3.98921682 0.55309765 0 0 Z " fill="#043D5A" transform="translate(70.25390625,311.6875)"/>
<path d="M0 0 C0.66 0 1.32 0 2 0 C2.11728126 3.66639248 2.18760891 7.3322952 2.25 11 C2.28351563 12.02996094 2.31703125 13.05992187 2.3515625 14.12109375 C2.43774047 20.88606409 1.74177458 25.29312078 -2 31 C-2.99 31.33 -3.98 31.66 -5 32 C-6.00605593 29.39802798 -7.00502525 26.79370638 -8 24.1875 C-8.28617187 23.44951172 -8.57234375 22.71152344 -8.8671875 21.95117188 C-9.13789063 21.23896484 -9.40859375 20.52675781 -9.6875 19.79296875 C-9.93886719 19.1383667 -10.19023437 18.48376465 -10.44921875 17.80932617 C-11 16 -11 16 -11 13 C-9.35546875 11.38671875 -9.35546875 11.38671875 -7.1875 9.6875 C-3.70077993 6.7870426 -1.67723904 4.29792505 0 0 Z " fill="#CBD3EA" transform="translate(486,400)"/>
<path d="M0 0 C4.0743356 0.84881992 5.54405875 2.30225596 8 5.625 C8.54667869 8.97340698 8.34038506 10.83785954 7 13.9375 C4.40625967 16.1259684 2.35863095 16.59190498 -0.9921875 16.8515625 C-3 16.625 -3 16.625 -6 14.5625 C-8 11.625 -8 11.625 -8.625 8.625 C-7.58039389 3.61089068 -5.01410932 1.04460611 0 0 Z " fill="#EAF1FF" transform="translate(88,103.375)"/>
<path d="M0 0 C2.66589042 0.54323805 3.75768995 0.96351964 5.875 2.75 C7.17919556 5.76595223 7.28221219 7.80480247 6.875 11.0625 C5.875 13.375 5.875 13.375 3.875 15.0625 C1.14277446 16.03238093 -1.2381276 16.38825603 -4.125 16.0625 C-7.60804057 13.66790961 -8.8857855 12.21072958 -9.75 8.0625 C-8.61022637 2.59158656 -5.66448142 -0.43894505 0 0 Z " fill="#EEF1FA" transform="translate(457.125,31.9375)"/>
<path d="M0 0 C2.66589042 0.54323805 3.75768995 0.96351964 5.875 2.75 C7.17919556 5.76595223 7.28221219 7.80480247 6.875 11.0625 C5.875 13.375 5.875 13.375 3.875 15.0625 C1.14277446 16.03238093 -1.2381276 16.38825603 -4.125 16.0625 C-7.60804057 13.66790961 -8.8857855 12.21072958 -9.75 8.0625 C-8.61022637 2.59158656 -5.66448142 -0.43894505 0 0 Z " fill="#EEF1FA" transform="translate(425.125,31.9375)"/>
<path d="M0 0 C2.66589042 0.54323805 3.75768995 0.96351964 5.875 2.75 C7.17919556 5.76595223 7.28221219 7.80480247 6.875 11.0625 C5.875 13.375 5.875 13.375 3.875 15.0625 C1.14277446 16.03238093 -1.2381276 16.38825603 -4.125 16.0625 C-7.60804057 13.66790961 -8.8857855 12.21072958 -9.75 8.0625 C-8.61022637 2.59158656 -5.66448142 -0.43894505 0 0 Z " fill="#EEF1FA" transform="translate(393.125,31.9375)"/>
<path d="M0 0 C2.0625 1.5625 2.0625 1.5625 3 4 C3.17821261 6.85140177 2.92914963 9.292848 2 12 C-0.93837168 14.85194898 -2.53597436 15 -6.625 15 C-10 14 -10 14 -12 11.875 C-13.30782688 8.11499772 -13.06090617 5.81926223 -12 2 C-8.81688665 -2.07438508 -4.54417813 -1.38635943 0 0 Z " fill="#F1F3FC" transform="translate(237,33)"/>
</svg>
