<?xml version="1.0" standalone="no"?>
<!DOCTYPE svg PUBLIC "-//W3C//DTD SVG 20010904//EN"
 "http://www.w3.org/TR/2001/REC-SVG-20010904/DTD/svg10.dtd">
<svg version="1.0" xmlns="http://www.w3.org/2000/svg"
 width="512.000000pt" height="512.000000pt" viewBox="0 0 512.000000 512.000000"
 preserveAspectRatio="xMidYMid meet">

<g transform="translate(0.000000,512.000000) scale(0.100000,-0.100000)"
fill="#000000" stroke="none">
<path d="M1360 3480 l0 -1560 1200 0 1200 0 0 450 0 450 -39 0 c-22 0 -42 4
-45 9 -3 4 -13 55 -22 112 -9 57 -20 107 -23 111 -3 4 -45 -22 -94 -58 -48
-35 -93 -64 -100 -64 -7 0 -86 74 -176 164 l-164 164 72 99 c59 80 69 99 54
101 -10 2 -63 11 -118 20 l-100 17 0 240 0 240 107 16 c59 9 111 18 117 20 5
2 -21 47 -59 99 l-69 95 167 168 c92 92 169 167 172 167 4 0 46 -29 95 -65 49
-36 92 -65 96 -65 3 0 9 26 13 57 4 31 9 67 12 80 l6 23 -155 0 c-85 0 -163 3
-172 6 -38 15 -45 55 -45 264 l0 200 -965 0 -965 0 0 -1560z m1564 1071 c42
-39 34 -101 -15 -126 -24 -13 -112 -15 -558 -15 l-530 0 -25 23 c-28 25 -34
48 -23 90 15 56 21 57 599 54 l526 -2 26 -24z m0 -420 c32 -30 34 -78 7 -112
l-19 -24 -545 -3 -545 -2 -26 22 c-28 26 -34 49 -23 91 15 56 21 57 599 54
l526 -2 26 -24z m-28 -424 c39 -45 29 -98 -23 -125 -16 -9 -164 -12 -536 -12
-497 0 -515 1 -539 20 -51 39 -36 121 24 139 20 6 235 9 541 8 l509 -2 24 -28z
m0 -420 c32 -37 31 -77 -2 -111 l-27 -26 -522 0 c-505 0 -523 1 -547 20 -51
39 -36 121 24 139 20 6 234 9 541 8 l509 -2 24 -28z m434 -417 c33 -33 30 -85
-6 -117 l-25 -23 -739 0 -739 0 -25 23 c-36 32 -39 84 -6 117 20 20 33 20 770
20 737 0 750 0 770 -20z m0 -425 c32 -34 30 -83 -5 -112 l-26 -23 -739 0 -739
0 -25 23 c-37 33 -39 84 -4 117 22 20 31 20 768 20 l747 0 23 -25z"/>
<path d="M3460 4840 l0 -110 112 0 113 0 -110 110 c-60 61 -111 110 -112 110
-2 0 -3 -49 -3 -110z"/>
<path d="M3795 4370 c-10 -64 -22 -110 -29 -110 -6 0 -38 -13 -72 -29 l-60
-28 -90 63 -89 64 -70 -70 -69 -69 32 -46 c18 -25 46 -64 62 -88 l31 -43 -26
-57 c-14 -32 -25 -64 -25 -72 0 -8 -1 -15 -2 -16 -2 0 -50 -8 -108 -17 l-105
-17 -3 -101 -3 -101 88 -13 c100 -14 133 -25 133 -41 0 -6 12 -37 26 -69 l26
-58 -61 -83 c-34 -45 -61 -85 -61 -89 0 -3 31 -36 69 -74 l68 -68 84 62 c47
34 91 59 99 56 8 -3 43 -15 76 -28 l62 -22 12 -76 c6 -41 14 -90 17 -107 l5
-33 99 0 98 0 6 33 c3 17 11 65 18 106 l12 74 70 29 c39 15 73 28 77 28 4 0
45 -27 90 -60 45 -33 84 -60 88 -60 3 0 36 31 73 68 l68 68 -34 45 c-18 24
-48 64 -65 89 l-32 46 25 52 c14 28 25 58 25 66 0 22 11 26 123 45 l102 17 3
96 c3 111 13 100 -113 119 -87 13 -115 23 -115 42 0 7 -11 36 -25 66 l-25 54
60 83 c33 45 60 86 60 91 0 5 -30 39 -67 75 l-68 67 -88 -64 c-85 -60 -90 -62
-115 -49 -15 8 -48 23 -73 33 l-46 19 -12 84 c-21 141 -9 128 -121 128 l-97 0
-18 -110z m240 -364 c63 -29 138 -111 159 -173 66 -194 -80 -397 -284 -397
-89 1 -156 31 -219 99 -127 140 -102 331 61 454 62 46 203 55 283 17z"/>
<path d="M677 3876 c-85 -31 -147 -90 -189 -182 l-23 -49 0 -1180 0 -1180 26
-55 c37 -80 81 -125 157 -162 l67 -33 592 -3 593 -3 0 -254 0 -254 -282 -3
c-271 -3 -285 -4 -333 -26 -60 -28 -112 -75 -131 -119 -10 -22 -14 -74 -14
-163 l0 -130 1420 0 1420 0 0 130 c0 89 -4 141 -14 163 -19 44 -71 91 -131
119 -48 22 -62 23 -332 26 l-283 3 0 254 0 254 593 3 592 3 55 26 c80 37 125
81 162 157 l33 67 3 955 3 955 -136 -135 -135 -135 0 -677 0 -678 -1830 0
-1830 0 0 1014 c0 909 2 1016 16 1030 13 14 48 16 230 16 l214 0 0 130 0 130
-237 0 c-174 -1 -248 -5 -276 -14z"/>
</g>
</svg>
