<?xml version="1.0" standalone="no"?>
<!DOCTYPE svg PUBLIC "-//W3C//DTD SVG 20010904//EN"
 "http://www.w3.org/TR/2001/REC-SVG-20010904/DTD/svg10.dtd">
<svg version="1.0" xmlns="http://www.w3.org/2000/svg"
 width="512.000000pt" height="512.000000pt" viewBox="0 0 512.000000 512.000000"
 preserveAspectRatio="xMidYMid meet">

<g transform="translate(0.000000,512.000000) scale(0.100000,-0.100000)"
fill="#000000" stroke="none">
<path d="M830 4840 l0 -280 150 0 150 0 0 130 0 130 1165 0 1165 0 0 150 0
150 -1315 0 -1315 0 0 -280z"/>
<path d="M1420 4443 l0 -78 106 -137 105 -138 1135 0 1134 0 0 215 0 215
-1240 0 -1240 0 0 -77z"/>
<path d="M10 2685 l0 -1585 1223 0 1224 0 6 138 c14 282 87 516 233 739 254
391 646 628 1114 674 134 13 322 1 438 -28 l22 -5 0 586 0 586 -1392 1 -1393
0 -180 240 -180 239 -557 0 -558 0 0 -1585z"/>
<path d="M3734 2345 c-371 -67 -689 -305 -856 -640 -174 -348 -159 -779 37
-1115 172 -293 450 -492 792 -566 110 -24 340 -24 453 0 245 52 447 162 620
339 135 138 244 330 296 522 38 145 45 376 15 523 -102 492 -479 858 -966 937
-108 18 -294 18 -391 0z m609 -1207 l-108 -108 -75 75 -75 75 3 -249 3 -248
-147 -7 c-116 -5 -149 -4 -156 6 -4 7 -8 125 -8 263 l0 250 -82 -83 -83 -82
-107 107 -108 108 262 262 263 263 262 -262 263 -263 -107 -107z"/>
</g>
</svg>
