<?xml version="1.0" encoding="UTF-8"?>
<svg version="1.1" xmlns="http://www.w3.org/2000/svg" width="512" height="512">
<path d="M0 0 C1.34495041 -0.00855011 1.34495041 -0.00855011 2.71707153 -0.01727295 C4.60791874 -0.02666413 6.49878188 -0.03323332 8.38964844 -0.03710938 C11.21580392 -0.04673197 14.04120457 -0.07777771 16.8671875 -0.109375 C31.80226788 -0.19626574 45.92701936 1.44694346 60.3828125 5.203125 C60.16625 5.80898438 59.9496875 6.41484375 59.7265625 7.0390625 C56.22401442 17.57913775 56.5644505 25.17952521 61.3828125 35.203125 C61.88941406 36.30527344 61.88941406 36.30527344 62.40625 37.4296875 C63.70047475 39.77999965 64.94489517 40.11960619 67.3828125 41.203125 C70.46484375 42.5859375 70.46484375 42.5859375 73.3828125 45.203125 C74.3821305 48.83096622 74.3569276 52.3336206 74.3203125 56.078125 C74.36865234 57.05910156 74.41699219 58.04007812 74.46679688 59.05078125 C74.47284202 62.03708501 74.32984869 64.36649678 73.3828125 67.203125 C71.257207 69.22530249 69.14165385 70.52375687 66.57641602 71.93701172 C63.72204878 73.58450738 62.43362023 75.45191764 60.8828125 78.328125 C60.41875 79.15570313 59.9546875 79.98328125 59.4765625 80.8359375 C56.79846674 86.63210189 56.26279235 93.25951376 58.01586914 99.43212891 C60.78829864 106.33956759 64.30059994 112.76493477 68.08105469 119.16357422 C69.13393256 120.95503077 70.16067636 122.75992099 71.1875 124.56640625 C76.49231629 133.70382323 81.88076188 139.78378096 92.23828125 142.73046875 C99.77558041 144.39169498 105.45425588 141.95027563 112.3828125 139.203125 C113.3728125 138.873125 114.3628125 138.543125 115.3828125 138.203125 C117.8359375 139.49609375 117.8359375 139.49609375 120.6328125 141.390625 C124.81260965 144.16605471 128.99833591 146.76730467 133.3828125 149.203125 C133.3828125 151.843125 133.3828125 154.483125 133.3828125 157.203125 C127.70353552 160.0862838 123.22701269 160.63299305 116.90786743 160.58407593 C115.97310306 160.5887559 115.03833869 160.59343587 114.07524812 160.59825766 C110.95317725 160.61019248 107.83154654 160.60075613 104.70947266 160.59130859 C102.46691126 160.59537501 100.22435187 160.60071729 97.98179626 160.60723877 C91.8970398 160.62091128 85.81243599 160.61561347 79.72767687 160.60610151 C73.35640077 160.59850277 66.98513769 160.6055513 60.61386108 160.61026001 C49.22707963 160.61606726 37.8403756 160.60674599 26.45360963 160.591482 C16.14123921 160.57808579 5.82897014 160.58040216 -4.48339844 160.59423828 C-16.47112685 160.61031481 -28.45879373 160.61625669 -40.44653666 160.60740149 C-46.78761835 160.60272914 -53.12863031 160.60208797 -59.46970749 160.61201096 C-65.43365598 160.62069177 -71.39741356 160.61463808 -77.36134148 160.59732819 C-79.54741665 160.59336898 -81.73350794 160.59448766 -83.91957664 160.60111618 C-86.90935805 160.60934421 -89.89853216 160.59899452 -92.88827515 160.58407593 C-93.7483119 160.59076809 -94.60834864 160.59746026 -95.49444711 160.60435522 C-105.46666231 160.50819468 -112.1813768 157.54531312 -119.37890625 150.68359375 C-128.39606902 140.69075194 -128.26610915 129.98265479 -127.6171875 117.203125 C-125.25916118 87.27290113 -112.0451551 60.83273775 -91.6171875 39.203125 C-90.51310547 37.98496094 -90.51310547 37.98496094 -89.38671875 36.7421875 C-66.66597389 12.61328927 -32.70395556 0.16654884 0 0 Z " fill="#000000" transform="translate(183.6171875,258.796875)"/>
<path d="M0 0 C0.73951904 -0.00287018 1.47903809 -0.00574036 2.2409668 -0.00869751 C3.80095182 -0.01073453 5.3609626 -0.00522995 6.92089844 0.00732422 C9.30461908 0.0233844 11.6866444 0.00746471 14.0703125 -0.01171875 C15.5885454 -0.00973625 17.10677724 -0.00589244 18.625 0 C19.69077271 -0.00910904 19.69077271 -0.00910904 20.77807617 -0.0184021 C23.7924985 0.02430373 26.04671442 0.26794893 28.76855469 1.60424805 C30.83256562 4.00279585 30.77566587 5.36651361 30.703125 8.50390625 C30.69023437 9.48681641 30.67734375 10.46972656 30.6640625 11.48242188 C30.63054687 12.50658203 30.59703125 13.53074219 30.5625 14.5859375 C30.54445313 15.62169922 30.52640625 16.65746094 30.5078125 17.72460938 C30.46064437 20.28348034 30.39484057 22.84049592 30.3125 25.3984375 C30.88170166 25.50655762 31.45090332 25.61467773 32.03735352 25.72607422 C44.9618036 28.35920689 56.01874386 35.10468136 65.3125 44.3984375 C70.89581487 44.01574984 75.35009984 40.65736652 80.05859375 37.89453125 C83.6934819 36.22326815 85.40255408 35.45572327 89.3125 36.3984375 C91.78147222 38.76184603 93.50997031 41.50954634 95.3125 44.3984375 C95.8394043 45.23407227 96.36630859 46.06970703 96.90917969 46.93066406 C98.54854003 49.60342638 100.1240171 52.30567958 101.6875 55.0234375 C102.23277344 55.93867188 102.77804687 56.85390625 103.33984375 57.796875 C108.4202125 66.6079406 108.4202125 66.6079406 107.3125 71.3984375 C104.45260755 75.29829084 100.22886437 77.36201803 96.0625 79.6484375 C95.4128125 80.01195312 94.763125 80.37546875 94.09375 80.75 C92.50331574 81.63877209 90.90835552 82.51943686 89.3125 83.3984375 C89.5290625 84.67074219 89.5290625 84.67074219 89.75 85.96875 C91.67422025 98.12875299 94.04117595 113.9410856 88.3125 125.3984375 C89.00988281 125.65753906 89.70726562 125.91664063 90.42578125 126.18359375 C93.60635479 127.52210305 96.51225951 129.11009983 99.5 130.8359375 C100.54542969 131.43277344 101.59085938 132.02960938 102.66796875 132.64453125 C105.3125 134.3984375 105.3125 134.3984375 107.3125 137.3984375 C107.88567173 142.39713963 106.66493555 145.2715065 104.171875 149.56640625 C103.51316406 150.70658203 102.85445312 151.84675781 102.17578125 153.02148438 C101.82854004 153.60663818 101.48129883 154.19179199 101.12353516 154.79467773 C100.06451451 156.58253656 99.02910727 158.38256251 97.99609375 160.18554688 C92.14950887 170.19285672 92.14950887 170.19285672 88.3125 172.3984375 C82.56935409 172.29600327 78.62881137 170.24859018 73.875 167.3359375 C73.23884766 166.95888672 72.60269531 166.58183594 71.94726562 166.19335938 C70.39617098 165.27203248 68.85342657 164.33667157 67.3125 163.3984375 C66.85101563 163.75035156 66.38953125 164.10226562 65.9140625 164.46484375 C63.723435 166.12296694 61.51943168 167.7620784 59.3125 169.3984375 C58.53003906 169.98625 57.74757813 170.5740625 56.94140625 171.1796875 C48.61272378 177.25629423 40.3108316 181.04275383 30.3125 183.3984375 C30.32297363 184.01887939 30.33344727 184.63932129 30.34423828 185.27856445 C30.38580886 188.08931427 30.41182933 190.8999994 30.4375 193.7109375 C30.45425781 194.68740234 30.47101563 195.66386719 30.48828125 196.66992188 C30.49472656 197.60771484 30.50117188 198.54550781 30.5078125 199.51171875 C30.51828613 200.37579346 30.52875977 201.23986816 30.53955078 202.13012695 C30.3125 204.3984375 30.3125 204.3984375 28.3125 207.3984375 C22.98495871 209.1742846 17.2140017 208.58434973 11.6340332 208.58374023 C9.38668872 208.58592613 7.13983576 208.60409202 4.89257812 208.62304688 C3.46093917 208.6259812 2.0292979 208.62796573 0.59765625 208.62890625 C-0.70292725 208.63301514 -2.00351074 208.63712402 -3.34350586 208.64135742 C-6.44858391 208.41579324 -8.15537477 208.14819258 -10.6875 206.3984375 C-11.9138757 203.94568609 -11.80165314 202.3478594 -11.78515625 199.609375 C-11.78032227 198.19785156 -11.78032227 198.19785156 -11.77539062 196.7578125 C-11.76282227 195.28054688 -11.76282227 195.28054688 -11.75 193.7734375 C-11.74548828 192.78085937 -11.74097656 191.78828125 -11.73632812 190.765625 C-11.72452145 188.3098359 -11.708054 185.85416646 -11.6875 183.3984375 C-12.32816406 183.21885498 -12.96882813 183.03927246 -13.62890625 182.85424805 C-24.95089941 179.58609819 -34.7135636 174.78454444 -43.69921875 167.09765625 C-45.78162773 165.24982511 -45.78162773 165.24982511 -48.6875 163.3984375 C-49.76128906 164.05972656 -50.83507812 164.72101563 -51.94140625 165.40234375 C-53.37701374 166.2562018 -54.81324514 167.10901149 -56.25 167.9609375 C-56.95447266 168.39857422 -57.65894531 168.83621094 -58.38476562 169.28710938 C-61.86044856 171.32126483 -64.27954632 172.36047817 -68.33984375 172.73828125 C-73.42648475 170.70243777 -75.05958989 167.03463342 -77.6875 162.3984375 C-78.68295957 160.78916524 -79.68034168 159.18108056 -80.6796875 157.57421875 C-81.6436941 155.9549482 -82.60463207 154.33384688 -83.5625 152.7109375 C-84.06007813 151.89560547 -84.55765625 151.08027344 -85.0703125 150.24023438 C-89.5592048 142.61281711 -89.5592048 142.61281711 -88.6875 137.3984375 C-84.61935219 131.73208876 -77.78479881 128.52364088 -71.6875 125.3984375 C-71.0275 125.3984375 -70.3675 125.3984375 -69.6875 125.3984375 C-69.996875 124.3878125 -70.30625 123.3771875 -70.625 122.3359375 C-74.2237202 109.47242701 -72.89722607 96.38057815 -70.6875 83.3984375 C-71.19724365 83.10598145 -71.7069873 82.81352539 -72.23217773 82.51220703 C-74.5329816 81.18808272 -76.82900678 79.85588441 -79.125 78.5234375 C-79.92744141 78.06324219 -80.72988281 77.60304688 -81.55664062 77.12890625 C-82.32041016 76.68417969 -83.08417969 76.23945313 -83.87109375 75.78125 C-84.57806396 75.37277832 -85.28503418 74.96430664 -86.01342773 74.54345703 C-87.6875 73.3984375 -87.6875 73.3984375 -88.6875 71.3984375 C-89.16151568 66.38057911 -88.05334059 63.54846191 -85.546875 59.23046875 C-84.88816406 58.09029297 -84.22945313 56.95011719 -83.55078125 55.77539062 C-83.20354004 55.19023682 -82.85629883 54.60508301 -82.49853516 54.00219727 C-81.43951451 52.21433844 -80.40410727 50.41431249 -79.37109375 48.61132812 C-73.56231684 38.6687323 -73.56231684 38.6687323 -69.6875 36.3984375 C-63.22499873 36.12916661 -58.82260439 39.53822605 -53.5546875 43 C-50.82365973 44.60930053 -50.82365973 44.60930053 -48.05078125 44.30859375 C-45.4190928 43.29506745 -44.00480486 42.18095182 -42 40.2109375 C-34.2821747 33.16986181 -22.43832829 25.3984375 -11.6875 25.3984375 C-11.7189209 24.42233521 -11.7189209 24.42233521 -11.75097656 23.42651367 C-11.83409338 20.47981195 -11.88614484 17.5333566 -11.9375 14.5859375 C-11.97101563 13.56177734 -12.00453125 12.53761719 -12.0390625 11.48242188 C-12.05839844 10.00805664 -12.05839844 10.00805664 -12.078125 8.50390625 C-12.1095459 7.14495239 -12.1095459 7.14495239 -12.14160156 5.75854492 C-11.6875 3.3984375 -11.6875 3.3984375 -10.14355469 1.60424805 C-6.78095707 -0.04663363 -3.66617534 -0.03133439 0 0 Z M-18.3125 86.5234375 C-23.08827128 93.50573602 -24.37276368 101.48998629 -23.25390625 109.76953125 C-21.37714752 118.48028041 -16.78451078 125.58052448 -9.6328125 130.9375 C-1.71894886 136.04418182 5.88647972 138.3273382 15.3125 136.7734375 C24.50589982 134.62118421 32.42184138 129.45327498 37.5625 121.453125 C41.96415799 113.20001627 43.12858325 105.623614 41.3125 96.3984375 C40.2842785 93.19669827 38.95338533 90.32978181 37.3125 87.3984375 C36.96316406 86.77066406 36.61382812 86.14289063 36.25390625 85.49609375 C31.55503944 78.06570575 24.0656385 74.02887243 15.71484375 71.8671875 C1.74872331 69.14209083 -9.70860021 75.76214194 -18.3125 86.5234375 Z " fill="#000000" transform="translate(348.6875,210.6015625)"/>
<path d="M0 0 C14.2884057 11.48533537 24.67048706 27.41288032 27.31103516 45.73632812 C29.19201275 66.69239848 25.16272044 84.61116998 12.06103516 101.48632812 C0.07469581 115.39290733 -16.15335845 124.85694607 -34.62646484 126.60742188 C-35.30708984 126.64996094 -35.98771484 126.6925 -36.68896484 126.73632812 C-37.86458984 126.81560547 -37.86458984 126.81560547 -39.06396484 126.89648438 C-58.17472246 127.55057281 -75.15290528 121.00928859 -89.68896484 108.73632812 C-90.34380859 108.19492188 -90.99865234 107.65351563 -91.67333984 107.09570312 C-104.40338014 95.53355644 -111.62681166 77.61697701 -112.68896484 60.73632812 C-113.06430833 41.54689252 -107.54136367 23.9882109 -95.04052734 9.14648438 C-69.98967947 -16.52855407 -29.25795047 -21.89059723 0 0 Z " fill="#000000" transform="translate(237.68896484375,106.263671875)"/>
</svg>
